SplineFontDB: 3.2
FontName: NKL-FFKhallab-Regular
FullName: NKL FF Khallab Regular
FamilyName: NKL FF Khallab
Weight: Regular
Copyright: Copyright \\(c\\) 2016 by Fahd Al Fraikh. All rights reserved.\nModified by Niskala5570@github for Malay Jawi Script support. 2.1.2022
Version: 2.727 Jawi 2022
ItalicAngle: 0
UnderlinePosition: -292
UnderlineWidth: 150
Ascent: 1638
Descent: 410
InvalidEm: 0
LayerCount: 2
Layer: 0 0 "Back" 1
Layer: 1 0 "Fore" 0
XUID: [1021 382 1457897002 26834]
StyleMap: 0x0040
FSType: 8
OS2Version: 3
OS2_WeightWidthSlopeOnly: 0
OS2_UseTypoMetrics: 0
CreationTime: 1571434463
ModificationTime: 1641054986
PfmFamily: 81
TTFWeight: 400
TTFWidth: 5
LineGap: 0
VLineGap: 0
Panose: 0 0 5 0 0 0 0 0 0 0
OS2TypoAscent: 2500
OS2TypoAOffset: 0
OS2TypoDescent: -1200
OS2TypoDOffset: 0
OS2TypoLinegap: 307
OS2WinAscent: 2500
OS2WinAOffset: 0
OS2WinDescent: 1200
OS2WinDOffset: 0
HheadAscent: 2500
HheadAOffset: 0
HheadDescent: -1200
HheadDOffset: 0
OS2SubXSize: 1331
OS2SubYSize: 1228
OS2SubXOff: 0
OS2SubYOff: 153
OS2SupXSize: 1331
OS2SupYSize: 1228
OS2SupXOff: 0
OS2SupYOff: 716
OS2StrikeYSize: 150
OS2StrikeYPos: 450
OS2Vendor: 'UKWN'
OS2CodePages: 00000040.00000000
OS2UnicodeRanges: 00000000.00000000.00000008.00000000
Lookup: 1 0 0 "'aalt' Access All Alternates in Arabic lookup 0" { "'aalt' Access All Alternates in Arabic lookup 0 subtable"  } ['aalt' ('arab' <'dflt' > ) ]
Lookup: 3 0 0 "'aalt' Access All Alternates in Arabic lookup 1" { "'aalt' Access All Alternates in Arabic lookup 1 subtable"  } ['aalt' ('arab' <'dflt' > ) ]
Lookup: 4 0 0 "'ccmp' Glyph Composition/Decomposition in Arabic lookup 2" { "'ccmp' Glyph Composition/Decomposition in Arabic lookup 2 subtable"  } ['ccmp' ('arab' <'dflt' > ) ]
Lookup: 1 0 0 "'init' Initial Forms in Arabic lookup 3" { "'init' Initial Forms in Arabic lookup 3 subtable"  } ['init' ('arab' <'dflt' > ) ]

StartChar: .notdef
Encoding: 0 -1 0
Width: 1536
Flags: W
LayerCount: 2
Fore
SplineSet
256 0 m 1
 256 1280 l 1
 1280 1280 l 1
 1280 0 l 1
 256 0 l 1
288 32 m 1
 1248 32 l 1
 1248 1248 l 1
 288 1248 l 1
 288 32 l 1
EndSplineSet
EndChar

StartChar: uni0621
Encoding: 2 1569 2
Width: 1034
GlyphClass: 2
Flags: W
AnchorPoint: "Anchor-1" 517 1096 basechar 0
AnchorPoint: "Anchor-0" 517 -198 basechar 0
LayerCount: 2
Fore
SplineSet
101 -44 m 1
 88 120 152 275 314 328 c 1
 143 609 310 1036 686 986 c 0
 967 949 934 525 704 529 c 1
 659 692 408 655 408 513 c 0
 408 338 642 347 934 347 c 1
 913 25 804 0 608 0 c 2
 471 0 l 2
 235 0 171 -18 101 -44 c 1
EndSplineSet
EndChar

StartChar: uni0627
Encoding: 3 1575 3
Width: 838
GlyphClass: 2
Flags: W
AnchorPoint: "Anchor-1" 467 1860 basechar 0
AnchorPoint: "Anchor-0" 467 -198 basechar 0
LayerCount: 2
Fore
SplineSet
788 249 m 1
 788 -82 244 -139 244 330 c 2
 244 1126 l 2
 244 1276 249 1500 50 1500 c 1
 50 1831 594 1888 594 1419 c 2
 594 623 l 2
 594 473 589 249 788 249 c 1
EndSplineSet
Substitution2: "'fina' Terminal Forms in Arabic lookup 5 subtable" uniFE8E
Substitution2: "'aalt' Access All Alternates in Arabic lookup 0 subtable" uniFE8E
EndChar

StartChar: uniFE8E
Encoding: 4 65166 4
Width: 648
GlyphClass: 2
Flags: W
AnchorPoint: "Anchor-1" 417 1860 basechar 0
AnchorPoint: "Anchor-0" 417 -198 basechar 0
LayerCount: 2
Fore
SplineSet
105 0 m 1
 100 1419 l 2
 98 1888 644 1831 644 1500 c 1
 445 1500 450 1276 450 1126 c 2
 450 347 l 1
 748 347 l 1
 748 0 l 1
 105 0 l 1
EndSplineSet
EndChar

StartChar: uni0623
Encoding: 5 1571 5
Width: 838
GlyphClass: 2
Flags: W
AnchorPoint: "Anchor-1" 517 2760 basechar 0
AnchorPoint: "Anchor-0" 517 -198 basechar 0
LayerCount: 2
Fore
SplineSet
101 1928 m 1
 92 2041 136 2147 248 2184 c 1
 130 2378 245 2672 504 2638 c 0
 697 2612 675 2320 516 2323 c 1
 485 2435 312 2409 312 2311 c 0
 312 2191 473 2197 675 2197 c 1
 661 1976 585 1958 450 1958 c 2
 356 1958 l 2
 193 1958 149 1946 101 1928 c 1
788 249 m 1
 788 -82 244 -139 244 330 c 2
 244 1126 l 2
 244 1276 249 1500 50 1500 c 1
 50 1831 594 1888 594 1419 c 2
 594 623 l 2
 594 473 589 249 788 249 c 1
EndSplineSet
Substitution2: "'fina' Terminal Forms in Arabic lookup 5 subtable" uniFE84
Substitution2: "'aalt' Access All Alternates in Arabic lookup 0 subtable" uniFE84
EndChar

StartChar: uniFE84
Encoding: 6 65156 6
Width: 686
GlyphClass: 2
Flags: W
AnchorPoint: "Anchor-1" 346 2760 basechar 0
AnchorPoint: "Anchor-0" 346 -198 basechar 0
LayerCount: 2
Fore
SplineSet
101 1928 m 1
 92 2041 136 2147 248 2184 c 1
 130 2378 245 2672 504 2638 c 0
 697 2612 675 2320 516 2323 c 1
 485 2435 312 2409 312 2311 c 0
 312 2191 473 2197 675 2197 c 1
 661 1976 585 1958 450 1958 c 2
 356 1958 l 2
 193 1958 149 1946 101 1928 c 1
105 0 m 1
 100 1419 l 2
 98 1888 644 1831 644 1500 c 1
 445 1500 450 1276 450 1126 c 2
 450 347 l 1
 748 347 l 1
 748 0 l 1
 105 0 l 1
EndSplineSet
EndChar

StartChar: uni0625
Encoding: 7 1573 7
Width: 838
GlyphClass: 2
Flags: W
AnchorPoint: "Anchor-1" 517 1870 basechar 0
AnchorPoint: "Anchor-0" 512 -1085 basechar 0
LayerCount: 2
Fore
SplineSet
788 249 m 1
 788 -82 244 -139 244 330 c 2
 244 1126 l 2
 244 1276 249 1500 50 1500 c 1
 50 1831 594 1888 594 1419 c 2
 594 623 l 2
 594 473 589 249 788 249 c 1
163 -915 m 1
 154 -802 198 -696 310 -659 c 1
 192 -465 307 -171 566 -205 c 0
 759 -231 737 -523 578 -520 c 1
 547 -408 374 -434 374 -532 c 0
 374 -652 535 -646 737 -646 c 1
 723 -867 647 -885 512 -885 c 2
 418 -885 l 2
 255 -885 211 -897 163 -915 c 1
EndSplineSet
Substitution2: "'fina' Terminal Forms in Arabic lookup 5 subtable" uniFE88
Substitution2: "'aalt' Access All Alternates in Arabic lookup 0 subtable" uniFE88
EndChar

StartChar: uniFE88
Encoding: 8 65160 8
Width: 706
GlyphClass: 2
Flags: W
AnchorPoint: "Anchor-1" 367 1870 basechar 0
AnchorPoint: "Anchor-0" 362 -1085 basechar 0
LayerCount: 2
Fore
SplineSet
105 0 m 1
 100 1419 l 2
 98 1888 644 1831 644 1500 c 1
 445 1500 450 1276 450 1126 c 2
 450 347 l 1
 748 347 l 1
 748 0 l 1
 105 0 l 1
101 -915 m 1
 92 -802 136 -696 248 -659 c 1
 130 -465 245 -171 504 -205 c 0
 697 -231 675 -523 516 -520 c 1
 485 -408 312 -434 312 -532 c 0
 312 -652 473 -646 675 -646 c 1
 661 -867 585 -885 450 -885 c 2
 356 -885 l 2
 193 -885 149 -897 101 -915 c 1
EndSplineSet
EndChar

StartChar: uni0622
Encoding: 9 1570 9
Width: 838
GlyphClass: 2
Flags: W
AnchorPoint: "Anchor-1" 519 2334 basechar 0
AnchorPoint: "Anchor-0" 517 -198 basechar 0
LayerCount: 2
Fore
SplineSet
133 1944 m 1
 -15 1943 -57 2156 96 2210 c 0
 233 2258 519 2071 519 2234 c 1
 665 2234 707 2026 561 1969 c 0
 425 1918 133 2108 133 1944 c 1
788 249 m 1
 788 -82 244 -139 244 330 c 2
 244 1126 l 2
 244 1276 249 1500 50 1500 c 1
 50 1831 594 1888 594 1419 c 2
 594 623 l 2
 594 473 589 249 788 249 c 1
EndSplineSet
Substitution2: "'fina' Terminal Forms in Arabic lookup 5 subtable" uniFE82
Substitution2: "'aalt' Access All Alternates in Arabic lookup 0 subtable" uniFE82
EndChar

StartChar: uniFE82
Encoding: 10 65154 10
Width: 648
GlyphClass: 2
Flags: W
AnchorPoint: "Anchor-1" 379 2334 basechar 0
AnchorPoint: "Anchor-0" 377 -198 basechar 0
LayerCount: 2
Fore
SplineSet
133 1944 m 1
 -15 1943 -57 2156 96 2210 c 0
 233 2258 519 2071 519 2234 c 1
 665 2234 707 2026 561 1969 c 0
 425 1918 133 2108 133 1944 c 1
105 0 m 1
 100 1419 l 2
 98 1888 644 1831 644 1500 c 1
 445 1500 450 1276 450 1126 c 2
 450 347 l 1
 748 347 l 1
 748 0 l 1
 105 0 l 1
EndSplineSet
EndChar

StartChar: uni066E
Encoding: 11 1646 11
Width: 2250
Flags: W
LayerCount: 2
Fore
SplineSet
722 0 m 2
 502 0 349 45 250 133 c 0
 92 271 82 534 114 685 c 0
 161 898 323 1060 570 1060 c 0
 1047 1060 1006 454 658 454 c 0
 520 454 422 541 422 669 c 1
 625 669 655 858 463 858 c 0
 407 858 344 826 303 766 c 0
 233 661 238 477 372 404 c 0
 450 361 568 348 718 347 c 2
 1800 347 l 1
 1800 507 1805 731 1606 731 c 1
 1606 1062 2150 1119 2150 644 c 2
 2150 0 l 1
 722 0 l 2
EndSplineSet
Substitution2: "'fina' Terminal Forms in Arabic lookup 5 subtable" uni066E.fina
Substitution2: "'medi' Medial Forms in Arabic lookup 4 subtable" uni066E.medi
Substitution2: "'init' Initial Forms in Arabic lookup 3 subtable" uni066E.init
AlternateSubs2: "'aalt' Access All Alternates in Arabic lookup 1 subtable" uni066E.init uni066E.medi uni066E.fina
EndChar

StartChar: uni066E.fina
Encoding: 12 -1 12
Width: 2344
Flags: W
LayerCount: 2
Fore
SplineSet
2150 347 m 1
 2444 347 l 1
 2444 0 l 1
 722 0 l 2
 502 0 349 45 250 133 c 0
 92 271 82 534 114 685 c 0
 161 898 323 1060 570 1060 c 0
 1047 1060 1006 454 658 454 c 0
 520 454 422 541 422 669 c 1
 625 669 655 858 463 858 c 0
 407 858 344 826 303 766 c 0
 233 661 238 477 372 404 c 0
 450 361 568 348 718 347 c 2
 1800 347 l 1
 1800 507 1805 731 1606 731 c 1
 1606 1062 2150 1119 2150 644 c 2
 2150 347 l 1
EndSplineSet
EndChar

StartChar: uni066E.medi
Encoding: 13 -1 13
Width: 942
Flags: W
LayerCount: 2
Fore
SplineSet
742 347 m 1
 1042 347 l 1
 1042 0 l 1
 0 0 l 1
 0 347 l 1
 392 347 l 1
 392 507 397 731 198 731 c 1
 198 1062 742 1119 742 644 c 2
 742 347 l 1
EndSplineSet
EndChar

StartChar: uni066E.init
Encoding: 14 -1 14
Width: 842
Flags: W
LayerCount: 2
Fore
SplineSet
0 0 m 1
 0 347 l 1
 392 347 l 1
 392 507 397 731 198 731 c 1
 198 1062 742 1119 742 644 c 2
 742 0 l 1
 0 0 l 1
EndSplineSet
EndChar

StartChar: uni0628
Encoding: 15 1576 15
Width: 2250
GlyphClass: 2
Flags: W
AnchorPoint: "Anchor-1" 1130 1164 basechar 0
AnchorPoint: "Anchor-0" 1128 -728 basechar 0
LayerCount: 2
Fore
SplineSet
722 0 m 2
 502 0 349 45 250 133 c 0
 92 271 82 534 114 685 c 0
 161 898 323 1060 570 1060 c 0
 1047 1060 1006 454 658 454 c 0
 520 454 422 541 422 669 c 1
 625 669 655 858 463 858 c 0
 407 858 344 826 303 766 c 0
 233 661 238 477 372 404 c 0
 450 361 568 348 718 347 c 2
 1800 347 l 1
 1800 507 1805 731 1606 731 c 1
 1606 1062 2150 1119 2150 644 c 2
 2150 0 l 1
 722 0 l 2
1125 -630 m 1
 905 -410 l 1
 1125 -191 l 1
 1344 -410 l 1
 1125 -630 l 1
EndSplineSet
Substitution2: "'fina' Terminal Forms in Arabic lookup 5 subtable" uniFE90
Substitution2: "'medi' Medial Forms in Arabic lookup 4 subtable" uniFE92
Substitution2: "'init' Initial Forms in Arabic lookup 3 subtable" uniFE91
AlternateSubs2: "'aalt' Access All Alternates in Arabic lookup 1 subtable" uniFE91 uniFE92 uniFE90
EndChar

StartChar: uniFE90
Encoding: 16 65168 16
Width: 2344
GlyphClass: 2
Flags: W
AnchorPoint: "Anchor-1" 1130 1164 basechar 0
AnchorPoint: "Anchor-0" 1128 -728 basechar 0
LayerCount: 2
Fore
SplineSet
2150 347 m 1
 2444 347 l 1
 2444 0 l 1
 722 0 l 2
 502 0 349 45 250 133 c 0
 92 271 82 534 114 685 c 0
 161 898 323 1060 570 1060 c 0
 1047 1060 1006 454 658 454 c 0
 520 454 422 541 422 669 c 1
 625 669 655 858 463 858 c 0
 407 858 344 826 303 766 c 0
 233 661 238 477 372 404 c 0
 450 361 568 348 718 347 c 2
 1800 347 l 1
 1800 507 1805 731 1606 731 c 1
 1606 1062 2150 1119 2150 644 c 2
 2150 347 l 1
905 -410 m 1
 1125 -191 l 1
 1344 -410 l 1
 1125 -630 l 1
 905 -410 l 1
EndSplineSet
EndChar

StartChar: uniFE92
Encoding: 17 65170 17
Width: 942
GlyphClass: 2
Flags: W
AnchorPoint: "Anchor-1" 520 1164 basechar 0
AnchorPoint: "Anchor-0" 518 -728 basechar 0
LayerCount: 2
Fore
SplineSet
742 347 m 1
 1042 347 l 1
 1042 0 l 1
 0 0 l 1
 0 347 l 1
 392 347 l 1
 392 507 397 731 198 731 c 1
 198 1062 742 1119 742 644 c 2
 742 347 l 1
300 -410 m 1
 520 -191 l 1
 739 -410 l 1
 520 -630 l 1
 300 -410 l 1
EndSplineSet
EndChar

StartChar: uniFE91
Encoding: 18 65169 18
Width: 842
GlyphClass: 2
Flags: W
AnchorPoint: "Anchor-1" 480 1164 basechar 0
AnchorPoint: "Anchor-0" 478 -728 basechar 0
LayerCount: 2
Fore
SplineSet
0 0 m 1
 0 347 l 1
 392 347 l 1
 392 507 397 731 198 731 c 1
 198 1062 742 1119 742 644 c 2
 742 0 l 1
 0 0 l 1
520 -630 m 1
 300 -410 l 1
 520 -191 l 1
 739 -410 l 1
 520 -630 l 1
EndSplineSet
EndChar

StartChar: uni062A
Encoding: 19 1578 19
Width: 2250
GlyphClass: 2
Flags: W
AnchorPoint: "Anchor-1" 1130 1664 basechar 0
AnchorPoint: "Anchor-0" 1128 -207 basechar 0
LayerCount: 2
Fore
SplineSet
1125 1290 m 1
 975 1140 l 1
 755 1360 l 1
 975 1579 l 1
 1125 1429 l 1
 1275 1579 l 1
 1494 1360 l 1
 1275 1140 l 1
 1125 1290 l 1
1606 731 m 1
 1606 1062 2150 1119 2150 644 c 2
 2150 0 l 1
 722 0 l 2
 502 0 349 45 250 133 c 0
 92 271 82 534 114 685 c 0
 161 898 323 1060 570 1060 c 0
 1047 1060 1006 454 658 454 c 0
 520 454 422 541 422 669 c 1
 625 669 655 858 463 858 c 0
 407 858 344 826 303 766 c 0
 233 661 238 477 372 404 c 0
 450 361 568 348 718 347 c 2
 1800 347 l 1
 1800 507 1805 731 1606 731 c 1
EndSplineSet
Substitution2: "'fina' Terminal Forms in Arabic lookup 5 subtable" uniFE96
Substitution2: "'medi' Medial Forms in Arabic lookup 4 subtable" uniFE98
Substitution2: "'init' Initial Forms in Arabic lookup 3 subtable" uniFE97
AlternateSubs2: "'aalt' Access All Alternates in Arabic lookup 1 subtable" uniFE97 uniFE98 uniFE96
EndChar

StartChar: uniFE96
Encoding: 20 65174 20
Width: 2344
GlyphClass: 2
Flags: W
AnchorPoint: "Anchor-1" 1130 1664 basechar 0
AnchorPoint: "Anchor-0" 1128 -207 basechar 0
LayerCount: 2
Fore
SplineSet
1125 1290 m 1
 975 1140 l 1
 755 1360 l 1
 975 1579 l 1
 1125 1429 l 1
 1275 1579 l 1
 1494 1360 l 1
 1275 1140 l 1
 1125 1290 l 1
2150 347 m 1
 2444 347 l 1
 2444 0 l 1
 722 0 l 2
 502 0 349 45 250 133 c 0
 92 271 82 534 114 685 c 0
 161 898 323 1060 570 1060 c 0
 1047 1060 1006 454 658 454 c 0
 520 454 422 541 422 669 c 1
 625 669 655 858 463 858 c 0
 407 858 344 826 303 766 c 0
 233 661 238 477 372 404 c 0
 450 361 568 348 718 347 c 2
 1800 347 l 1
 1800 507 1805 731 1606 731 c 1
 1606 1062 2150 1119 2150 644 c 2
 2150 347 l 1
EndSplineSet
EndChar

StartChar: uniFE98
Encoding: 21 65176 21
Width: 942
GlyphClass: 2
Flags: W
AnchorPoint: "Anchor-1" 470 1664 basechar 0
AnchorPoint: "Anchor-0" 468 -207 basechar 0
LayerCount: 2
Fore
SplineSet
472 1290 m 1
 322 1140 l 1
 102 1360 l 1
 322 1579 l 1
 472 1429 l 1
 622 1579 l 1
 841 1360 l 1
 622 1140 l 1
 472 1290 l 1
742 347 m 1
 1042 347 l 1
 1042 0 l 1
 0 0 l 1
 0 347 l 1
 392 347 l 1
 392 507 397 731 198 731 c 1
 198 1062 742 1119 742 644 c 2
 742 347 l 1
EndSplineSet
EndChar

StartChar: uniFE97
Encoding: 22 65175 22
Width: 842
GlyphClass: 2
Flags: W
AnchorPoint: "Anchor-1" 470 1664 basechar 0
AnchorPoint: "Anchor-0" 468 -207 basechar 0
LayerCount: 2
Fore
SplineSet
475 1290 m 1
 325 1140 l 1
 105 1360 l 1
 325 1579 l 1
 475 1429 l 1
 625 1579 l 1
 844 1360 l 1
 625 1140 l 1
 475 1290 l 1
198 731 m 1
 198 1062 742 1119 742 644 c 2
 742 0 l 1
 0 0 l 1
 0 347 l 1
 392 347 l 1
 392 507 397 731 198 731 c 1
EndSplineSet
EndChar

StartChar: uni062B
Encoding: 23 1579 23
Width: 2250
GlyphClass: 2
Flags: W
AnchorPoint: "Anchor-1" 1125 1980 basechar 0
AnchorPoint: "Anchor-0" 1128 -207 basechar 0
LayerCount: 2
Fore
SplineSet
1305 1700 m 1
 1125 1519 l 1
 944 1700 l 1
 1125 1880 l 1
 1305 1700 l 1
1125 1280 m 1
 975 1130 l 1
 755 1350 l 1
 975 1569 l 1
 1125 1419 l 1
 1275 1569 l 1
 1494 1350 l 1
 1275 1130 l 1
 1125 1280 l 1
1606 731 m 1
 1606 1062 2150 1119 2150 644 c 2
 2150 0 l 1
 722 0 l 2
 502 0 349 45 250 133 c 0
 92 271 82 534 114 685 c 0
 161 898 323 1060 570 1060 c 0
 1047 1060 1006 454 658 454 c 0
 520 454 422 541 422 669 c 1
 625 669 655 858 463 858 c 0
 407 858 344 826 303 766 c 0
 233 661 238 477 372 404 c 0
 450 361 568 348 718 347 c 2
 1800 347 l 1
 1800 507 1805 731 1606 731 c 1
EndSplineSet
Substitution2: "'fina' Terminal Forms in Arabic lookup 5 subtable" uniFE9A
Substitution2: "'medi' Medial Forms in Arabic lookup 4 subtable" uniFE9C
Substitution2: "'init' Initial Forms in Arabic lookup 3 subtable" uniFE9B
AlternateSubs2: "'aalt' Access All Alternates in Arabic lookup 1 subtable" uniFE9B uniFE9C uniFE9A
EndChar

StartChar: uniFE9A
Encoding: 24 65178 24
Width: 2344
GlyphClass: 2
Flags: W
AnchorPoint: "Anchor-1" 1125 1980 basechar 0
AnchorPoint: "Anchor-0" 1128 -207 basechar 0
LayerCount: 2
Fore
SplineSet
1305 1700 m 1
 1125 1519 l 1
 944 1700 l 1
 1125 1880 l 1
 1305 1700 l 1
1125 1280 m 1
 975 1130 l 1
 755 1350 l 1
 975 1569 l 1
 1125 1419 l 1
 1275 1569 l 1
 1494 1350 l 1
 1275 1130 l 1
 1125 1280 l 1
2150 347 m 1
 2444 347 l 1
 2444 0 l 1
 722 0 l 2
 502 0 349 45 250 133 c 0
 92 271 82 534 114 685 c 0
 161 898 323 1060 570 1060 c 0
 1047 1060 1006 454 658 454 c 0
 520 454 422 541 422 669 c 1
 625 669 655 858 463 858 c 0
 407 858 344 826 303 766 c 0
 233 661 238 477 372 404 c 0
 450 361 568 348 718 347 c 2
 1800 347 l 1
 1800 507 1805 731 1606 731 c 1
 1606 1062 2150 1119 2150 644 c 2
 2150 347 l 1
EndSplineSet
EndChar

StartChar: uniFE9C
Encoding: 25 65180 25
Width: 942
GlyphClass: 2
Flags: W
AnchorPoint: "Anchor-1" 465 1980 basechar 0
AnchorPoint: "Anchor-0" 468 -207 basechar 0
LayerCount: 2
Fore
SplineSet
652 1700 m 1
 472 1519 l 1
 291 1700 l 1
 472 1880 l 1
 652 1700 l 1
472 1280 m 1
 322 1130 l 1
 102 1350 l 1
 322 1569 l 1
 472 1419 l 1
 622 1569 l 1
 841 1350 l 1
 622 1130 l 1
 472 1280 l 1
742 347 m 1
 1042 347 l 1
 1042 0 l 1
 0 0 l 1
 0 347 l 1
 392 347 l 1
 392 507 397 731 198 731 c 1
 198 1062 742 1119 742 644 c 2
 742 347 l 1
EndSplineSet
EndChar

StartChar: uniFE9B
Encoding: 26 65179 26
Width: 842
GlyphClass: 2
Flags: W
AnchorPoint: "Anchor-1" 465 1980 basechar 0
AnchorPoint: "Anchor-0" 468 -207 basechar 0
LayerCount: 2
Fore
SplineSet
652 1700 m 1
 472 1519 l 1
 291 1700 l 1
 472 1880 l 1
 652 1700 l 1
472 1280 m 1
 322 1130 l 1
 102 1350 l 1
 322 1569 l 1
 472 1419 l 1
 622 1569 l 1
 841 1350 l 1
 622 1130 l 1
 472 1280 l 1
198 731 m 1
 198 1062 742 1119 742 644 c 2
 742 0 l 1
 0 0 l 1
 0 347 l 1
 392 347 l 1
 392 507 397 731 198 731 c 1
EndSplineSet
EndChar

StartChar: uni062C
Encoding: 27 1580 27
Width: 1569
GlyphClass: 2
Flags: W
AnchorPoint: "Anchor-1" 765 1180 basechar 0
AnchorPoint: "Anchor-0" 768 -1007 basechar 0
LayerCount: 2
Fore
SplineSet
1238 -148 m 0
 1396 -165 1486 -303 1466 -478 c 0
 1430 -781 1159 -906 793 -906 c 0
 422 -906 96 -740 96 -344 c 0
 96 128 435 347 1039 347 c 1
 1078 758 481 886 153 459 c 1
 153 834 441 1060 797 1060 c 0
 1230 1060 1488 772 1388 0 c 1
 806 0 459 -2 459 -387 c 0
 459 -530 515 -740 793 -740 c 0
 987 -740 1101 -671 1101 -517 c 0
 1101 -426 1038 -360 968 -389 c 1
 749 -609 l 1
 529 -389 l 1
 749 -170 l 1
 967 -388 l 1
 957 -220 1075 -130 1238 -148 c 0
EndSplineSet
Substitution2: "'fina' Terminal Forms in Arabic lookup 5 subtable" uniFE9E
Substitution2: "'medi' Medial Forms in Arabic lookup 4 subtable" uniFEA0
Substitution2: "'init' Initial Forms in Arabic lookup 3 subtable" uniFE9F
AlternateSubs2: "'aalt' Access All Alternates in Arabic lookup 1 subtable" uniFE9F uniFEA0 uniFE9E
EndChar

StartChar: uniFE9E
Encoding: 28 65182 28
Width: 1615
GlyphClass: 2
Flags: W
AnchorPoint: "Anchor-1" 765 1180 basechar 0
AnchorPoint: "Anchor-0" 768 -1007 basechar 0
LayerCount: 2
Fore
SplineSet
1392 0 m 1
 1390 0 l 2
 809 0 463 -2 463 -387 c 0
 463 -530 519 -740 797 -740 c 0
 991 -740 1105 -671 1105 -517 c 0
 1105 -426 1042 -360 971 -389 c 1
 960 -220 1079 -130 1242 -148 c 0
 1400 -165 1490 -303 1470 -478 c 0
 1434 -781 1163 -906 797 -906 c 0
 426 -906 100 -740 100 -344 c 0
 100 128 439 347 1043 347 c 1
 1082 758 485 886 157 459 c 1
 157 834 445 1060 801 1060 c 0
 1162 1060 1401 860 1413 347 c 1
 1715 347 l 1
 1715 0 l 1
 1392 0 l 1
749 -609 m 1
 529 -389 l 1
 749 -170 l 1
 968 -389 l 1
 749 -609 l 1
EndSplineSet
EndChar

StartChar: uniFEA0
Encoding: 29 65184 29
Width: 1562
GlyphClass: 2
Flags: W
AnchorPoint: "Anchor-1" 765 1180 basechar 0
AnchorPoint: "Anchor-0" 768 -736 basechar 0
LayerCount: 2
Fore
SplineSet
1358 347 m 1
 1662 347 l 1
 1662 0 l 1
 0 0 l 1
 0 347 l 1
 986 347 l 1
 986 758 463 886 100 459 c 1
 126 834 388 1060 744 1060 c 0
 1125 1060 1351 860 1358 347 c 1
562 -410 m 1
 782 -191 l 1
 1001 -410 l 1
 782 -630 l 1
 562 -410 l 1
EndSplineSet
EndChar

StartChar: uniFE9F
Encoding: 30 65183 30
Width: 1458
GlyphClass: 2
Flags: W
AnchorPoint: "Anchor-1" 765 1180 basechar 0
AnchorPoint: "Anchor-0" 768 -736 basechar 0
LayerCount: 2
Fore
SplineSet
0 0 m 1
 0 347 l 1
 986 347 l 1
 986 758 463 886 100 459 c 1
 126 834 388 1060 744 1060 c 0
 1201 1060 1435 772 1335 0 c 1
 0 0 l 1
782 -630 m 1
 562 -410 l 1
 782 -191 l 1
 1001 -410 l 1
 782 -630 l 1
EndSplineSet
EndChar

StartChar: uni062D
Encoding: 31 1581 31
Width: 1569
GlyphClass: 2
Flags: W
AnchorPoint: "Anchor-1" 765 1180 basechar 0
AnchorPoint: "Anchor-0" 768 -1007 basechar 0
LayerCount: 2
Fore
SplineSet
793 -906 m 0
 422 -906 96 -740 96 -344 c 0
 96 128 435 347 1039 347 c 1
 1078 758 481 886 153 459 c 1
 153 834 441 1060 797 1060 c 0
 1230 1060 1488 772 1388 0 c 1
 806 0 459 -2 459 -387 c 0
 459 -530 515 -740 793 -740 c 0
 987 -740 1101 -671 1101 -517 c 0
 1101 -426 1038 -360 967 -389 c 1
 956 -220 1075 -130 1238 -148 c 0
 1396 -165 1486 -303 1466 -478 c 0
 1430 -781 1159 -906 793 -906 c 0
EndSplineSet
Substitution2: "'fina' Terminal Forms in Arabic lookup 5 subtable" uniFEA2
Substitution2: "'medi' Medial Forms in Arabic lookup 4 subtable" uniFEA4
Substitution2: "'init' Initial Forms in Arabic lookup 3 subtable" uniFEA3
AlternateSubs2: "'aalt' Access All Alternates in Arabic lookup 1 subtable" uniFEA3 uniFEA4 uniFEA2
EndChar

StartChar: uniFEA2
Encoding: 32 65186 32
Width: 1615
GlyphClass: 2
Flags: W
AnchorPoint: "Anchor-1" 769 1180 basechar 0
AnchorPoint: "Anchor-0" 772 -1007 basechar 0
LayerCount: 2
Fore
SplineSet
1390 0 m 2
 809 0 463 -2 463 -387 c 0
 463 -530 519 -740 797 -740 c 0
 991 -740 1105 -671 1105 -517 c 0
 1105 -426 1042 -360 971 -389 c 1
 960 -220 1079 -130 1242 -148 c 0
 1400 -165 1490 -303 1470 -478 c 0
 1434 -781 1163 -906 797 -906 c 0
 426 -906 100 -740 100 -344 c 0
 100 128 439 347 1043 347 c 1
 1082 758 485 886 157 459 c 1
 157 834 445 1060 801 1060 c 0
 1162 1060 1401 860 1413 347 c 1
 1715 347 l 1
 1715 0 l 1
 1392 0 l 1
 1390 0 l 2
EndSplineSet
EndChar

StartChar: uniFEA4
Encoding: 33 65188 33
Width: 1562
GlyphClass: 2
Flags: W
AnchorPoint: "Anchor-1" 765 1180 basechar 0
AnchorPoint: "Anchor-0" 768 -226 basechar 0
LayerCount: 2
Fore
SplineSet
1358 347 m 1
 1662 347 l 1
 1662 0 l 1
 0 0 l 1
 0 347 l 1
 986 347 l 1
 986 758 463 886 100 459 c 1
 126 834 388 1060 744 1060 c 0
 1125 1060 1351 860 1358 347 c 1
EndSplineSet
EndChar

StartChar: uniFEA3
Encoding: 34 65187 34
Width: 1458
GlyphClass: 2
Flags: W
AnchorPoint: "Anchor-1" 765 1180 basechar 0
AnchorPoint: "Anchor-0" 768 -226 basechar 0
LayerCount: 2
Fore
SplineSet
0 0 m 1
 0 347 l 1
 986 347 l 1
 986 758 463 886 100 459 c 1
 126 834 388 1060 744 1060 c 0
 1201 1060 1435 772 1335 0 c 1
 0 0 l 1
EndSplineSet
EndChar

StartChar: uni062E
Encoding: 35 1582 35
Width: 1569
GlyphClass: 2
Flags: W
AnchorPoint: "Anchor-1" 765 1730 basechar 0
AnchorPoint: "Anchor-0" 768 -1007 basechar 0
LayerCount: 2
Fore
SplineSet
783 1207 m 1
 563 1427 l 1
 783 1646 l 1
 1002 1427 l 1
 783 1207 l 1
793 -906 m 0
 422 -906 96 -740 96 -344 c 0
 96 128 435 347 1039 347 c 1
 1078 758 481 886 153 459 c 1
 153 834 441 1060 797 1060 c 0
 1230 1060 1488 772 1388 0 c 1
 806 0 459 -2 459 -387 c 0
 459 -530 515 -740 793 -740 c 0
 987 -740 1101 -671 1101 -517 c 0
 1101 -426 1038 -360 967 -389 c 1
 956 -220 1075 -130 1238 -148 c 0
 1396 -165 1486 -303 1466 -478 c 0
 1430 -781 1159 -906 793 -906 c 0
EndSplineSet
Substitution2: "'fina' Terminal Forms in Arabic lookup 5 subtable" uniFEA6
Substitution2: "'medi' Medial Forms in Arabic lookup 4 subtable" uniFEA8
Substitution2: "'init' Initial Forms in Arabic lookup 3 subtable" uniFEA7
AlternateSubs2: "'aalt' Access All Alternates in Arabic lookup 1 subtable" uniFEA7 uniFEA8 uniFEA6
EndChar

StartChar: uniFEA6
Encoding: 36 65190 36
Width: 1615
GlyphClass: 2
Flags: W
AnchorPoint: "Anchor-1" 765 1730 basechar 0
AnchorPoint: "Anchor-0" 768 -1007 basechar 0
LayerCount: 2
Fore
SplineSet
1002 1427 m 1
 783 1207 l 1
 563 1427 l 1
 783 1646 l 1
 1002 1427 l 1
1390 0 m 2
 809 0 463 -2 463 -387 c 0
 463 -530 519 -740 797 -740 c 0
 991 -740 1105 -671 1105 -517 c 0
 1105 -426 1042 -360 971 -389 c 1
 960 -220 1079 -130 1242 -148 c 0
 1400 -165 1490 -303 1470 -478 c 0
 1434 -781 1163 -906 797 -906 c 0
 426 -906 100 -740 100 -344 c 0
 100 128 439 347 1043 347 c 1
 1082 758 485 886 157 459 c 1
 157 834 445 1060 801 1060 c 0
 1162 1060 1401 860 1413 347 c 1
 1715 347 l 1
 1715 0 l 1
 1392 0 l 1
 1390 0 l 2
EndSplineSet
EndChar

StartChar: uniFEA8
Encoding: 37 65192 37
Width: 1562
GlyphClass: 2
Flags: W
AnchorPoint: "Anchor-1" 765 1750 basechar 0
AnchorPoint: "Anchor-0" 768 -226 basechar 0
LayerCount: 2
Fore
SplineSet
898 1427 m 1
 679 1207 l 1
 459 1427 l 1
 679 1646 l 1
 898 1427 l 1
1358 347 m 1
 1662 347 l 1
 1662 0 l 1
 0 0 l 1
 0 347 l 1
 986 347 l 1
 986 758 463 886 100 459 c 1
 126 834 388 1060 744 1060 c 0
 1125 1060 1351 860 1358 347 c 1
EndSplineSet
EndChar

StartChar: uniFEA7
Encoding: 38 65191 38
Width: 1458
GlyphClass: 2
Flags: W
AnchorPoint: "Anchor-1" 765 1750 basechar 0
AnchorPoint: "Anchor-0" 768 -226 basechar 0
LayerCount: 2
Fore
SplineSet
679 1207 m 1
 459 1427 l 1
 679 1646 l 1
 898 1427 l 1
 679 1207 l 1
0 0 m 1
 0 347 l 1
 986 347 l 1
 986 758 463 886 100 459 c 1
 126 834 388 1060 744 1060 c 0
 1201 1060 1435 772 1335 0 c 1
 0 0 l 1
EndSplineSet
EndChar

StartChar: uni062F
Encoding: 39 1583 39
Width: 1411
GlyphClass: 2
Flags: W
AnchorPoint: "Anchor-1" 765 1180 basechar 0
AnchorPoint: "Anchor-0" 768 -226 basechar 0
LayerCount: 2
Fore
SplineSet
443 0 m 2
 187 0 86 189 102 391 c 1
 172 365 236 347 472 347 c 2
 939 347 l 1
 939 758 517 924 155 712 c 1
 219 882 391 1060 697 1060 c 0
 1154 1060 1388 772 1288 0 c 1
 443 0 l 2
EndSplineSet
Substitution2: "'fina' Terminal Forms in Arabic lookup 5 subtable" uniFEAA
Substitution2: "'aalt' Access All Alternates in Arabic lookup 0 subtable" uniFEAA
EndChar

StartChar: uniFEAA
Encoding: 40 65194 40
Width: 1512
GlyphClass: 2
Flags: W
AnchorPoint: "Anchor-1" 765 1180 basechar 0
AnchorPoint: "Anchor-0" 768 -226 basechar 0
LayerCount: 2
Fore
SplineSet
1311 347 m 1
 1612 347 l 1
 1612 0 l 1
 443 0 l 2
 187 0 86 189 102 391 c 1
 172 365 236 347 472 347 c 2
 939 347 l 1
 939 758 517 924 155 712 c 1
 219 882 391 1060 697 1060 c 0
 1078 1060 1304 860 1311 347 c 1
EndSplineSet
EndChar

StartChar: uni0630
Encoding: 41 1584 41
Width: 1411
GlyphClass: 2
Flags: W
AnchorPoint: "Anchor-1" 765 1720 basechar 0
AnchorPoint: "Anchor-0" 768 -226 basechar 0
LayerCount: 2
Fore
SplineSet
706 1207 m 1
 486 1427 l 1
 706 1646 l 1
 925 1427 l 1
 706 1207 l 1
443 0 m 2
 187 0 86 189 102 391 c 1
 172 365 236 347 472 347 c 2
 939 347 l 1
 939 758 517 924 155 712 c 1
 219 882 391 1060 697 1060 c 0
 1154 1060 1388 772 1288 0 c 1
 443 0 l 2
EndSplineSet
Substitution2: "'fina' Terminal Forms in Arabic lookup 5 subtable" uniFEAC
Substitution2: "'aalt' Access All Alternates in Arabic lookup 0 subtable" uniFEAC
EndChar

StartChar: uniFEAC
Encoding: 42 65196 42
Width: 1512
GlyphClass: 2
Flags: W
AnchorPoint: "Anchor-1" 765 1720 basechar 0
AnchorPoint: "Anchor-0" 768 -226 basechar 0
LayerCount: 2
Fore
SplineSet
925 1427 m 1
 706 1207 l 1
 486 1427 l 1
 706 1646 l 1
 925 1427 l 1
1311 347 m 1
 1612 347 l 1
 1612 0 l 1
 443 0 l 2
 187 0 86 189 102 391 c 1
 172 365 236 347 472 347 c 2
 939 347 l 1
 939 758 517 924 155 712 c 1
 219 882 391 1060 697 1060 c 0
 1078 1060 1304 860 1311 347 c 1
EndSplineSet
EndChar

StartChar: uni0631
Encoding: 43 1585 43
Width: 844
GlyphClass: 2
Flags: W
AnchorPoint: "Anchor-1" 445 1110 basechar 0
AnchorPoint: "Anchor-0" 448 -836 basechar 0
LayerCount: 2
Fore
SplineSet
200 730 m 1
 200 1061 744 1118 744 649 c 2
 744 -100 l 2
 744 -797 0 -740 0 -409 c 1
 125 -435 394 -495 394 -35 c 2
 394 389 l 2
 394 537 385 730 200 730 c 1
EndSplineSet
Substitution2: "'fina' Terminal Forms in Arabic lookup 5 subtable" uniFEAE
Substitution2: "'aalt' Access All Alternates in Arabic lookup 0 subtable" uniFEAE
EndChar

StartChar: uniFEAE
Encoding: 44 65198 44
Width: 951
GlyphClass: 2
Flags: W
AnchorPoint: "Anchor-1" 445 1110 basechar 0
AnchorPoint: "Anchor-0" 448 -836 basechar 0
LayerCount: 2
Fore
SplineSet
1051 347 m 1
 1051 0 l 1
 744 0 l 1
 744 -100 l 2
 744 -797 0 -740 0 -409 c 1
 125 -435 394 -495 394 -35 c 2
 394 389 l 2
 394 537 385 730 200 730 c 1
 200 1061 744 1118 744 649 c 2
 744 347 l 1
 1051 347 l 1
EndSplineSet
EndChar

StartChar: uni0632
Encoding: 45 1586 45
Width: 844
GlyphClass: 2
Flags: W
AnchorPoint: "Anchor-1" 445 1670 basechar 0
AnchorPoint: "Anchor-0" 448 -836 basechar 0
LayerCount: 2
Fore
SplineSet
493 1134 m 1
 273 1354 l 1
 493 1573 l 1
 712 1354 l 1
 493 1134 l 1
200 730 m 1
 200 1061 744 1118 744 649 c 2
 744 -100 l 2
 744 -797 0 -740 0 -409 c 1
 125 -435 394 -495 394 -35 c 2
 394 389 l 2
 394 537 385 730 200 730 c 1
EndSplineSet
Substitution2: "'fina' Terminal Forms in Arabic lookup 5 subtable" uniFEB0
Substitution2: "'aalt' Access All Alternates in Arabic lookup 0 subtable" uniFEB0
EndChar

StartChar: uniFEB0
Encoding: 46 65200 46
Width: 951
GlyphClass: 2
Flags: W
AnchorPoint: "Anchor-1" 445 1670 basechar 0
AnchorPoint: "Anchor-0" 448 -836 basechar 0
LayerCount: 2
Fore
SplineSet
712 1354 m 1
 493 1134 l 1
 273 1354 l 1
 493 1573 l 1
 712 1354 l 1
1051 347 m 1
 1051 0 l 1
 744 0 l 1
 744 -100 l 2
 744 -797 0 -740 0 -409 c 1
 125 -435 394 -495 394 -35 c 2
 394 389 l 2
 394 537 385 730 200 730 c 1
 200 1061 744 1118 744 649 c 2
 744 347 l 1
 1051 347 l 1
EndSplineSet
EndChar

StartChar: uni0633
Encoding: 47 1587 47
Width: 2973
GlyphClass: 2
Flags: W
AnchorPoint: "Anchor-1" 2055 1170 basechar 0
AnchorPoint: "Anchor-0" 788 -756 basechar 0
LayerCount: 2
Fore
SplineSet
2873 775 m 2
 2873 0 l 1
 1549 0 l 1
 1410 -974 -37 -781 111 158 c 0
 134 309 210 445 334 531 c 0
 597 712 999 607 1005 296 c 0
 1008 147 910 0 739 0 c 0
 601 0 503 87 503 215 c 1
 615 215 675 273 672 324 c 0
 669 416 526 461 420 369 c 0
 351 309 311 233 299 154 c 0
 215 -409 1219 -493 1215 152 c 0
 1213 523 1215 721 1018 721 c 1
 1018 1052 1564 1109 1562 704 c 2
 1561 347 l 1
 1865 347 l 1
 1866 704 1865 721 1758 721 c 1
 1758 1052 2215 1109 2215 704 c 2
 2215 347 l 1
 2523 347 l 1
 2523 772 2531 792 2416 792 c 1
 2416 1123 2873 1180 2873 775 c 2
EndSplineSet
Substitution2: "'fina' Terminal Forms in Arabic lookup 5 subtable" uniFEB2
Substitution2: "'medi' Medial Forms in Arabic lookup 4 subtable" uniFEB4
Substitution2: "'init' Initial Forms in Arabic lookup 3 subtable" uniFEB3
AlternateSubs2: "'aalt' Access All Alternates in Arabic lookup 1 subtable" uniFEB3 uniFEB4 uniFEB2
EndChar

StartChar: uniFEB2
Encoding: 48 65202 48
Width: 3061
GlyphClass: 2
Flags: W
AnchorPoint: "Anchor-1" 2055 1170 basechar 0
AnchorPoint: "Anchor-0" 788 -756 basechar 0
LayerCount: 2
Fore
SplineSet
2873 347 m 1
 3161 347 l 1
 3161 0 l 1
 1549 0 l 1
 1410 -974 -37 -781 111 158 c 0
 134 309 210 445 334 531 c 0
 597 712 999 607 1005 296 c 0
 1008 147 910 0 739 0 c 0
 601 0 503 87 503 215 c 1
 615 215 675 273 672 324 c 0
 669 416 526 461 420 369 c 0
 351 309 311 233 299 154 c 0
 215 -409 1219 -493 1215 152 c 0
 1213 523 1215 721 1018 721 c 1
 1018 1052 1564 1109 1562 704 c 2
 1561 347 l 1
 1865 347 l 1
 1866 704 1865 721 1758 721 c 1
 1758 1052 2215 1109 2215 704 c 2
 2215 347 l 1
 2523 347 l 1
 2523 772 2531 792 2416 792 c 1
 2416 1123 2873 1180 2873 775 c 2
 2873 347 l 1
EndSplineSet
EndChar

StartChar: uniFEB4
Encoding: 49 65204 49
Width: 2170
GlyphClass: 2
Flags: W
AnchorPoint: "Anchor-1" 1115 1170 basechar 0
AnchorPoint: "Anchor-0" 1118 -206 basechar 0
LayerCount: 2
Fore
SplineSet
1970 347 m 1
 2270 347 l 1
 2270 0 l 1
 0 0 l 1
 0 347 l 1
 307 347 l 1
 308 633 309 651 200 651 c 1
 200 982 657 1039 657 634 c 2
 657 347 l 1
 962 347 l 1
 963 704 962 721 855 721 c 1
 855 1052 1312 1109 1312 704 c 2
 1312 347 l 1
 1620 347 l 1
 1620 772 1628 792 1513 792 c 1
 1513 1123 1970 1180 1970 775 c 2
 1970 347 l 1
EndSplineSet
EndChar

StartChar: uniFEB3
Encoding: 50 65203 50
Width: 2070
GlyphClass: 2
Flags: W
AnchorPoint: "Anchor-1" 1115 1170 basechar 0
AnchorPoint: "Anchor-0" 1118 -206 basechar 0
LayerCount: 2
Fore
SplineSet
1513 792 m 1
 1513 1123 1970 1180 1970 775 c 2
 1970 0 l 1
 0 0 l 1
 0 347 l 1
 307 347 l 1
 308 633 309 651 200 651 c 1
 200 982 657 1039 657 634 c 2
 657 347 l 1
 962 347 l 1
 963 704 962 721 855 721 c 1
 855 1052 1312 1109 1312 704 c 2
 1312 347 l 1
 1620 347 l 1
 1620 772 1628 792 1513 792 c 1
EndSplineSet
EndChar

StartChar: uni0634
Encoding: 51 1588 51
Width: 2963
GlyphClass: 2
Flags: W
AnchorPoint: "Anchor-1" 2055 2070 basechar 0
AnchorPoint: "Anchor-0" 788 -756 basechar 0
LayerCount: 2
Fore
SplineSet
2175 1781 m 1
 1995 1600 l 1
 1814 1781 l 1
 1995 1961 l 1
 2175 1781 l 1
1996 1430 m 1
 1777 1211 l 1
 1557 1431 l 1
 1777 1650 l 1
 1996 1431 l 1
 2215 1650 l 1
 2434 1431 l 1
 2215 1211 l 1
 1996 1430 l 1
2873 775 m 2
 2873 0 l 1
 1549 0 l 1
 1410 -974 -37 -781 111 158 c 0
 134 309 210 445 334 531 c 0
 597 712 999 607 1005 296 c 0
 1008 147 910 0 739 0 c 0
 601 0 503 87 503 215 c 1
 615 215 675 273 672 324 c 0
 669 416 526 461 420 369 c 0
 351 309 311 233 299 154 c 0
 215 -409 1219 -493 1215 152 c 0
 1213 523 1215 721 1018 721 c 1
 1018 1052 1564 1109 1562 704 c 2
 1561 347 l 1
 1865 347 l 1
 1866 704 1865 721 1758 721 c 1
 1758 1052 2215 1109 2215 704 c 2
 2215 347 l 1
 2523 347 l 1
 2523 772 2531 792 2416 792 c 1
 2416 1123 2873 1180 2873 775 c 2
EndSplineSet
Substitution2: "'fina' Terminal Forms in Arabic lookup 5 subtable" uniFEB6
Substitution2: "'medi' Medial Forms in Arabic lookup 4 subtable" uniFEB8
Substitution2: "'init' Initial Forms in Arabic lookup 3 subtable" uniFEB7
AlternateSubs2: "'aalt' Access All Alternates in Arabic lookup 1 subtable" uniFEB7 uniFEB8 uniFEB6
EndChar

StartChar: uniFEB6
Encoding: 52 65206 52
Width: 3061
GlyphClass: 2
Flags: W
AnchorPoint: "Anchor-1" 2055 2070 basechar 0
AnchorPoint: "Anchor-0" 788 -756 basechar 0
LayerCount: 2
Fore
SplineSet
2175 1781 m 1
 1995 1600 l 1
 1814 1781 l 1
 1995 1961 l 1
 2175 1781 l 1
1996 1430 m 1
 1777 1211 l 1
 1557 1431 l 1
 1777 1650 l 1
 1996 1431 l 1
 2215 1650 l 1
 2434 1431 l 1
 2215 1211 l 1
 1996 1430 l 1
2873 347 m 1
 3161 347 l 1
 3161 0 l 1
 1549 0 l 1
 1410 -974 -37 -781 111 158 c 0
 134 309 210 445 334 531 c 0
 597 712 999 607 1005 296 c 0
 1008 147 910 0 739 0 c 0
 601 0 503 87 503 215 c 1
 615 215 675 273 672 324 c 0
 669 416 526 461 420 369 c 0
 351 309 311 233 299 154 c 0
 215 -409 1219 -493 1215 152 c 0
 1213 523 1215 721 1018 721 c 1
 1018 1052 1564 1109 1562 704 c 2
 1561 347 l 1
 1865 347 l 1
 1866 704 1865 721 1758 721 c 1
 1758 1052 2215 1109 2215 704 c 2
 2215 347 l 1
 2523 347 l 1
 2523 772 2531 792 2416 792 c 1
 2416 1123 2873 1180 2873 775 c 2
 2873 347 l 1
EndSplineSet
EndChar

StartChar: uniFEB8
Encoding: 53 65208 53
Width: 2170
GlyphClass: 2
Flags: W
AnchorPoint: "Anchor-1" 1087 2061 basechar 0
AnchorPoint: "Anchor-0" 1118 -206 basechar 0
LayerCount: 2
Fore
SplineSet
1267 1781 m 1
 1087 1600 l 1
 906 1781 l 1
 1087 1961 l 1
 1267 1781 l 1
1088 1430 m 1
 869 1211 l 1
 649 1431 l 1
 869 1650 l 1
 1088 1431 l 1
 1307 1650 l 1
 1526 1431 l 1
 1307 1211 l 1
 1088 1430 l 1
1970 347 m 1
 2270 347 l 1
 2270 0 l 1
 0 0 l 1
 0 347 l 1
 307 347 l 1
 308 633 309 651 200 651 c 1
 200 982 657 1039 657 634 c 2
 657 347 l 1
 962 347 l 1
 963 704 962 721 855 721 c 1
 855 1052 1312 1109 1312 704 c 2
 1312 347 l 1
 1620 347 l 1
 1620 772 1628 792 1513 792 c 1
 1513 1123 1970 1180 1970 775 c 2
 1970 347 l 1
EndSplineSet
EndChar

StartChar: uniFEB7
Encoding: 54 65207 54
Width: 2070
GlyphClass: 2
Flags: W
AnchorPoint: "Anchor-1" 1087 2061 basechar 0
AnchorPoint: "Anchor-0" 1118 -206 basechar 0
LayerCount: 2
Fore
SplineSet
1267 1781 m 1
 1087 1600 l 1
 906 1781 l 1
 1087 1961 l 1
 1267 1781 l 1
1088 1430 m 1
 869 1211 l 1
 649 1431 l 1
 869 1650 l 1
 1088 1431 l 1
 1307 1650 l 1
 1526 1431 l 1
 1307 1211 l 1
 1088 1430 l 1
1513 792 m 1
 1513 1123 1970 1180 1970 775 c 2
 1970 0 l 1
 0 0 l 1
 0 347 l 1
 307 347 l 1
 308 633 309 651 200 651 c 1
 200 982 657 1039 657 634 c 2
 657 347 l 1
 962 347 l 1
 963 704 962 721 855 721 c 1
 855 1052 1312 1109 1312 704 c 2
 1312 347 l 1
 1620 347 l 1
 1620 772 1628 792 1513 792 c 1
EndSplineSet
EndChar

StartChar: uni0635
Encoding: 55 1589 55
Width: 2799
GlyphClass: 2
Flags: W
AnchorPoint: "Anchor-1" 2055 1170 basechar 0
AnchorPoint: "Anchor-0" 788 -756 basechar 0
LayerCount: 2
Fore
SplineSet
2085 1060 m 0
 2542 1060 2776 772 2676 0 c 1
 1549 0 l 1
 1410 -974 -39 -781 111 158 c 0
 135 309 210 445 334 531 c 0
 596 713 999 607 1005 296 c 0
 1008 147 910 0 739 0 c 0
 601 0 503 87 503 215 c 1
 615 215 675 273 672 324 c 0
 666 416 526 461 420 369 c 0
 351 309 311 233 299 154 c 0
 213 -409 1218 -493 1215 152 c 0
 1213 523 1215 721 1018 721 c 1
 1018 1029 1489 1100 1555 782 c 1
 1680 960 1889 1060 2085 1060 c 0
1561 347 m 1
 2327 347 l 1
 2327 714 1909 856 1562 577 c 1
 1561 347 l 1
EndSplineSet
Substitution2: "'fina' Terminal Forms in Arabic lookup 5 subtable" uniFEBA
Substitution2: "'medi' Medial Forms in Arabic lookup 4 subtable" uniFEBC
Substitution2: "'init' Initial Forms in Arabic lookup 3 subtable" uniFEBB
AlternateSubs2: "'aalt' Access All Alternates in Arabic lookup 1 subtable" uniFEBB uniFEBC uniFEBA
EndChar

StartChar: uniFEBA
Encoding: 56 65210 56
Width: 2899
GlyphClass: 2
Flags: W
AnchorPoint: "Anchor-1" 2055 1170 basechar 0
AnchorPoint: "Anchor-0" 788 -756 basechar 0
LayerCount: 2
Fore
SplineSet
2699 347 m 1
 2999 347 l 1
 2999 0 l 1
 1549 0 l 1
 1410 -974 -39 -781 111 158 c 0
 135 309 210 445 334 531 c 0
 596 713 999 607 1005 296 c 0
 1008 147 910 0 739 0 c 0
 601 0 503 87 503 215 c 1
 615 215 675 273 672 324 c 0
 666 416 526 461 420 369 c 0
 351 309 311 233 299 154 c 0
 213 -409 1218 -493 1215 152 c 0
 1213 523 1215 721 1018 721 c 1
 1018 1029 1489 1100 1555 782 c 1
 1680 960 1889 1060 2085 1060 c 0
 2466 1060 2692 860 2699 347 c 1
1561 347 m 1
 2327 347 l 1
 2327 714 1909 856 1562 577 c 1
 1561 347 l 1
EndSplineSet
EndChar

StartChar: uniFEBC
Encoding: 57 65212 57
Width: 1979
GlyphClass: 2
Flags: W
AnchorPoint: "Anchor-1" 1087 1171 basechar 0
AnchorPoint: "Anchor-0" 1118 -206 basechar 0
LayerCount: 2
Fore
SplineSet
1783 347 m 1
 2079 347 l 1
 2079 0 l 1
 0 0 l 1
 0 347 l 1
 294 347 l 1
 290 563 267 721 100 721 c 1
 100 1030 573 1100 637 780 c 1
 762 959 972 1060 1169 1060 c 0
 1550 1060 1776 860 1783 347 c 1
644 347 m 1
 1411 347 l 1
 1411 715 992 856 644 576 c 1
 644 347 l 1
EndSplineSet
EndChar

StartChar: uniFEBB
Encoding: 58 65211 58
Width: 1883
GlyphClass: 2
Flags: W
AnchorPoint: "Anchor-1" 1087 1171 basechar 0
AnchorPoint: "Anchor-0" 1118 -206 basechar 0
LayerCount: 2
Fore
SplineSet
1169 1060 m 0
 1626 1060 1860 772 1760 0 c 1
 0 0 l 1
 0 347 l 1
 294 347 l 1
 290 563 267 721 100 721 c 1
 100 1030 573 1100 637 780 c 1
 762 959 972 1060 1169 1060 c 0
644 347 m 1
 1411 347 l 1
 1411 715 992 856 644 576 c 1
 644 347 l 1
EndSplineSet
EndChar

StartChar: uni0636
Encoding: 59 1590 59
Width: 2799
GlyphClass: 2
Flags: W
AnchorPoint: "Anchor-1" 2055 1733 basechar 0
AnchorPoint: "Anchor-0" 788 -756 basechar 0
LayerCount: 2
Fore
SplineSet
1981 1427 m 1
 1762 1207 l 1
 1542 1427 l 1
 1762 1646 l 1
 1981 1427 l 1
2085 1060 m 0
 2542 1060 2776 772 2676 0 c 1
 1549 0 l 1
 1410 -974 -39 -781 111 158 c 0
 135 309 210 445 334 531 c 0
 596 713 999 607 1005 296 c 0
 1008 147 910 0 739 0 c 0
 601 0 503 87 503 215 c 1
 615 215 675 273 672 324 c 0
 666 416 526 461 420 369 c 0
 351 309 311 233 299 154 c 0
 213 -409 1218 -493 1215 152 c 0
 1213 523 1215 721 1018 721 c 1
 1018 1029 1489 1100 1555 782 c 1
 1680 960 1889 1060 2085 1060 c 0
1561 347 m 1
 2327 347 l 1
 2327 714 1909 856 1562 577 c 1
 1561 347 l 1
EndSplineSet
Substitution2: "'fina' Terminal Forms in Arabic lookup 5 subtable" uniFEBE
Substitution2: "'medi' Medial Forms in Arabic lookup 4 subtable" uniFEC0
Substitution2: "'init' Initial Forms in Arabic lookup 3 subtable" uniFEBF
AlternateSubs2: "'aalt' Access All Alternates in Arabic lookup 1 subtable" uniFEBF uniFEC0 uniFEBE
EndChar

StartChar: uniFEBE
Encoding: 60 65214 60
Width: 2899
GlyphClass: 2
Flags: W
AnchorPoint: "Anchor-1" 2055 1733 basechar 0
AnchorPoint: "Anchor-0" 788 -756 basechar 0
LayerCount: 2
Fore
SplineSet
1981 1427 m 1
 1762 1207 l 1
 1542 1427 l 1
 1762 1646 l 1
 1981 1427 l 1
2699 347 m 1
 2999 347 l 1
 2999 0 l 1
 1549 0 l 1
 1410 -974 -39 -781 111 158 c 0
 135 309 210 445 334 531 c 0
 596 713 999 607 1005 296 c 0
 1008 147 910 0 739 0 c 0
 601 0 503 87 503 215 c 1
 615 215 675 273 672 324 c 0
 666 416 526 461 420 369 c 0
 351 309 311 233 299 154 c 0
 213 -409 1218 -493 1215 152 c 0
 1213 523 1215 721 1018 721 c 1
 1018 1029 1489 1100 1555 782 c 1
 1680 960 1889 1060 2085 1060 c 0
 2466 1060 2692 860 2699 347 c 1
1561 347 m 1
 2327 347 l 1
 2327 714 1909 856 1562 577 c 1
 1561 347 l 1
EndSplineSet
EndChar

StartChar: uniFEC0
Encoding: 61 65216 61
Width: 1979
GlyphClass: 2
Flags: W
AnchorPoint: "Anchor-1" 1087 1746 basechar 0
AnchorPoint: "Anchor-0" 1118 -206 basechar 0
LayerCount: 2
Fore
SplineSet
1181 1427 m 1
 962 1207 l 1
 742 1427 l 1
 962 1646 l 1
 1181 1427 l 1
1783 347 m 1
 2079 347 l 1
 2079 0 l 1
 0 0 l 1
 0 347 l 1
 294 347 l 1
 290 563 267 721 100 721 c 1
 100 1030 573 1100 637 780 c 1
 762 959 972 1060 1169 1060 c 0
 1550 1060 1776 860 1783 347 c 1
644 347 m 1
 1411 347 l 1
 1411 715 992 856 644 576 c 1
 644 347 l 1
EndSplineSet
EndChar

StartChar: uniFEBF
Encoding: 62 65215 62
Width: 1883
GlyphClass: 2
Flags: W
AnchorPoint: "Anchor-1" 1087 1746 basechar 0
AnchorPoint: "Anchor-0" 1118 -206 basechar 0
LayerCount: 2
Fore
SplineSet
1181 1427 m 1
 962 1207 l 1
 742 1427 l 1
 962 1646 l 1
 1181 1427 l 1
1169 1060 m 0
 1626 1060 1860 772 1760 0 c 1
 0 0 l 1
 0 347 l 1
 294 347 l 1
 290 563 267 721 100 721 c 1
 100 1030 573 1100 637 780 c 1
 762 959 972 1060 1169 1060 c 0
644 347 m 1
 1411 347 l 1
 1411 715 992 856 644 576 c 1
 644 347 l 1
EndSplineSet
EndChar

StartChar: uni0637
Encoding: 63 1591 63
Width: 1983
GlyphClass: 2
Flags: W
AnchorPoint: "Anchor-1" 1087 1746 basechar 0
AnchorPoint: "Anchor-0" 1118 -206 basechar 0
LayerCount: 2
Fore
SplineSet
442 0 m 2
 186 0 85 189 101 391 c 1
 163 368 220 351 394 348 c 1
 394 1034 l 2
 394 1292 388 1491 200 1491 c 1
 200 1822 744 1879 744 1474 c 2
 744 790 l 1
 870 963 1075 1060 1269 1060 c 0
 1726 1060 1960 772 1860 0 c 1
 442 0 l 2
744 347 m 1
 1511 347 l 1
 1511 715 1092 856 744 576 c 1
 744 347 l 1
EndSplineSet
Substitution2: "'fina' Terminal Forms in Arabic lookup 5 subtable" uniFEC2
Substitution2: "'medi' Medial Forms in Arabic lookup 4 subtable" uniFEC4
Substitution2: "'init' Initial Forms in Arabic lookup 3 subtable" uniFEC3
AlternateSubs2: "'aalt' Access All Alternates in Arabic lookup 1 subtable" uniFEC3 uniFEC4 uniFEC2
EndChar

StartChar: uniFEC2
Encoding: 64 65218 64
Width: 2079
GlyphClass: 2
Flags: W
AnchorPoint: "Anchor-1" 1087 1746 basechar 0
AnchorPoint: "Anchor-0" 1118 -206 basechar 0
LayerCount: 2
Fore
SplineSet
1883 347 m 1
 2179 347 l 1
 2179 0 l 1
 442 0 l 2
 186 0 85 189 101 391 c 1
 163 368 220 351 394 348 c 1
 394 1034 l 2
 394 1292 388 1491 200 1491 c 1
 200 1822 744 1879 744 1474 c 2
 744 790 l 1
 870 963 1075 1060 1269 1060 c 0
 1650 1060 1876 860 1883 347 c 1
744 347 m 1
 1511 347 l 1
 1511 715 1092 856 744 576 c 1
 744 347 l 1
EndSplineSet
EndChar

StartChar: uniFEC4
Encoding: 65 65220 65
Width: 1979
GlyphClass: 2
Flags: W
AnchorPoint: "Anchor-1" 1087 1746 basechar 0
AnchorPoint: "Anchor-0" 1118 -206 basechar 0
LayerCount: 2
Fore
SplineSet
1782 347 m 1
 2079 347 l 1
 2079 0 l 1
 0 0 l 1
 0 347 l 1
 293 348 l 1
 293 1034 l 2
 293 1292 287 1491 99 1491 c 1
 99 1822 643 1879 643 1474 c 2
 643 790 l 1
 769 963 974 1060 1168 1060 c 0
 1549 1060 1775 860 1782 347 c 1
643 347 m 1
 1410 347 l 1
 1410 715 991 856 643 576 c 1
 643 347 l 1
EndSplineSet
EndChar

StartChar: uniFEC3
Encoding: 66 65219 66
Width: 1882
GlyphClass: 2
Flags: W
AnchorPoint: "Anchor-1" 1087 1746 basechar 0
AnchorPoint: "Anchor-0" 1118 -206 basechar 0
LayerCount: 2
Fore
SplineSet
0 0 m 1
 0 347 l 1
 293 348 l 1
 293 1034 l 2
 293 1292 287 1491 99 1491 c 1
 99 1822 643 1879 643 1474 c 2
 643 790 l 1
 769 963 974 1060 1168 1060 c 0
 1625 1060 1859 772 1759 0 c 1
 0 0 l 1
643 347 m 1
 1410 347 l 1
 1410 715 991 856 643 576 c 1
 643 347 l 1
EndSplineSet
EndChar

StartChar: uni0638
Encoding: 67 1592 67
Width: 1983
GlyphClass: 2
Flags: W
AnchorPoint: "Anchor-1" 1087 1746 basechar 0
AnchorPoint: "Anchor-0" 1118 -206 basechar 0
LayerCount: 2
Fore
SplineSet
442 0 m 2
 186 0 85 189 101 391 c 1
 163 368 220 351 394 348 c 1
 394 1034 l 2
 394 1292 388 1491 200 1491 c 1
 200 1822 744 1879 744 1474 c 2
 744 790 l 1
 870 963 1075 1060 1269 1060 c 0
 1726 1060 1960 772 1860 0 c 1
 442 0 l 2
1162 1207 m 1
 942 1427 l 1
 1162 1646 l 1
 1381 1427 l 1
 1162 1207 l 1
744 347 m 1
 1511 347 l 1
 1511 715 1092 856 744 576 c 1
 744 347 l 1
EndSplineSet
Substitution2: "'fina' Terminal Forms in Arabic lookup 5 subtable" uniFEC6
Substitution2: "'medi' Medial Forms in Arabic lookup 4 subtable" uniFEC8
Substitution2: "'init' Initial Forms in Arabic lookup 3 subtable" uniFEC7
AlternateSubs2: "'aalt' Access All Alternates in Arabic lookup 1 subtable" uniFEC7 uniFEC8 uniFEC6
EndChar

StartChar: uniFEC6
Encoding: 68 65222 68
Width: 2079
GlyphClass: 2
Flags: W
AnchorPoint: "Anchor-1" 1087 1746 basechar 0
AnchorPoint: "Anchor-0" 1118 -206 basechar 0
LayerCount: 2
Fore
SplineSet
1883 347 m 1
 2179 347 l 1
 2179 0 l 1
 442 0 l 2
 186 0 85 189 101 391 c 1
 163 368 220 351 394 348 c 1
 394 1034 l 2
 394 1292 388 1491 200 1491 c 1
 200 1822 744 1879 744 1474 c 2
 744 790 l 1
 870 963 1075 1060 1269 1060 c 0
 1650 1060 1876 860 1883 347 c 1
1381 1427 m 1
 1162 1207 l 1
 942 1427 l 1
 1162 1646 l 1
 1381 1427 l 1
744 347 m 1
 1511 347 l 1
 1511 715 1092 856 744 576 c 1
 744 347 l 1
EndSplineSet
EndChar

StartChar: uniFEC8
Encoding: 69 65224 69
Width: 1979
GlyphClass: 2
Flags: W
AnchorPoint: "Anchor-1" 1087 1746 basechar 0
AnchorPoint: "Anchor-0" 1118 -206 basechar 0
LayerCount: 2
Fore
SplineSet
1782 347 m 1
 2079 347 l 1
 2079 0 l 1
 0 0 l 1
 0 347 l 1
 293 348 l 1
 293 1034 l 2
 293 1292 287 1491 99 1491 c 1
 99 1822 643 1879 643 1474 c 2
 643 790 l 1
 769 963 974 1060 1168 1060 c 0
 1549 1060 1775 860 1782 347 c 1
1281 1427 m 1
 1062 1207 l 1
 842 1427 l 1
 1062 1646 l 1
 1281 1427 l 1
643 347 m 1
 1410 347 l 1
 1410 715 991 856 643 576 c 1
 643 347 l 1
EndSplineSet
EndChar

StartChar: uniFEC7
Encoding: 70 65223 70
Width: 1882
GlyphClass: 2
Flags: W
AnchorPoint: "Anchor-1" 1087 1746 basechar 0
AnchorPoint: "Anchor-0" 1118 -206 basechar 0
LayerCount: 2
Fore
SplineSet
0 0 m 1
 0 347 l 1
 293 348 l 1
 293 1034 l 2
 293 1292 287 1491 99 1491 c 1
 99 1822 643 1879 643 1474 c 2
 643 790 l 1
 769 963 974 1060 1168 1060 c 0
 1625 1060 1859 772 1759 0 c 1
 0 0 l 1
1062 1207 m 1
 842 1427 l 1
 1062 1646 l 1
 1281 1427 l 1
 1062 1207 l 1
643 347 m 1
 1410 347 l 1
 1410 715 991 856 643 576 c 1
 643 347 l 1
EndSplineSet
EndChar

StartChar: uni0639
Encoding: 71 1593 71
Width: 1573
GlyphClass: 2
Flags: W
AnchorPoint: "Anchor-1" 765 1180 basechar 0
AnchorPoint: "Anchor-0" 768 -1007 basechar 0
LayerCount: 2
Fore
SplineSet
1242 -148 m 0
 1400 -165 1490 -303 1470 -478 c 0
 1434 -781 1158 -906 810 -906 c 0
 420 -906 100 -740 100 -344 c 0
 100 -59 224 134 455 242 c 1
 283 408 216 548 127 548 c 1
 271 891 624 1184 1041 997 c 0
 1173 937 1289 906 1386 906 c 1
 1269 548 1128 481 854 608 c 0
 689 681 528 699 431 611 c 1
 484 539 522 446 644 306 c 1
 760 333 892 347 1041 347 c 0
 1233 347 1296 357 1386 391 c 1
 1402 189 1301 0 1045 0 c 2
 1040 0 l 2
 668 0 463 -85 463 -387 c 0
 463 -530 519 -740 797 -740 c 0
 991 -740 1105 -671 1105 -517 c 0
 1105 -426 1042 -360 971 -389 c 1
 960 -220 1079 -130 1242 -148 c 0
EndSplineSet
Substitution2: "'fina' Terminal Forms in Arabic lookup 5 subtable" uniFECA
Substitution2: "'medi' Medial Forms in Arabic lookup 4 subtable" uniFECC
Substitution2: "'init' Initial Forms in Arabic lookup 3 subtable" uniFECB
AlternateSubs2: "'aalt' Access All Alternates in Arabic lookup 1 subtable" uniFECB uniFECC uniFECA
EndChar

StartChar: uniFECA
Encoding: 72 65226 72
Width: 1495
GlyphClass: 2
Flags: W
AnchorPoint: "Anchor-1" 765 1180 basechar 0
AnchorPoint: "Anchor-0" 768 -1007 basechar 0
LayerCount: 2
Fore
SplineSet
1243 0 m 2
 777 0 463 -16 463 -387 c 0
 463 -530 519 -740 797 -740 c 0
 991 -740 1105 -671 1105 -517 c 0
 1105 -426 1042 -360 971 -389 c 1
 960 -220 1079 -130 1242 -148 c 0
 1400 -165 1490 -303 1470 -478 c 0
 1434 -781 1158 -906 810 -906 c 0
 420 -906 100 -740 100 -344 c 0
 100 -59 224 134 455 242 c 1
 283 408 216 548 127 548 c 1
 271 891 624 1184 1041 997 c 0
 1173 937 1289 906 1386 906 c 1
 1269 548 1128 481 854 608 c 0
 689 681 528 699 431 611 c 1
 484 539 522 446 644 306 c 1
 760 334 894 347 1043 347 c 2
 1595 347 l 1
 1595 0 l 1
 1243 0 l 2
EndSplineSet
EndChar

StartChar: uniFECC
Encoding: 73 65228 73
Width: 1445
GlyphClass: 2
Flags: W
AnchorPoint: "Anchor-1" 765 1180 basechar 0
AnchorPoint: "Anchor-0" 768 -226 basechar 0
LayerCount: 2
Fore
SplineSet
590 347 m 1
 1545 347 l 1
 1545 0 l 1
 0 0 l 1
 0 347 l 1
 335 347 l 1
 232 463 177 548 107 548 c 1
 251 891 604 1184 1021 997 c 0
 1153 937 1269 906 1366 906 c 1
 1249 548 1108 481 834 608 c 0
 669 681 508 699 411 611 c 1
 459 546 494 464 590 347 c 1
EndSplineSet
EndChar

StartChar: uniFECB
Encoding: 74 65227 74
Width: 1466
GlyphClass: 2
Flags: W
AnchorPoint: "Anchor-1" 765 1180 basechar 0
AnchorPoint: "Anchor-0" 768 -226 basechar 0
LayerCount: 2
Fore
SplineSet
1018 347 m 2
 1210 347 1273 357 1363 391 c 1
 1379 189 1278 0 1022 0 c 2
 0 0 l 1
 0 347 l 1
 335 347 l 1
 232 463 177 548 107 548 c 1
 251 891 604 1184 1021 997 c 0
 1153 937 1269 906 1366 906 c 1
 1249 548 1108 481 834 608 c 0
 669 681 508 699 411 611 c 1
 459 546 494 464 590 347 c 1
 1018 347 l 2
EndSplineSet
EndChar

StartChar: uni063A
Encoding: 75 1594 75
Width: 1573
GlyphClass: 2
Flags: W
AnchorPoint: "Anchor-1" 787 1742 basechar 0
AnchorPoint: "Anchor-0" 768 -1007 basechar 0
LayerCount: 2
Fore
SplineSet
1006 1423 m 1
 787 1203 l 1
 567 1423 l 1
 787 1642 l 1
 1006 1423 l 1
1242 -148 m 0
 1400 -165 1490 -303 1470 -478 c 0
 1434 -781 1158 -906 810 -906 c 0
 420 -906 100 -740 100 -344 c 0
 100 -59 224 134 455 242 c 1
 283 408 216 548 127 548 c 1
 271 891 624 1184 1041 997 c 0
 1173 937 1289 906 1386 906 c 1
 1269 548 1128 481 854 608 c 0
 689 681 528 699 431 611 c 1
 484 539 522 446 644 306 c 1
 760 333 892 347 1041 347 c 0
 1233 347 1296 357 1386 391 c 1
 1402 189 1301 0 1045 0 c 2
 1040 0 l 2
 668 0 463 -85 463 -387 c 0
 463 -530 519 -740 797 -740 c 0
 991 -740 1105 -671 1105 -517 c 0
 1105 -426 1042 -360 971 -389 c 1
 960 -220 1079 -130 1242 -148 c 0
EndSplineSet
Substitution2: "'fina' Terminal Forms in Arabic lookup 5 subtable" uniFECE
Substitution2: "'medi' Medial Forms in Arabic lookup 4 subtable" uniFED0
Substitution2: "'init' Initial Forms in Arabic lookup 3 subtable" uniFECF
AlternateSubs2: "'aalt' Access All Alternates in Arabic lookup 1 subtable" uniFECF uniFED0 uniFECE
EndChar

StartChar: uniFECE
Encoding: 76 65230 76
Width: 1495
GlyphClass: 2
Flags: W
AnchorPoint: "Anchor-1" 787 1742 basechar 0
AnchorPoint: "Anchor-0" 768 -1007 basechar 0
LayerCount: 2
Fore
SplineSet
1006 1423 m 1
 787 1203 l 1
 567 1423 l 1
 787 1642 l 1
 1006 1423 l 1
1243 0 m 2
 777 0 463 -16 463 -387 c 0
 463 -530 519 -740 797 -740 c 0
 991 -740 1105 -671 1105 -517 c 0
 1105 -426 1042 -360 971 -389 c 1
 960 -220 1079 -130 1242 -148 c 0
 1400 -165 1490 -303 1470 -478 c 0
 1434 -781 1158 -906 810 -906 c 0
 420 -906 100 -740 100 -344 c 0
 100 -59 224 134 455 242 c 1
 283 408 216 548 127 548 c 1
 271 891 624 1184 1041 997 c 0
 1173 937 1289 906 1386 906 c 1
 1269 548 1128 481 854 608 c 0
 689 681 528 699 431 611 c 1
 484 539 522 446 644 306 c 1
 760 334 894 347 1043 347 c 2
 1595 347 l 1
 1595 0 l 1
 1243 0 l 2
EndSplineSet
EndChar

StartChar: uniFED0
Encoding: 77 65232 77
Width: 1445
GlyphClass: 2
Flags: W
AnchorPoint: "Anchor-1" 765 1720 basechar 0
AnchorPoint: "Anchor-0" 768 -226 basechar 0
LayerCount: 2
Fore
SplineSet
1006 1423 m 1
 787 1203 l 1
 567 1423 l 1
 787 1642 l 1
 1006 1423 l 1
590 347 m 1
 1545 347 l 1
 1545 0 l 1
 0 0 l 1
 0 347 l 1
 335 347 l 1
 232 463 177 548 107 548 c 1
 251 891 604 1184 1021 997 c 0
 1153 937 1269 906 1366 906 c 1
 1249 548 1108 481 834 608 c 0
 669 681 508 699 411 611 c 1
 459 546 494 464 590 347 c 1
EndSplineSet
EndChar

StartChar: uniFECF
Encoding: 78 65231 78
Width: 1466
GlyphClass: 2
Flags: W
AnchorPoint: "Anchor-1" 765 1720 basechar 0
AnchorPoint: "Anchor-0" 768 -226 basechar 0
LayerCount: 2
Fore
SplineSet
1006 1423 m 1
 787 1203 l 1
 567 1423 l 1
 787 1642 l 1
 1006 1423 l 1
1018 347 m 2
 1210 347 1273 357 1363 391 c 1
 1379 189 1278 0 1022 0 c 2
 0 0 l 1
 0 347 l 1
 335 347 l 1
 232 463 177 548 107 548 c 1
 251 891 604 1184 1021 997 c 0
 1153 937 1269 906 1366 906 c 1
 1249 548 1108 481 834 608 c 0
 669 681 508 699 411 611 c 1
 459 546 494 464 590 347 c 1
 1018 347 l 2
EndSplineSet
EndChar

StartChar: uni0641
Encoding: 79 1601 79
Width: 2440
GlyphClass: 2
Flags: W
AnchorPoint: "Anchor-1" 1255 1720 basechar 0
AnchorPoint: "Anchor-0" 1258 -226 basechar 0
LayerCount: 2
Fore
SplineSet
2056 1423 m 5
 1837 1203 l 5
 1617 1423 l 5
 1837 1642 l 5
 2056 1423 l 5
1247 347 m 1
 1247 892 1738 1201 2340 997 c 1
 2340 -2 l 1
 722 0 l 2
 502 0 349 45 250 133 c 0
 92 271 82 534 114 685 c 0
 161 898 323 1060 570 1060 c 0
 1047 1060 1006 454 658 454 c 0
 520 454 422 541 422 669 c 1
 625 669 655 858 463 858 c 0
 407 858 344 826 303 766 c 0
 233 661 238 477 372 404 c 0
 450 361 568 348 718 347 c 2
 1247 347 l 1
1995 347 m 1
 1995 656 l 1
 1703 717 1405 577 1405 347 c 1
 1995 347 l 1
EndSplineSet
Substitution2: "'fina' Terminal Forms in Arabic lookup 5 subtable" uniFED2
Substitution2: "'medi' Medial Forms in Arabic lookup 4 subtable" uniFED4
Substitution2: "'init' Initial Forms in Arabic lookup 3 subtable" uniFED3
AlternateSubs2: "'aalt' Access All Alternates in Arabic lookup 1 subtable" uniFED3 uniFED4 uniFED2
EndChar

StartChar: uniFED2
Encoding: 80 65234 80
Width: 2539
GlyphClass: 2
Flags: W
AnchorPoint: "Anchor-1" 1255 1720 basechar 0
AnchorPoint: "Anchor-0" 1258 -226 basechar 0
LayerCount: 2
Fore
SplineSet
2056 1423 m 1
 1837 1203 l 1
 1617 1423 l 1
 1837 1642 l 1
 2056 1423 l 1
2639 347 m 1
 2639 0 l 1
 2340 0 l 1
 2340 -2 l 1
 722 0 l 2
 502 0 349 45 250 133 c 0
 92 271 82 534 114 685 c 0
 161 898 323 1060 570 1060 c 0
 1047 1060 1006 454 658 454 c 0
 520 454 422 541 422 669 c 1
 625 669 655 858 463 858 c 0
 407 858 344 826 303 766 c 0
 233 661 238 477 372 404 c 0
 450 361 568 348 718 347 c 2
 1247 347 l 1
 1247 892 1738 1201 2340 997 c 1
 2340 347 l 1
 2639 347 l 1
1995 347 m 1
 1995 656 l 1
 1703 717 1405 577 1405 347 c 1
 1995 347 l 1
EndSplineSet
EndChar

StartChar: uniFED4
Encoding: 81 65236 81
Width: 1390
GlyphClass: 2
Flags: W
AnchorPoint: "Anchor-1" 655 1720 basechar 0
AnchorPoint: "Anchor-0" 658 -226 basechar 0
LayerCount: 2
Fore
SplineSet
906 1423 m 1
 687 1203 l 1
 467 1423 l 1
 687 1642 l 1
 906 1423 l 1
1490 347 m 1
 1490 0 l 1
 1188 0 l 1
 1188 -2 l 1
 0 0 l 1
 0 347 l 1
 95 347 l 1
 95 892 586 1201 1188 997 c 1
 1188 347 l 1
 1490 347 l 1
843 347 m 1
 843 657 l 1
 551 718 253 577 253 347 c 1
 843 347 l 1
EndSplineSet
EndChar

StartChar: uniFED3
Encoding: 82 65235 82
Width: 1288
GlyphClass: 2
Flags: W
AnchorPoint: "Anchor-1" 655 1720 basechar 0
AnchorPoint: "Anchor-0" 658 -226 basechar 0
LayerCount: 2
Fore
SplineSet
687 1203 m 1
 467 1423 l 1
 687 1642 l 1
 906 1423 l 1
 687 1203 l 1
1188 -2 m 1
 0 0 l 1
 0 347 l 1
 95 347 l 1
 95 892 586 1201 1188 997 c 1
 1188 -2 l 1
253 347 m 1
 843 347 l 1
 843 657 l 1
 551 718 253 577 253 347 c 1
EndSplineSet
EndChar

StartChar: uni06A4
Encoding: 83 1700 83
Width: 2440
GlyphClass: 2
Flags: W
AnchorPoint: "Anchor-1" 1255 1720 basechar 0
AnchorPoint: "Anchor-0" 1258 -226 basechar 0
LayerCount: 2
Fore
SplineSet
2026 1773 m 1
 1846 1592 l 1
 1665 1773 l 1
 1846 1953 l 1
 2026 1773 l 1
1846 1353 m 1
 1696 1203 l 1
 1476 1423 l 1
 1696 1642 l 1
 1846 1492 l 1
 1996 1642 l 1
 2215 1423 l 1
 1996 1203 l 1
 1846 1353 l 1
1247 347 m 1
 1247 892 1738 1201 2340 997 c 1
 2340 -2 l 1
 722 0 l 2
 502 0 349 45 250 133 c 0
 92 271 82 534 114 685 c 0
 161 898 323 1060 570 1060 c 0
 1047 1060 1006 454 658 454 c 0
 520 454 422 541 422 669 c 1
 625 669 655 858 463 858 c 0
 407 858 344 826 303 766 c 0
 233 661 238 477 372 404 c 0
 450 361 568 348 718 347 c 2
 1247 347 l 1
1995 347 m 1
 1995 656 l 1
 1703 717 1405 577 1405 347 c 1
 1995 347 l 1
EndSplineSet
Substitution2: "'fina' Terminal Forms in Arabic lookup 5 subtable" uniFB6B
Substitution2: "'medi' Medial Forms in Arabic lookup 4 subtable" uniFB6D
Substitution2: "'init' Initial Forms in Arabic lookup 3 subtable" uniFB6C
AlternateSubs2: "'aalt' Access All Alternates in Arabic lookup 1 subtable" uniFB6C uniFB6D uniFB6B
EndChar

StartChar: uniFB6B
Encoding: 84 64363 84
Width: 2539
GlyphClass: 2
Flags: W
AnchorPoint: "Anchor-1" 1255 1720 basechar 0
AnchorPoint: "Anchor-0" 1258 -226 basechar 0
LayerCount: 2
Fore
SplineSet
2026 1773 m 5
 1846 1592 l 5
 1665 1773 l 5
 1846 1953 l 5
 2026 1773 l 5
1846 1353 m 5
 1696 1203 l 5
 1476 1423 l 5
 1696 1642 l 5
 1846 1492 l 5
 1996 1642 l 5
 2215 1423 l 5
 1996 1203 l 5
 1846 1353 l 5
2639 347 m 1
 2639 0 l 1
 2340 0 l 1
 2340 -2 l 1
 722 0 l 2
 502 0 349 45 250 133 c 0
 92 271 82 534 114 685 c 0
 161 898 323 1060 570 1060 c 0
 1047 1060 1006 454 658 454 c 0
 520 454 422 541 422 669 c 1
 625 669 655 858 463 858 c 0
 407 858 344 826 303 766 c 0
 233 661 238 477 372 404 c 0
 450 361 568 348 718 347 c 2
 1247 347 l 1
 1247 892 1738 1201 2340 997 c 1
 2340 347 l 1
 2639 347 l 1
1995 347 m 1
 1995 656 l 1
 1703 717 1405 577 1405 347 c 1
 1995 347 l 1
EndSplineSet
EndChar

StartChar: uniFB6D
Encoding: 85 64365 85
Width: 1390
GlyphClass: 2
Flags: W
AnchorPoint: "Anchor-1" 685 2020 basechar 0
AnchorPoint: "Anchor-0" 688 -226 basechar 0
LayerCount: 2
Fore
SplineSet
876 1773 m 1
 696 1592 l 1
 515 1773 l 1
 696 1953 l 1
 876 1773 l 1
696 1353 m 1
 546 1203 l 1
 326 1423 l 1
 546 1642 l 1
 696 1492 l 1
 846 1642 l 1
 1065 1423 l 1
 846 1203 l 1
 696 1353 l 1
1490 347 m 1
 1490 0 l 1
 1188 0 l 1
 1188 -2 l 1
 0 0 l 1
 0 347 l 1
 95 347 l 1
 95 892 586 1201 1188 997 c 1
 1188 347 l 1
 1490 347 l 1
843 347 m 1
 843 657 l 1
 551 718 253 577 253 347 c 1
 843 347 l 1
EndSplineSet
EndChar

StartChar: uniFB6C
Encoding: 86 64364 86
Width: 1288
GlyphClass: 2
Flags: W
AnchorPoint: "Anchor-1" 685 2020 basechar 0
AnchorPoint: "Anchor-0" 688 -226 basechar 0
LayerCount: 2
Fore
SplineSet
876 1773 m 1
 696 1592 l 1
 515 1773 l 1
 696 1953 l 1
 876 1773 l 1
696 1353 m 1
 546 1203 l 1
 326 1423 l 1
 546 1642 l 1
 696 1492 l 1
 846 1642 l 1
 1065 1423 l 1
 846 1203 l 1
 696 1353 l 1
95 347 m 1
 95 892 586 1201 1188 997 c 1
 1188 -2 l 1
 0 0 l 1
 0 347 l 1
 95 347 l 1
843 347 m 1
 843 657 l 1
 551 718 253 577 253 347 c 1
 843 347 l 1
EndSplineSet
EndChar

StartChar: uni06A1
Encoding: 87 1697 87
Width: 2440
Flags: W
LayerCount: 2
Fore
SplineSet
1247 347 m 1
 1247 892 1738 1201 2340 997 c 1
 2340 -2 l 1
 722 0 l 2
 502 0 349 45 250 133 c 0
 92 271 82 534 114 685 c 0
 161 898 323 1060 570 1060 c 0
 1047 1060 1006 454 658 454 c 0
 520 454 422 541 422 669 c 1
 625 669 655 858 463 858 c 0
 407 858 344 826 303 766 c 0
 233 661 238 477 372 404 c 0
 450 361 568 348 718 347 c 2
 1247 347 l 1
1995 347 m 1
 1995 656 l 1
 1703 717 1405 577 1405 347 c 1
 1995 347 l 1
EndSplineSet
Substitution2: "'fina' Terminal Forms in Arabic lookup 5 subtable" uni06A1.fina
Substitution2: "'medi' Medial Forms in Arabic lookup 4 subtable" uni06A1.medi
Substitution2: "'init' Initial Forms in Arabic lookup 3 subtable" uni06A1.init
AlternateSubs2: "'aalt' Access All Alternates in Arabic lookup 1 subtable" uni06A1.init uni06A1.medi uni06A1.fina
EndChar

StartChar: uni06A1.fina
Encoding: 88 -1 88
Width: 2539
Flags: W
LayerCount: 2
Fore
SplineSet
2639 347 m 1
 2639 0 l 1
 2340 0 l 1
 2340 -2 l 1
 722 0 l 2
 502 0 349 45 250 133 c 0
 92 271 82 534 114 685 c 0
 161 898 323 1060 570 1060 c 0
 1047 1060 1006 454 658 454 c 0
 520 454 422 541 422 669 c 1
 625 669 655 858 463 858 c 0
 407 858 344 826 303 766 c 0
 233 661 238 477 372 404 c 0
 450 361 568 348 718 347 c 2
 1247 347 l 1
 1247 892 1738 1201 2340 997 c 1
 2340 347 l 1
 2639 347 l 1
1995 347 m 1
 1995 656 l 1
 1703 717 1405 577 1405 347 c 1
 1995 347 l 1
EndSplineSet
EndChar

StartChar: uni06A1.medi
Encoding: 89 -1 89
Width: 1390
Flags: W
LayerCount: 2
Fore
SplineSet
1490 347 m 1
 1490 0 l 1
 1188 0 l 1
 1188 -2 l 1
 0 0 l 1
 0 347 l 1
 95 347 l 1
 95 892 586 1201 1188 997 c 1
 1188 347 l 1
 1490 347 l 1
843 347 m 1
 843 657 l 1
 551 718 253 577 253 347 c 1
 843 347 l 1
EndSplineSet
EndChar

StartChar: uni06A1.init
Encoding: 90 -1 90
Width: 1288
Flags: W
LayerCount: 2
Fore
SplineSet
1188 -2 m 1
 0 0 l 1
 0 347 l 1
 95 347 l 1
 95 892 586 1201 1188 997 c 1
 1188 -2 l 1
253 347 m 1
 843 347 l 1
 843 657 l 1
 551 718 253 577 253 347 c 1
EndSplineSet
EndChar

StartChar: uni0642
Encoding: 91 1602 91
Width: 2440
GlyphClass: 2
Flags: W
AnchorPoint: "Anchor-1" 1255 1720 basechar 0
AnchorPoint: "Anchor-0" 1258 -226 basechar 0
LayerCount: 2
Fore
SplineSet
1849 1360 m 1
 1699 1210 l 1
 1479 1430 l 1
 1699 1649 l 1
 1849 1499 l 1
 1999 1649 l 1
 2218 1430 l 1
 1999 1210 l 1
 1849 1360 l 1
1247 347 m 1
 1247 892 1738 1201 2340 997 c 1
 2340 -2 l 1
 722 0 l 2
 502 0 349 45 250 133 c 0
 92 271 82 534 114 685 c 0
 161 898 323 1060 570 1060 c 0
 1047 1060 1006 454 658 454 c 0
 520 454 422 541 422 669 c 1
 625 669 655 858 463 858 c 0
 407 858 344 826 303 766 c 0
 233 661 238 477 372 404 c 0
 450 361 568 348 718 347 c 2
 1247 347 l 1
1995 347 m 1
 1995 656 l 1
 1703 717 1405 577 1405 347 c 1
 1995 347 l 1
EndSplineSet
Substitution2: "'fina' Terminal Forms in Arabic lookup 5 subtable" uniFED6
Substitution2: "'medi' Medial Forms in Arabic lookup 4 subtable" uniFED8
Substitution2: "'init' Initial Forms in Arabic lookup 3 subtable" uniFED7
AlternateSubs2: "'aalt' Access All Alternates in Arabic lookup 1 subtable" uniFED7 uniFED8 uniFED6
EndChar

StartChar: uniFED6
Encoding: 92 65238 92
Width: 2539
GlyphClass: 2
Flags: W
AnchorPoint: "Anchor-1" 1255 1720 basechar 0
AnchorPoint: "Anchor-0" 1258 -226 basechar 0
LayerCount: 2
Fore
SplineSet
1849 1360 m 1
 1699 1210 l 1
 1479 1430 l 1
 1699 1649 l 1
 1849 1499 l 1
 1999 1649 l 1
 2218 1430 l 1
 1999 1210 l 1
 1849 1360 l 1
2639 347 m 1
 2639 0 l 1
 2340 0 l 1
 2340 -2 l 1
 722 0 l 2
 502 0 349 45 250 133 c 0
 92 271 82 534 114 685 c 0
 161 898 323 1060 570 1060 c 0
 1047 1060 1006 454 658 454 c 0
 520 454 422 541 422 669 c 1
 625 669 655 858 463 858 c 0
 407 858 344 826 303 766 c 0
 233 661 238 477 372 404 c 0
 450 361 568 348 718 347 c 2
 1247 347 l 1
 1247 892 1738 1201 2340 997 c 1
 2340 347 l 1
 2639 347 l 1
1995 347 m 1
 1995 656 l 1
 1703 717 1405 577 1405 347 c 1
 1995 347 l 1
EndSplineSet
EndChar

StartChar: uniFED8
Encoding: 93 65240 93
Width: 1390
GlyphClass: 2
Flags: W
AnchorPoint: "Anchor-1" 695 1720 basechar 0
AnchorPoint: "Anchor-0" 698 -226 basechar 0
LayerCount: 2
Fore
SplineSet
695 1360 m 1
 545 1210 l 1
 325 1430 l 1
 545 1649 l 1
 695 1499 l 1
 845 1649 l 1
 1064 1430 l 1
 845 1210 l 1
 695 1360 l 1
1490 347 m 1
 1490 0 l 1
 1188 0 l 1
 1188 -2 l 1
 0 0 l 1
 0 347 l 1
 95 347 l 1
 95 892 586 1201 1188 997 c 1
 1188 347 l 1
 1490 347 l 1
843 347 m 1
 843 657 l 1
 551 718 253 577 253 347 c 1
 843 347 l 1
EndSplineSet
EndChar

StartChar: uniFED7
Encoding: 94 65239 94
Width: 1288
GlyphClass: 2
Flags: W
AnchorPoint: "Anchor-1" 695 1720 basechar 0
AnchorPoint: "Anchor-0" 698 -226 basechar 0
LayerCount: 2
Fore
SplineSet
695 1360 m 1
 545 1210 l 1
 325 1430 l 1
 545 1649 l 1
 695 1499 l 1
 845 1649 l 1
 1064 1430 l 1
 845 1210 l 1
 695 1360 l 1
95 347 m 1
 95 892 586 1201 1188 997 c 1
 1188 -2 l 1
 0 0 l 1
 0 347 l 1
 95 347 l 1
843 347 m 1
 843 657 l 1
 551 718 253 577 253 347 c 1
 843 347 l 1
EndSplineSet
EndChar

StartChar: uni0643
Encoding: 95 1603 95
Width: 2258
GlyphClass: 2
Flags: W
AnchorPoint: "Anchor-1" 945 1320 basechar 0
AnchorPoint: "Anchor-0" 948 -226 basechar 0
LayerCount: 2
Fore
SplineSet
1614 1500 m 1
 1614 1831 2160 1888 2158 1419 c 2
 2153 0 l 1
 722 0 l 2
 502 0 349 45 250 133 c 0
 92 271 82 534 114 685 c 0
 161 898 323 1060 570 1060 c 0
 1055 1060 1011 454 658 454 c 0
 520 454 422 541 422 669 c 1
 625 669 655 858 463 858 c 0
 407 858 344 826 303 766 c 0
 233 661 238 477 372 404 c 0
 450 361 568 348 718 347 c 2
 1808 347 l 1
 1808 1126 l 2
 1808 1276 1813 1500 1614 1500 c 1
1011 510 m 1
 1002 624 1046 731 1159 768 c 1
 1040 963 1156 1260 1417 1225 c 0
 1612 1199 1589 905 1429 908 c 1
 1398 1021 1224 995 1224 896 c 0
 1224 775 1386 781 1589 781 c 1
 1575 558 1499 540 1363 540 c 2
 1268 540 l 2
 1104 540 1059 528 1011 510 c 1
EndSplineSet
Substitution2: "'fina' Terminal Forms in Arabic lookup 5 subtable" uniFEDA
Substitution2: "'medi' Medial Forms in Arabic lookup 4 subtable" uniFEDC
Substitution2: "'init' Initial Forms in Arabic lookup 3 subtable" uniFEDB
AlternateSubs2: "'aalt' Access All Alternates in Arabic lookup 1 subtable" uniFEDB uniFEDC uniFEDA
EndChar

StartChar: uniFEDA
Encoding: 96 65242 96
Width: 2349
GlyphClass: 2
Flags: W
AnchorPoint: "Anchor-1" 945 1320 basechar 0
AnchorPoint: "Anchor-0" 948 -226 basechar 0
LayerCount: 2
Fore
SplineSet
2154 347 m 1
 2449 347 l 1
 2449 0 l 1
 722 0 l 2
 502 0 349 45 250 133 c 0
 92 271 82 534 114 685 c 0
 161 898 323 1060 570 1060 c 0
 1055 1060 1011 454 658 454 c 0
 520 454 422 541 422 669 c 1
 625 669 655 858 463 858 c 0
 407 858 344 826 303 766 c 0
 233 661 238 477 372 404 c 0
 450 361 568 348 718 347 c 2
 1808 347 l 1
 1808 1126 l 2
 1808 1276 1813 1500 1614 1500 c 1
 1614 1831 2160 1888 2158 1419 c 2
 2154 347 l 1
1268 540 m 2
 1104 540 1059 528 1011 510 c 1
 1002 624 1046 731 1159 768 c 1
 1040 963 1156 1260 1417 1225 c 0
 1612 1199 1589 905 1429 908 c 1
 1398 1021 1224 995 1224 896 c 0
 1224 775 1386 781 1589 781 c 1
 1575 558 1499 540 1363 540 c 2
 1268 540 l 2
EndSplineSet
EndChar

StartChar: uniFEDC
Encoding: 97 65244 97
Width: 1379
GlyphClass: 2
Flags: W
AnchorPoint: "Anchor-1" 645 1860 basechar 0
AnchorPoint: "Anchor-0" 648 -226 basechar 0
LayerCount: 2
Fore
SplineSet
1176 347 m 1
 1479 347 l 1
 1479 0 l 1
 -7 0 l 1
 -7 347 l 1
 793 347 l 1
 833 665 577 821 156 721 c 1
 -86 1574 474 1976 1162 1638 c 1
 1109 1456 1069 1336 934 1385 c 0
 832 1422 224 1537 256 1060 c 1
 778 1146 1182 969 1176 347 c 1
EndSplineSet
EndChar

StartChar: uniFEDB
Encoding: 98 65243 98
Width: 1283
GlyphClass: 2
Flags: W
AnchorPoint: "Anchor-1" 645 1860 basechar 0
AnchorPoint: "Anchor-0" 648 -226 basechar 0
LayerCount: 2
Fore
SplineSet
0 0 m 1
 0 347 l 1
 800 347 l 1
 840 665 584 821 163 721 c 1
 -79 1574 481 1976 1169 1638 c 1
 1116 1456 1076 1336 941 1385 c 0
 839 1422 231 1537 263 1060 c 1
 872 1160 1320 903 1145 0 c 1
 0 0 l 1
EndSplineSet
EndChar

StartChar: uni0644
Encoding: 99 1604 99
Width: 1662
GlyphClass: 2
Flags: W
AnchorPoint: "Anchor-1" 835 1860 basechar 0
AnchorPoint: "Anchor-0" 838 -826 basechar 0
LayerCount: 2
Fore
SplineSet
739 0 m 0
 601 0 503 87 503 215 c 1
 615 215 675 273 672 324 c 0
 666 416 526 461 420 369 c 0
 351 309 311 233 299 154 c 0
 213 -409 1218 -493 1215 152 c 2
 1215 944 l 2
 1213 1301 1211 1492 1018 1492 c 1
 1018 1823 1563 1880 1562 1475 c 2
 1560 949 l 1
 1560 152 l 2
 1560 -991 -46 -827 111 158 c 0
 135 309 210 445 334 531 c 0
 596 713 999 607 1005 296 c 0
 1008 147 910 0 739 0 c 0
EndSplineSet
Substitution2: "'fina' Terminal Forms in Arabic lookup 5 subtable" uniFEDE
Substitution2: "'medi' Medial Forms in Arabic lookup 4 subtable" uniFEE0
Substitution2: "'init' Initial Forms in Arabic lookup 3 subtable" uniFEDF
AlternateSubs2: "'aalt' Access All Alternates in Arabic lookup 1 subtable" uniFEDF uniFEE0 uniFEDE
EndChar

StartChar: uniFEDE
Encoding: 100 65246 100
Width: 1751
GlyphClass: 2
Flags: W
AnchorPoint: "Anchor-1" 835 1860 basechar 0
AnchorPoint: "Anchor-0" 838 -826 basechar 0
LayerCount: 2
Fore
SplineSet
1851 347 m 1
 1851 0 l 1
 1550 0 l 1
 1413 -974 -39 -781 111 158 c 0
 135 309 210 445 334 531 c 0
 596 713 999 607 1005 296 c 0
 1008 147 910 0 739 0 c 0
 601 0 503 87 503 215 c 1
 615 215 675 273 672 324 c 0
 666 416 526 461 420 369 c 0
 351 309 311 233 299 154 c 0
 213 -409 1218 -493 1215 152 c 2
 1215 944 l 2
 1213 1301 1211 1492 1018 1492 c 1
 1018 1823 1563 1880 1562 1475 c 2
 1560 949 l 1
 1560 347 l 1
 1851 347 l 1
EndSplineSet
EndChar

StartChar: uniFEE0
Encoding: 101 65248 101
Width: 746
GlyphClass: 2
Flags: W
AnchorPoint: "Anchor-1" 345 1860 basechar 0
AnchorPoint: "Anchor-0" 348 -226 basechar 0
LayerCount: 2
Fore
SplineSet
544 347 m 1
 846 347 l 1
 846 0 l 1
 0 0 l 1
 0 347 l 1
 198 347 l 1
 198 1126 l 2
 198 1276 203 1500 4 1500 c 1
 4 1831 550 1888 548 1419 c 2
 544 347 l 1
EndSplineSet
EndChar

StartChar: uniFEDF
Encoding: 102 65247 102
Width: 648
GlyphClass: 2
Flags: W
AnchorPoint: "Anchor-1" 345 1860 basechar 0
AnchorPoint: "Anchor-0" 348 -226 basechar 0
LayerCount: 2
Fore
SplineSet
0 0 m 1
 0 347 l 1
 198 347 l 1
 198 1126 l 2
 198 1276 203 1500 4 1500 c 1
 4 1831 550 1888 548 1419 c 2
 543 0 l 1
 0 0 l 1
EndSplineSet
EndChar

StartChar: uni0645
Encoding: 103 1605 103
Width: 1524
GlyphClass: 2
Flags: W
AnchorPoint: "Anchor-1" 765 1180 basechar 0
AnchorPoint: "Anchor-0" 768 -1007 basechar 0
LayerCount: 2
Fore
SplineSet
1193 -148 m 0
 1351 -165 1441 -303 1421 -478 c 0
 1385 -781 1109 -906 791 -906 c 0
 390 -906 100 -740 100 -344 c 0
 100 -87 195 94 378 207 c 1
 215 731 470 1057 848 1061 c 0
 1279 1065 1498 741 1401 0 c 1
 1371 0 l 2
 790 0 463 -2 463 -387 c 0
 463 -530 489 -740 788 -740 c 0
 942 -740 1056 -671 1056 -517 c 0
 1056 -426 994 -360 922 -389 c 1
 911 -220 1030 -130 1193 -148 c 0
1052 347 m 1
 1100 761 388 824 508 270 c 1
 646 322 819 347 1024 347 c 2
 1052 347 l 1
EndSplineSet
Substitution2: "'fina' Terminal Forms in Arabic lookup 5 subtable" uniFEE2
Substitution2: "'medi' Medial Forms in Arabic lookup 4 subtable" uniFEE4
Substitution2: "'init' Initial Forms in Arabic lookup 3 subtable" uniFEE3
AlternateSubs2: "'aalt' Access All Alternates in Arabic lookup 1 subtable" uniFEE3 uniFEE4 uniFEE2
EndChar

StartChar: uniFEE2
Encoding: 104 65250 104
Width: 1621
GlyphClass: 2
Flags: W
AnchorPoint: "Anchor-1" 765 1180 basechar 0
AnchorPoint: "Anchor-0" 768 -1007 basechar 0
LayerCount: 2
Fore
SplineSet
1371 0 m 2
 790 0 463 -2 463 -387 c 0
 463 -530 489 -740 788 -740 c 0
 942 -740 1056 -671 1056 -517 c 0
 1056 -426 994 -360 922 -389 c 1
 911 -220 1030 -130 1193 -148 c 0
 1351 -165 1441 -303 1421 -478 c 0
 1385 -781 1109 -906 791 -906 c 0
 390 -906 100 -740 100 -344 c 0
 100 -87 195 94 378 207 c 1
 215 731 470 1057 848 1061 c 0
 1205 1064 1416 843 1424 347 c 1
 1721 347 l 1
 1721 0 l 1
 1371 0 l 2
1052 347 m 1
 1100 761 388 824 508 270 c 1
 646 322 819 347 1024 347 c 2
 1052 347 l 1
EndSplineSet
EndChar

StartChar: uniFEE4
Encoding: 105 65252 105
Width: 1391
GlyphClass: 2
Flags: W
AnchorPoint: "Anchor-1" 595 1180 basechar 0
AnchorPoint: "Anchor-0" 598 -226 basechar 0
LayerCount: 2
Fore
SplineSet
1188 347 m 1
 1491 347 l 1
 1491 0 l 1
 0 0 l 1
 0 347 l 1
 107 347 l 1
 27 789 269 1058 612 1061 c 0
 969 1064 1180 843 1188 347 c 1
816 347 m 1
 861 741 220 817 260 347 c 1
 816 347 l 1
EndSplineSet
EndChar

StartChar: uniFEE3
Encoding: 106 65251 106
Width: 1288
GlyphClass: 2
Flags: W
AnchorPoint: "Anchor-1" 595 1180 basechar 0
AnchorPoint: "Anchor-0" 598 -226 basechar 0
LayerCount: 2
Fore
SplineSet
612 1061 m 0
 1043 1065 1262 741 1165 0 c 1
 0 0 l 1
 0 347 l 1
 107 347 l 1
 27 789 269 1058 612 1061 c 0
816 347 m 1
 861 741 220 817 260 347 c 1
 816 347 l 1
EndSplineSet
EndChar

StartChar: uni0646
Encoding: 107 1606 107
Width: 1663
GlyphClass: 2
Flags: W
AnchorPoint: "Anchor-1" 845 1330 basechar 0
AnchorPoint: "Anchor-0" 848 -846 basechar 0
LayerCount: 2
Fore
SplineSet
636 808 m 1
 416 1028 l 1
 636 1247 l 1
 855 1028 l 1
 636 808 l 1
739 0 m 0
 601 0 503 87 503 215 c 1
 615 215 675 273 672 324 c 0
 666 416 526 461 420 369 c 0
 351 309 311 233 299 154 c 0
 213 -409 1218 -493 1215 152 c 0
 1213 523 1215 721 1018 721 c 1
 1018 1052 1563 1109 1562 704 c 2
 1560 152 l 2
 1556 -991 -46 -827 111 158 c 0
 135 309 210 445 334 531 c 0
 596 713 999 607 1005 296 c 0
 1008 147 910 0 739 0 c 0
EndSplineSet
Substitution2: "'fina' Terminal Forms in Arabic lookup 5 subtable" uniFEE6
Substitution2: "'medi' Medial Forms in Arabic lookup 4 subtable" uniFEE8
Substitution2: "'init' Initial Forms in Arabic lookup 3 subtable" uniFEE7
AlternateSubs2: "'aalt' Access All Alternates in Arabic lookup 1 subtable" uniFEE7 uniFEE8 uniFEE6
EndChar

StartChar: uniFEE6
Encoding: 108 65254 108
Width: 1751
GlyphClass: 2
Flags: W
AnchorPoint: "Anchor-1" 845 1330 basechar 0
AnchorPoint: "Anchor-0" 848 -846 basechar 0
LayerCount: 2
Fore
SplineSet
855 1028 m 1
 636 808 l 1
 416 1028 l 1
 636 1247 l 1
 855 1028 l 1
1851 347 m 1
 1851 0 l 1
 1549 0 l 1
 1410 -974 -39 -781 111 158 c 0
 135 309 210 445 334 531 c 0
 596 713 999 607 1005 296 c 0
 1008 147 910 0 739 0 c 0
 601 0 503 87 503 215 c 1
 615 215 675 273 672 324 c 0
 666 416 526 461 420 369 c 0
 351 309 311 233 299 154 c 0
 213 -409 1218 -493 1215 152 c 0
 1213 523 1215 721 1018 721 c 1
 1018 1052 1563 1109 1562 704 c 2
 1561 347 l 1
 1851 347 l 1
EndSplineSet
EndChar

StartChar: uniFEE8
Encoding: 109 65256 109
Width: 942
GlyphClass: 2
Flags: W
AnchorPoint: "Anchor-1" 470 1664 basechar 0
AnchorPoint: "Anchor-0" 468 -207 basechar 0
LayerCount: 2
Fore
SplineSet
702 1358 m 1
 483 1138 l 1
 263 1358 l 1
 483 1577 l 1
 702 1358 l 1
742 347 m 1
 1042 347 l 1
 1042 0 l 1
 0 0 l 1
 0 347 l 1
 392 347 l 1
 392 507 397 731 198 731 c 1
 198 1062 742 1119 742 644 c 2
 742 347 l 1
EndSplineSet
EndChar

StartChar: uniFEE7
Encoding: 110 65255 110
Width: 842
GlyphClass: 2
Flags: W
AnchorPoint: "Anchor-1" 470 1664 basechar 0
AnchorPoint: "Anchor-0" 468 -207 basechar 0
LayerCount: 2
Fore
SplineSet
483 1138 m 1
 263 1358 l 1
 483 1577 l 1
 702 1358 l 1
 483 1138 l 1
0 0 m 1
 0 347 l 1
 392 347 l 1
 392 507 397 731 198 731 c 1
 198 1062 742 1119 742 644 c 2
 742 0 l 1
 0 0 l 1
EndSplineSet
EndChar

StartChar: uni0647
Encoding: 111 1607 111
Width: 1196
GlyphClass: 2
Flags: W
AnchorPoint: "Anchor-1" 590 1164 basechar 0
AnchorPoint: "Anchor-0" 588 -207 basechar 0
LayerCount: 2
Fore
SplineSet
1096 -2 m 1
 100 0 l 1
 103 347 l 1
 103 892 494 1201 1096 997 c 1
 1096 -2 l 1
261 347 m 1
 751 347 l 1
 751 656 l 1
 459 717 261 577 261 347 c 1
EndSplineSet
Substitution2: "'fina' Terminal Forms in Arabic lookup 5 subtable" uniFEEA
Substitution2: "'medi' Medial Forms in Arabic lookup 4 subtable" uniFEEC
Substitution2: "'init' Initial Forms in Arabic lookup 3 subtable" uniFEEB
AlternateSubs2: "'aalt' Access All Alternates in Arabic lookup 1 subtable" uniFEEB uniFEEC uniFEEA
EndChar

StartChar: uniFEEA
Encoding: 112 65258 112
Width: 1543
GlyphClass: 2
Flags: W
AnchorPoint: "Anchor-1" 760 1204 basechar 0
AnchorPoint: "Anchor-0" 758 -207 basechar 0
LayerCount: 2
Fore
SplineSet
492 0 m 0
 262 0 100 162 100 391 c 0
 100 1010 877 1166 1343 1058 c 1
 1342 347 l 1
 1643 347 l 1
 1643 0 l 1
 1000 0 l 1
 1000 717 l 1
 656 787 262 672 262 396 c 0
 262 164 501 183 530 274 c 0
 563 378 454 435 374 391 c 1
 374 499 472 576 610 576 c 0
 928 576 969 0 492 0 c 0
EndSplineSet
EndChar

StartChar: uniFEEC
Encoding: 113 65260 113
Width: 1751
GlyphClass: 2
Flags: W
AnchorPoint: "Anchor-1" 760 1604 basechar 0
AnchorPoint: "Anchor-0" 758 -207 basechar 0
LayerCount: 2
Fore
SplineSet
1552 347 m 1
 1851 347 l 1
 1851 0 l 1
 0 0 l 1
 0 347 l 1
 105 347 l 1
 67 630 248 857 515 859 c 0
 757 862 949 727 978 347 c 1
 1205 347 l 1
 1205 700 l 2
 1205 886 1175 986 1126 1049 c 0
 1037 1165 853 1184 760 1108 c 0
 712 1068 734 999 802 1025 c 1
 809 931 742 876 648 885 c 0
 305 917 435 1500 943 1500 c 0
 1294 1500 1552 1300 1552 710 c 2
 1552 347 l 1
642 347 m 1
 644 702 231 682 261 347 c 1
 642 347 l 1
EndSplineSet
EndChar

StartChar: uniFEEB
Encoding: 114 65259 114
Width: 1652
GlyphClass: 2
Flags: W
AnchorPoint: "Anchor-1" 760 1604 basechar 0
AnchorPoint: "Anchor-0" 758 -207 basechar 0
LayerCount: 2
Fore
SplineSet
943 1500 m 0
 1294 1500 1552 1300 1552 710 c 2
 1552 0 l 1
 0 0 l 1
 0 347 l 1
 105 347 l 1
 67 630 248 857 515 859 c 0
 757 862 949 727 978 347 c 1
 1205 347 l 1
 1205 700 l 2
 1205 886 1175 986 1126 1049 c 0
 1037 1165 853 1184 760 1108 c 0
 712 1068 734 999 802 1025 c 1
 809 931 742 876 648 885 c 0
 305 917 435 1500 943 1500 c 0
642 347 m 1
 644 702 231 682 261 347 c 1
 642 347 l 1
EndSplineSet
EndChar

StartChar: uni0629
Encoding: 115 1577 115
Width: 1196
GlyphClass: 2
Flags: W
AnchorPoint: "Anchor-1" 590 1714 basechar 0
AnchorPoint: "Anchor-0" 588 -207 basechar 0
LayerCount: 2
Fore
SplineSet
599 1359 m 1
 449 1209 l 1
 229 1429 l 1
 449 1648 l 1
 599 1498 l 1
 749 1648 l 1
 968 1429 l 1
 749 1209 l 1
 599 1359 l 1
103 347 m 1
 103 892 494 1201 1096 997 c 1
 1096 -2 l 1
 100 0 l 1
 103 347 l 1
751 347 m 1
 751 656 l 1
 459 717 261 577 261 347 c 1
 751 347 l 1
EndSplineSet
Substitution2: "'fina' Terminal Forms in Arabic lookup 5 subtable" uniFE94
Substitution2: "'aalt' Access All Alternates in Arabic lookup 0 subtable" uniFE94
EndChar

StartChar: uniFE94
Encoding: 116 65172 116
Width: 1523
GlyphClass: 2
Flags: W
AnchorPoint: "Anchor-1" 760 1734 basechar 0
AnchorPoint: "Anchor-0" 758 -207 basechar 0
LayerCount: 2
Fore
SplineSet
812 1360 m 1
 662 1210 l 1
 442 1430 l 1
 662 1649 l 1
 812 1499 l 1
 962 1649 l 1
 1181 1430 l 1
 962 1210 l 1
 812 1360 l 1
1342 347 m 1
 1643 347 l 1
 1643 0 l 1
 1000 0 l 1
 1000 717 l 1
 656 787 262 672 262 396 c 0
 262 164 501 183 530 274 c 0
 563 378 454 435 374 391 c 1
 374 499 472 576 610 576 c 0
 928 576 969 0 492 0 c 0
 262 0 100 162 100 391 c 0
 100 1010 877 1166 1343 1058 c 1
 1342 347 l 1
EndSplineSet
EndChar

StartChar: uni0648
Encoding: 117 1608 117
Width: 1195
GlyphClass: 2
Flags: W
AnchorPoint: "Anchor-1" 590 1164 basechar 0
AnchorPoint: "Anchor-0" 588 -737 basechar 0
LayerCount: 2
Fore
SplineSet
100 347 m 2
 100 838 427 1217 1095 991 c 1
 1095 -100 l 2
 1095 -797 351 -740 351 -409 c 1
 476 -435 745 -495 745 -35 c 2
 745 -1 l 1
 100 0 l 1
 100 347 l 2
745 347 m 1
 745 658 l 1
 453 719 260 571 260 347 c 1
 745 347 l 1
EndSplineSet
Substitution2: "'fina' Terminal Forms in Arabic lookup 5 subtable" uniFEEE
Substitution2: "'aalt' Access All Alternates in Arabic lookup 0 subtable" uniFEEE
EndChar

StartChar: uniFEEE
Encoding: 118 65262 118
Width: 1291
GlyphClass: 2
Flags: W
AnchorPoint: "Anchor-1" 590 1164 basechar 0
AnchorPoint: "Anchor-0" 588 -737 basechar 0
LayerCount: 2
Fore
SplineSet
1391 347 m 1
 1391 0 l 1
 1095 0 l 1
 1095 -100 l 2
 1095 -797 351 -740 351 -409 c 1
 476 -435 745 -495 745 -35 c 2
 745 -1 l 1
 100 0 l 1
 100 347 l 2
 100 838 427 1217 1095 991 c 1
 1095 347 l 1
 1391 347 l 1
260 347 m 1
 745 347 l 1
 745 658 l 1
 453 719 260 571 260 347 c 1
EndSplineSet
EndChar

StartChar: uni0624
Encoding: 119 1572 119
Width: 1195
GlyphClass: 2
Flags: W
AnchorPoint: "Anchor-1" 590 2064 basechar 0
AnchorPoint: "Anchor-0" 588 -737 basechar 0
LayerCount: 2
Fore
SplineSet
562 1258 m 2
 398 1258 353 1246 305 1228 c 1
 296 1342 340 1449 453 1486 c 1
 334 1681 450 1978 711 1943 c 0
 906 1917 883 1623 723 1626 c 1
 692 1739 518 1713 518 1614 c 0
 518 1493 680 1499 883 1499 c 1
 869 1276 793 1258 657 1258 c 2
 562 1258 l 2
100 347 m 2
 100 838 427 1217 1095 991 c 1
 1095 -100 l 2
 1095 -797 351 -740 351 -409 c 1
 476 -435 745 -495 745 -35 c 2
 745 -1 l 1
 100 0 l 1
 100 347 l 2
745 347 m 1
 745 658 l 1
 453 719 260 571 260 347 c 1
 745 347 l 1
EndSplineSet
Substitution2: "'fina' Terminal Forms in Arabic lookup 5 subtable" uniFE86
Substitution2: "'aalt' Access All Alternates in Arabic lookup 0 subtable" uniFE86
EndChar

StartChar: uniFE86
Encoding: 120 65158 120
Width: 1291
GlyphClass: 2
Flags: W
AnchorPoint: "Anchor-1" 590 2064 basechar 0
AnchorPoint: "Anchor-0" 588 -737 basechar 0
LayerCount: 2
Fore
SplineSet
568 1258 m 2
 404 1258 359 1246 311 1228 c 1
 302 1342 346 1449 459 1486 c 1
 340 1681 456 1978 717 1943 c 0
 912 1917 889 1623 729 1626 c 1
 698 1739 524 1713 524 1614 c 0
 524 1493 686 1499 889 1499 c 1
 875 1276 799 1258 663 1258 c 2
 568 1258 l 2
1391 347 m 1
 1391 0 l 1
 1095 0 l 1
 1095 -100 l 2
 1095 -797 351 -740 351 -409 c 1
 476 -435 745 -495 745 -35 c 2
 745 -1 l 1
 100 0 l 1
 100 347 l 2
 100 838 427 1217 1095 991 c 1
 1095 347 l 1
 1391 347 l 1
260 347 m 1
 745 347 l 1
 745 658 l 1
 453 719 260 571 260 347 c 1
EndSplineSet
EndChar

StartChar: uni0649
Encoding: 121 1609 121
Width: 2385
GlyphClass: 2
Flags: W
AnchorPoint: "Anchor-1" 790 1164 basechar 0
AnchorPoint: "Anchor-0" 788 -837 basechar 0
LayerCount: 2
Fore
SplineSet
717 0 m 0
 579 0 481 87 481 215 c 1
 593 215 653 273 650 324 c 0
 645 416 504 461 398 369 c 0
 329 309 289 233 277 154 c 0
 191 -409 1196 -493 1193 152 c 1
 1190 347 l 1
 1190 904 1683 1195 2285 991 c 1
 2285 341 l 2
 2285 85 2096 -16 1894 0 c 1
 1920 70 1938 134 1938 370 c 2
 1938 658 l 1
 1646 719 1535 571 1535 347 c 2
 1535 152 l 2
 1534 -993 -68 -826 89 158 c 0
 113 309 188 445 312 531 c 0
 574 713 977 607 983 296 c 0
 986 147 888 0 717 0 c 0
EndSplineSet
Substitution2: "'fina' Terminal Forms in Arabic lookup 5 subtable" uniFEF0
Substitution2: "'aalt' Access All Alternates in Arabic lookup 0 subtable" uniFEF0
EndChar

StartChar: uniFEF0
Encoding: 122 65264 122
Width: 2486
GlyphClass: 2
Flags: W
AnchorPoint: "Anchor-1" 790 1164 basechar 0
AnchorPoint: "Anchor-0" 788 -837 basechar 0
LayerCount: 2
Fore
SplineSet
2285 347 m 1
 2586 347 l 1
 2586 0 l 1
 1938 0 l 1
 1938 658 l 1
 1646 719 1535 571 1535 347 c 2
 1535 152 l 2
 1534 -993 -68 -826 89 158 c 0
 113 309 188 445 312 531 c 0
 574 713 977 607 983 296 c 0
 986 147 888 0 717 0 c 0
 579 0 481 87 481 215 c 1
 593 215 653 273 650 324 c 0
 645 416 504 461 398 369 c 0
 329 309 289 233 277 154 c 0
 191 -409 1196 -493 1193 152 c 1
 1190 347 l 1
 1190 904 1683 1195 2285 991 c 1
 2285 347 l 1
EndSplineSet
EndChar

StartChar: uni064A
Encoding: 123 1610 123
Width: 2385
GlyphClass: 2
Flags: W
AnchorPoint: "Anchor-1" 790 1164 basechar 0
AnchorPoint: "Anchor-0" 788 -1367 basechar 0
LayerCount: 2
Fore
SplineSet
1190 347 m 1
 1190 904 1683 1195 2285 991 c 1
 2285 341 l 2
 2285 85 2096 -16 1894 0 c 1
 1920 70 1938 134 1938 370 c 2
 1938 658 l 1
 1646 719 1535 571 1535 347 c 2
 1535 152 l 2
 1534 -993 -68 -826 89 158 c 0
 113 309 188 445 312 531 c 0
 574 713 977 607 983 296 c 0
 986 147 888 0 717 0 c 0
 579 0 481 87 481 215 c 1
 593 215 653 273 650 324 c 0
 645 416 504 461 398 369 c 0
 329 309 289 233 277 154 c 0
 191 -409 1196 -493 1193 152 c 1
 1190 347 l 1
740 -986 m 1
 890 -836 l 1
 1109 -1055 l 1
 890 -1275 l 1
 740 -1125 l 1
 590 -1275 l 1
 370 -1055 l 1
 590 -836 l 1
 740 -986 l 1
EndSplineSet
Substitution2: "'fina' Terminal Forms in Arabic lookup 5 subtable" uniFEF2
Substitution2: "'medi' Medial Forms in Arabic lookup 4 subtable" uniFEF4
Substitution2: "'init' Initial Forms in Arabic lookup 3 subtable" uniFEF3
AlternateSubs2: "'aalt' Access All Alternates in Arabic lookup 1 subtable" uniFEF3 uniFEF4 uniFEF2
EndChar

StartChar: uniFEF2
Encoding: 124 65266 124
Width: 2486
GlyphClass: 2
Flags: W
AnchorPoint: "Anchor-1" 790 1164 basechar 0
AnchorPoint: "Anchor-0" 788 -1367 basechar 0
LayerCount: 2
Fore
SplineSet
2285 347 m 1
 2586 347 l 1
 2586 0 l 1
 1938 0 l 1
 1938 658 l 1
 1646 719 1535 571 1535 347 c 2
 1535 152 l 2
 1534 -993 -68 -826 89 158 c 0
 113 309 188 445 312 531 c 0
 574 713 977 607 983 296 c 0
 986 147 888 0 717 0 c 0
 579 0 481 87 481 215 c 1
 593 215 653 273 650 324 c 0
 645 416 504 461 398 369 c 0
 329 309 289 233 277 154 c 0
 191 -409 1196 -493 1193 152 c 1
 1190 347 l 1
 1190 904 1683 1195 2285 991 c 1
 2285 347 l 1
740 -986 m 1
 890 -836 l 1
 1109 -1055 l 1
 890 -1275 l 1
 740 -1125 l 1
 590 -1275 l 1
 370 -1055 l 1
 590 -836 l 1
 740 -986 l 1
EndSplineSet
EndChar

StartChar: uniFEF4
Encoding: 125 65268 125
Width: 942
GlyphClass: 2
Flags: W
AnchorPoint: "Anchor-1" 465 1080 basechar 0
AnchorPoint: "Anchor-0" 468 -737 basechar 0
LayerCount: 2
Fore
SplineSet
742 347 m 1
 1042 347 l 1
 1042 0 l 1
 0 0 l 1
 0 347 l 1
 392 347 l 1
 392 507 397 731 198 731 c 1
 198 1062 742 1119 742 644 c 2
 742 347 l 1
552 -346 m 1
 702 -196 l 1
 921 -415 l 1
 702 -635 l 1
 552 -485 l 1
 402 -635 l 1
 182 -415 l 1
 402 -196 l 1
 552 -346 l 1
EndSplineSet
EndChar

StartChar: uniFEF3
Encoding: 126 65267 126
Width: 842
GlyphClass: 2
Flags: W
AnchorPoint: "Anchor-1" 465 1080 basechar 0
AnchorPoint: "Anchor-0" 468 -737 basechar 0
LayerCount: 2
Fore
SplineSet
742 644 m 2
 742 0 l 1
 0 0 l 1
 0 347 l 1
 392 347 l 1
 392 507 397 731 198 731 c 1
 198 1062 742 1119 742 644 c 2
840 -415 m 1
 621 -635 l 1
 471 -485 l 1
 321 -635 l 1
 101 -415 l 1
 321 -196 l 1
 471 -346 l 1
 621 -196 l 1
 840 -415 l 1
EndSplineSet
EndChar

StartChar: uni0626
Encoding: 127 1574 127
Width: 2385
GlyphClass: 2
Flags: W
AnchorPoint: "Anchor-1" 790 1464 basechar 0
AnchorPoint: "Anchor-0" 788 -857 basechar 0
LayerCount: 2
Fore
SplineSet
301 674 m 1
 292 788 336 895 449 932 c 1
 330 1127 446 1424 707 1389 c 0
 902 1363 879 1069 719 1072 c 1
 688 1185 514 1159 514 1060 c 0
 514 939 676 945 879 945 c 1
 865 722 789 704 653 704 c 2
 558 704 l 2
 394 704 349 692 301 674 c 1
717 0 m 0
 579 0 481 87 481 215 c 1
 593 215 653 273 650 324 c 0
 645 416 504 461 398 369 c 0
 329 309 289 233 277 154 c 0
 191 -409 1196 -493 1193 152 c 1
 1190 347 l 1
 1190 904 1683 1195 2285 991 c 1
 2285 341 l 2
 2285 85 2096 -16 1894 0 c 1
 1920 70 1938 134 1938 370 c 2
 1938 658 l 1
 1646 719 1535 571 1535 347 c 2
 1535 152 l 2
 1534 -993 -68 -826 89 158 c 0
 113 309 188 445 312 531 c 0
 574 713 977 607 983 296 c 0
 986 147 888 0 717 0 c 0
EndSplineSet
Substitution2: "'fina' Terminal Forms in Arabic lookup 5 subtable" uniFE8A
Substitution2: "'medi' Medial Forms in Arabic lookup 4 subtable" uniFE8C
Substitution2: "'init' Initial Forms in Arabic lookup 3 subtable" uniFE8B
AlternateSubs2: "'aalt' Access All Alternates in Arabic lookup 1 subtable" uniFE8B uniFE8C uniFE8A
EndChar

StartChar: uniFE8A
Encoding: 128 65162 128
Width: 2486
GlyphClass: 2
Flags: W
AnchorPoint: "Anchor-1" 790 1464 basechar 0
AnchorPoint: "Anchor-0" 788 -857 basechar 0
LayerCount: 2
Fore
SplineSet
301 677 m 1
 292 791 336 898 449 935 c 1
 330 1130 446 1427 707 1392 c 0
 902 1366 879 1072 719 1075 c 1
 688 1188 514 1162 514 1063 c 0
 514 942 676 948 879 948 c 1
 865 725 789 707 653 707 c 2
 558 707 l 2
 394 707 349 695 301 677 c 1
2285 347 m 1
 2586 347 l 1
 2586 0 l 1
 1938 0 l 1
 1938 658 l 1
 1646 719 1535 571 1535 347 c 2
 1535 152 l 2
 1534 -993 -68 -826 89 158 c 0
 113 309 188 445 312 531 c 0
 574 713 977 607 983 296 c 0
 986 147 888 0 717 0 c 0
 579 0 481 87 481 215 c 1
 593 215 653 273 650 324 c 0
 645 416 504 461 398 369 c 0
 329 309 289 233 277 154 c 0
 191 -409 1196 -493 1193 152 c 1
 1190 347 l 1
 1190 904 1683 1195 2285 991 c 1
 2285 347 l 1
EndSplineSet
EndChar

StartChar: uniFE8C
Encoding: 129 65164 129
Width: 942
GlyphClass: 2
Flags: W
AnchorPoint: "Anchor-1" 465 1910 basechar 0
AnchorPoint: "Anchor-0" 468 -207 basechar 0
LayerCount: 2
Fore
SplineSet
448 1139 m 2
 284 1139 239 1127 191 1109 c 1
 182 1223 226 1330 339 1367 c 1
 220 1562 336 1859 597 1824 c 0
 792 1798 769 1504 609 1507 c 1
 578 1620 404 1594 404 1495 c 0
 404 1374 566 1380 769 1380 c 1
 755 1157 679 1139 543 1139 c 2
 448 1139 l 2
742 347 m 1
 1042 347 l 1
 1042 0 l 1
 0 0 l 1
 0 347 l 1
 392 347 l 1
 392 507 397 731 198 731 c 1
 198 1062 742 1119 742 644 c 2
 742 347 l 1
EndSplineSet
EndChar

StartChar: uniFE8B
Encoding: 130 65163 130
Width: 842
GlyphClass: 2
Flags: W
AnchorPoint: "Anchor-1" 465 1910 basechar 0
AnchorPoint: "Anchor-0" 468 -207 basechar 0
LayerCount: 2
Fore
SplineSet
191 1109 m 1
 182 1223 226 1330 339 1367 c 1
 220 1562 336 1859 597 1824 c 0
 792 1798 769 1504 609 1507 c 1
 578 1620 404 1594 404 1495 c 0
 404 1374 566 1380 769 1380 c 1
 755 1157 679 1139 543 1139 c 2
 448 1139 l 2
 284 1139 239 1127 191 1109 c 1
0 0 m 1
 0 347 l 1
 392 347 l 1
 392 507 397 731 198 731 c 1
 198 1062 742 1119 742 644 c 2
 742 0 l 1
 0 0 l 1
EndSplineSet
EndChar

StartChar: uni0640
Encoding: 131 1600 131
Width: 600
Flags: W
LayerCount: 2
Fore
SplineSet
-103 0 m 1
 -103 347 l 1
 700 347 l 1
 700 0 l 1
 -103 0 l 1
EndSplineSet
EndChar

StartChar: uniFEFB
Encoding: 132 65275 132
Width: 1681
GlyphClass: 3
Flags: W
AnchorPoint: "Anchor-2" 1245 1860 baselig 0
AnchorPoint: "Anchor-2" 440 1599 baselig 1
AnchorPoint: "Anchor-3" 387 -207 baselig 1
LayerCount: 2
Fore
SplineSet
1037 1500 m 1
 1037 1831 1583 1888 1581 1419 c 2
 1576 0 l 1
 443 0 l 2
 187 0 86 189 102 391 c 1
 163 368 219 352 387 348 c 1
 990 378 959 1140 475 1140 c 0
 379 1140 318 1082 351 1000 c 1
 -34 975 47 1499 440 1499 c 0
 1087 1499 1189 687 780 347 c 1
 1231 347 l 1
 1231 1126 l 2
 1231 1276 1236 1500 1037 1500 c 1
EndSplineSet
Ligature2: "'rlig' Required Ligatures in Arabic lookup 6 subtable" uniFEDF uniFE8E
Substitution2: "'fina' Terminal Forms in Arabic lookup 5 subtable" uniFEFC
Substitution2: "'aalt' Access All Alternates in Arabic lookup 0 subtable" uniFEFC
EndChar

StartChar: uniFEFC
Encoding: 133 65276 133
Width: 1769
GlyphClass: 3
Flags: W
AnchorPoint: "Anchor-2" 1315 1860 baselig 0
AnchorPoint: "Anchor-2" 510 1599 baselig 1
AnchorPoint: "Anchor-3" 457 -207 baselig 1
LayerCount: 2
Fore
SplineSet
1577 347 m 1
 1869 347 l 1
 1869 0 l 1
 443 0 l 2
 187 0 86 189 102 391 c 1
 163 368 219 352 387 348 c 1
 990 378 959 1140 475 1140 c 0
 379 1140 318 1082 351 1000 c 1
 -34 975 47 1499 440 1499 c 0
 1087 1499 1189 687 780 347 c 1
 1231 347 l 1
 1231 1126 l 2
 1231 1276 1236 1500 1037 1500 c 1
 1037 1831 1583 1888 1581 1419 c 2
 1577 347 l 1
EndSplineSet
Ligature2: "'rlig' Required Ligatures in Arabic lookup 6 subtable" uniFEE0 uniFE8E
EndChar

StartChar: uniFEF7
Encoding: 134 65271 134
Width: 1681
GlyphClass: 3
Flags: W
AnchorPoint: "Anchor-2" 1245 1860 baselig 0
AnchorPoint: "Anchor-2" 340 2489 baselig 1
AnchorPoint: "Anchor-3" 387 -207 baselig 1
LayerCount: 2
Fore
SplineSet
448 1698 m 2
 284 1698 239 1686 191 1668 c 1
 182 1782 226 1889 339 1926 c 1
 220 2121 336 2418 597 2383 c 0
 792 2357 769 2063 609 2066 c 1
 578 2179 404 2153 404 2054 c 0
 404 1933 566 1939 769 1939 c 1
 755 1716 679 1698 543 1698 c 2
 448 1698 l 2
1037 1500 m 1
 1037 1831 1583 1888 1581 1419 c 2
 1576 0 l 1
 443 0 l 2
 187 0 86 189 102 391 c 1
 163 368 219 352 387 348 c 1
 990 378 959 1140 475 1140 c 0
 379 1140 318 1082 351 1000 c 1
 -34 975 47 1499 440 1499 c 0
 1087 1499 1189 687 780 347 c 1
 1231 347 l 1
 1231 1126 l 2
 1231 1276 1236 1500 1037 1500 c 1
EndSplineSet
Ligature2: "'rlig' Required Ligatures in Arabic lookup 6 subtable" uniFEDF uniFE84
Substitution2: "'fina' Terminal Forms in Arabic lookup 5 subtable" uniFEF8
Substitution2: "'aalt' Access All Alternates in Arabic lookup 0 subtable" uniFEF8
EndChar

StartChar: uniFEF8
Encoding: 135 65272 135
Width: 1769
GlyphClass: 3
Flags: W
AnchorPoint: "Anchor-2" 1245 1860 baselig 0
AnchorPoint: "Anchor-2" 340 2489 baselig 1
AnchorPoint: "Anchor-3" 387 -207 baselig 1
LayerCount: 2
Fore
SplineSet
448 1698 m 2
 284 1698 239 1686 191 1668 c 1
 182 1782 226 1889 339 1926 c 1
 220 2121 336 2418 597 2383 c 0
 792 2357 769 2063 609 2066 c 1
 578 2179 404 2153 404 2054 c 0
 404 1933 566 1939 769 1939 c 1
 755 1716 679 1698 543 1698 c 2
 448 1698 l 2
1577 347 m 1
 1869 347 l 1
 1869 0 l 1
 443 0 l 2
 187 0 86 189 102 391 c 1
 163 368 219 352 387 348 c 1
 990 378 959 1140 475 1140 c 0
 379 1140 318 1082 351 1000 c 1
 -34 975 47 1499 440 1499 c 0
 1087 1499 1189 687 780 347 c 1
 1231 347 l 1
 1231 1126 l 2
 1231 1276 1236 1500 1037 1500 c 1
 1037 1831 1583 1888 1581 1419 c 2
 1577 347 l 1
EndSplineSet
Ligature2: "'rlig' Required Ligatures in Arabic lookup 6 subtable" uniFEE0 uniFE84
EndChar

StartChar: uniFEF9
Encoding: 136 65273 136
Width: 1681
GlyphClass: 3
Flags: W
AnchorPoint: "Anchor-2" 1315 1860 baselig 0
AnchorPoint: "Anchor-2" 510 1599 baselig 1
AnchorPoint: "Anchor-3" 457 -998 baselig 1
LayerCount: 2
Fore
SplineSet
1037 1500 m 1
 1037 1831 1583 1888 1581 1419 c 2
 1576 0 l 1
 443 0 l 2
 187 0 86 189 102 391 c 1
 163 368 219 352 387 348 c 1
 990 378 959 1140 475 1140 c 0
 379 1140 318 1082 351 1000 c 1
 -34 975 47 1499 440 1499 c 0
 1087 1499 1189 687 780 347 c 1
 1231 347 l 1
 1231 1126 l 2
 1231 1276 1236 1500 1037 1500 c 1
394 -529 m 0
 394 -650 556 -644 759 -644 c 1
 745 -867 669 -885 533 -885 c 2
 438 -885 l 2
 274 -885 229 -897 181 -915 c 1
 172 -801 216 -694 329 -657 c 1
 210 -462 326 -165 587 -200 c 0
 782 -226 759 -520 599 -517 c 1
 568 -404 394 -430 394 -529 c 0
EndSplineSet
Ligature2: "'rlig' Required Ligatures in Arabic lookup 6 subtable" uniFEDF uniFE88
Substitution2: "'fina' Terminal Forms in Arabic lookup 5 subtable" uniFEFA
Substitution2: "'aalt' Access All Alternates in Arabic lookup 0 subtable" uniFEFA
EndChar

StartChar: uniFEFA
Encoding: 137 65274 137
Width: 1769
GlyphClass: 3
Flags: W
AnchorPoint: "Anchor-2" 1315 1860 baselig 0
AnchorPoint: "Anchor-2" 510 1599 baselig 1
AnchorPoint: "Anchor-3" 457 -998 baselig 1
LayerCount: 2
Fore
SplineSet
1577 347 m 1
 1869 347 l 1
 1869 0 l 1
 443 0 l 2
 187 0 86 189 102 391 c 1
 163 368 219 352 387 348 c 1
 990 378 959 1140 475 1140 c 0
 379 1140 318 1082 351 1000 c 1
 -34 975 47 1499 440 1499 c 0
 1087 1499 1189 687 780 347 c 1
 1231 347 l 1
 1231 1126 l 2
 1231 1276 1236 1500 1037 1500 c 1
 1037 1831 1583 1888 1581 1419 c 2
 1577 347 l 1
394 -529 m 0
 394 -650 556 -644 759 -644 c 1
 745 -867 669 -885 533 -885 c 2
 438 -885 l 2
 274 -885 229 -897 181 -915 c 1
 172 -801 216 -694 329 -657 c 1
 210 -462 326 -165 587 -200 c 0
 782 -226 759 -520 599 -517 c 1
 568 -404 394 -430 394 -529 c 0
EndSplineSet
Ligature2: "'rlig' Required Ligatures in Arabic lookup 6 subtable" uniFEE0 uniFE88
EndChar

StartChar: uniFEF5
Encoding: 138 65269 138
Width: 1681
GlyphClass: 3
Flags: W
AnchorPoint: "Anchor-2" 1245 1860 baselig 0
AnchorPoint: "Anchor-2" 340 2049 baselig 1
AnchorPoint: "Anchor-3" 387 -207 baselig 1
LayerCount: 2
Fore
SplineSet
134 1684 m 1
 -14 1683 -56 1896 97 1950 c 0
 234 1998 520 1811 520 1974 c 1
 666 1974 708 1766 562 1709 c 0
 426 1658 134 1848 134 1684 c 1
1037 1500 m 1
 1037 1831 1583 1888 1581 1419 c 2
 1576 0 l 1
 443 0 l 2
 187 0 86 189 102 391 c 1
 163 368 219 352 387 348 c 1
 990 378 959 1140 475 1140 c 0
 379 1140 318 1082 351 1000 c 1
 -34 975 47 1499 440 1499 c 0
 1087 1499 1189 687 780 347 c 1
 1231 347 l 1
 1231 1126 l 2
 1231 1276 1236 1500 1037 1500 c 1
EndSplineSet
Ligature2: "'rlig' Required Ligatures in Arabic lookup 6 subtable" uniFEDF uniFE82
Substitution2: "'fina' Terminal Forms in Arabic lookup 5 subtable" uniFEF6
Substitution2: "'aalt' Access All Alternates in Arabic lookup 0 subtable" uniFEF6
EndChar

StartChar: uniFEF6
Encoding: 139 65270 139
Width: 1769
GlyphClass: 3
Flags: W
AnchorPoint: "Anchor-2" 1245 1860 baselig 0
AnchorPoint: "Anchor-2" 340 2049 baselig 1
AnchorPoint: "Anchor-3" 387 -207 baselig 1
LayerCount: 2
Fore
SplineSet
134 1684 m 1
 -14 1683 -56 1896 97 1950 c 0
 234 1998 520 1811 520 1974 c 1
 666 1974 708 1766 562 1709 c 0
 426 1658 134 1848 134 1684 c 1
1577 347 m 1
 1869 347 l 1
 1869 0 l 1
 443 0 l 2
 187 0 86 189 102 391 c 1
 163 368 219 352 387 348 c 1
 990 378 959 1140 475 1140 c 0
 379 1140 318 1082 351 1000 c 1
 -34 975 47 1499 440 1499 c 0
 1087 1499 1189 687 780 347 c 1
 1231 347 l 1
 1231 1126 l 2
 1231 1276 1236 1500 1037 1500 c 1
 1037 1831 1583 1888 1581 1419 c 2
 1577 347 l 1
EndSplineSet
Ligature2: "'rlig' Required Ligatures in Arabic lookup 6 subtable" uniFEE0 uniFE82
EndChar

StartChar: zero
Encoding: 140 48 140
Width: 907
Flags: W
LayerCount: 2
Fore
SplineSet
454 162 m 1
 100 516 l 1
 454 869 l 1
 807 516 l 1
 454 162 l 1
EndSplineSet
EndChar

StartChar: one
Encoding: 141 49 141
Width: 744
Flags: W
LayerCount: 2
Fore
SplineSet
250 0 m 1
 276 70 294 134 294 370 c 2
 294 1126 l 2
 294 1276 299 1500 100 1500 c 1
 100 1831 644 1888 644 1419 c 2
 644 341 l 2
 644 85 452 -16 250 0 c 1
EndSplineSet
EndChar

StartChar: two
Encoding: 142 50 142
Width: 1361
Flags: W
LayerCount: 2
Fore
SplineSet
144 1051 m 2
 144 1919 1188 1976 1261 1287 c 1
 887 1586 494 1458 494 1047 c 2
 494 341 l 2
 494 85 302 -16 100 0 c 1
 126 70 144 134 144 370 c 2
 144 1051 l 2
EndSplineSet
EndChar

StartChar: three
Encoding: 143 51 143
Width: 1970
Flags: W
LayerCount: 2
Fore
SplineSet
1870 1475 m 2
 1870 771 l 1
 644 771 l 1
 644 341 l 2
 644 85 452 -16 250 0 c 1
 276 70 294 134 294 370 c 2
 294 1126 l 2
 294 1276 299 1500 100 1500 c 1
 100 1831 644 1888 644 1419 c 2
 644 1118 l 1
 902 1118 l 1
 903 1475 902 1492 795 1492 c 1
 795 1823 1252 1880 1252 1475 c 2
 1252 1118 l 1
 1520 1118 l 1
 1521 1474 1521 1492 1413 1492 c 1
 1413 1823 1870 1880 1870 1475 c 2
EndSplineSet
EndChar

StartChar: four
Encoding: 144 52 144
Width: 1462
Flags: W
LayerCount: 2
Fore
SplineSet
830 444 m 0
 1106 566 1245 504 1362 146 c 1
 1265 146 1149 115 1017 55 c 0
 601 -134 247 161 103 504 c 1
 196 504 264 655 452 888 c 1
 264 1102 193 1253 100 1253 c 1
 244 1596 598 1891 1014 1702 c 0
 1146 1642 1262 1611 1359 1611 c 1
 1242 1253 1103 1191 827 1313 c 0
 662 1386 501 1404 404 1316 c 1
 453 1249 492 1164 595 1012 c 1
 781 1012 l 2
 973 1012 1036 1022 1126 1056 c 1
 1142 854 1041 745 785 745 c 2
 586 745 l 1
 491 588 455 506 407 441 c 1
 504 353 665 371 830 444 c 0
EndSplineSet
EndChar

StartChar: five
Encoding: 145 53 145
Width: 1296
Flags: W
LayerCount: 2
Fore
SplineSet
100 1215 m 2
 100 1912 974 1855 1196 1516 c 1
 1196 529 l 2
 1196 51 780 -72 450 4 c 1
 450 0 l 1
 439 7 l 1
 294 43 166 118 101 218 c 1
 100 219 l 1
 100 1215 l 2
450 203 m 1
 668 213 847 290 846 594 c 2
 841 1538 l 1
 624 1531 450 1453 450 1150 c 2
 450 203 l 1
EndSplineSet
EndChar

StartChar: six
Encoding: 146 54 146
Width: 1361
Flags: W
LayerCount: 2
Fore
SplineSet
1217 370 m 2
 1217 134 1235 70 1261 0 c 1
 1059 -16 867 85 867 341 c 2
 867 1047 l 2
 867 1458 474 1586 100 1287 c 1
 173 1976 1217 1919 1217 1051 c 2
 1217 370 l 2
EndSplineSet
EndChar

StartChar: seven
Encoding: 147 55 147
Width: 1971
Flags: W
LayerCount: 2
Fore
SplineSet
895 0 m 1
 889 74 869 135 779 353 c 2
 459 1127 l 2
 402 1264 306 1468 125 1384 c 1
 -14 1684 473 1973 653 1540 c 2
 986 738 l 1
 1318 1540 l 2
 1497 1973 1985 1684 1846 1384 c 1
 1665 1468 1569 1264 1512 1127 c 2
 1192 353 l 2
 1102 135 1082 74 1076 0 c 1
 1044 12 1013 27 986 44 c 1
 958 27 927 12 895 0 c 1
EndSplineSet
EndChar

StartChar: eight
Encoding: 148 56 148
Width: 1971
Flags: W
LayerCount: 2
Fore
SplineSet
895 1760 m 1
 927 1748 958 1733 986 1716 c 1
 1013 1733 1044 1748 1076 1760 c 1
 1082 1686 1102 1625 1192 1407 c 2
 1512 633 l 2
 1569 496 1665 292 1846 376 c 1
 1985 76 1497 -213 1318 220 c 2
 986 1022 l 1
 653 220 l 2
 473 -213 -14 76 125 376 c 1
 306 292 402 496 459 633 c 2
 779 1407 l 2
 869 1625 889 1686 895 1760 c 1
EndSplineSet
EndChar

StartChar: nine
Encoding: 149 57 149
Width: 1305
Flags: W
LayerCount: 2
Fore
SplineSet
100 1049 m 2
 100 1540 537 1919 1205 1693 c 1
 1205 341 l 2
 1205 85 1013 -16 811 0 c 1
 837 70 855 134 855 370 c 2
 855 701 l 1
 100 702 l 1
 100 1049 l 2
855 1049 m 1
 855 1360 l 1
 563 1421 260 1273 260 1049 c 1
 855 1049 l 1
EndSplineSet
EndChar

StartChar: uni066B
Encoding: 150 1643 150
Width: 622
Flags: W
LayerCount: 2
Fore
SplineSet
100 212 m 0
 99 384 227 471 522 432 c 1
 521 -133 l 2
 521 -346 278 -317 278 -169 c 1
 366 -169 362 -71 362 -2 c 2
 362 9 l 1
 199 -12 101 81 100 212 c 0
EndSplineSet
EndChar

StartChar: uni066C
Encoding: 151 1644 151
Width: 517
Flags: W
LayerCount: 2
Fore
SplineSet
100 178 m 0
 99 307 196 373 417 344 c 1
 416 -81 l 2
 416 -241 234 -219 234 -108 c 1
 300 -108 297 -34 297 17 c 2
 297 26 l 1
 175 10 101 80 100 178 c 0
EndSplineSet
EndChar

StartChar: uni0660
Encoding: 152 1632 152
Width: 907
Flags: W
LayerCount: 2
Fore
SplineSet
454 162 m 1
 100 516 l 1
 454 869 l 1
 807 516 l 1
 454 162 l 1
EndSplineSet
EndChar

StartChar: uni0661
Encoding: 153 1633 153
Width: 744
Flags: W
LayerCount: 2
Fore
SplineSet
250 0 m 1
 276 70 294 134 294 370 c 2
 294 1126 l 2
 294 1276 299 1500 100 1500 c 1
 100 1831 644 1888 644 1419 c 2
 644 341 l 2
 644 85 452 -16 250 0 c 1
EndSplineSet
EndChar

StartChar: uni0662
Encoding: 154 1634 154
Width: 1361
Flags: W
LayerCount: 2
Fore
SplineSet
144 1051 m 2
 144 1919 1188 1976 1261 1287 c 1
 887 1586 494 1458 494 1047 c 2
 494 341 l 2
 494 85 302 -16 100 0 c 1
 126 70 144 134 144 370 c 2
 144 1051 l 2
EndSplineSet
EndChar

StartChar: uni0663
Encoding: 155 1635 155
Width: 1970
Flags: W
LayerCount: 2
Fore
SplineSet
1870 1475 m 2
 1870 771 l 1
 644 771 l 1
 644 341 l 2
 644 85 452 -16 250 0 c 1
 276 70 294 134 294 370 c 2
 294 1126 l 2
 294 1276 299 1500 100 1500 c 1
 100 1831 644 1888 644 1419 c 2
 644 1118 l 1
 902 1118 l 1
 903 1475 902 1492 795 1492 c 1
 795 1823 1252 1880 1252 1475 c 2
 1252 1118 l 1
 1520 1118 l 1
 1521 1474 1521 1492 1413 1492 c 1
 1413 1823 1870 1880 1870 1475 c 2
EndSplineSet
EndChar

StartChar: uni0664
Encoding: 156 1636 156
Width: 1462
Flags: W
LayerCount: 2
Fore
SplineSet
830 444 m 0
 1106 566 1245 504 1362 146 c 1
 1265 146 1149 115 1017 55 c 0
 601 -134 247 161 103 504 c 1
 196 504 264 655 452 888 c 1
 264 1102 193 1253 100 1253 c 1
 244 1596 598 1891 1014 1702 c 0
 1146 1642 1262 1611 1359 1611 c 1
 1242 1253 1103 1191 827 1313 c 0
 662 1386 501 1404 404 1316 c 1
 453 1249 492 1164 595 1012 c 1
 781 1012 l 2
 973 1012 1036 1022 1126 1056 c 1
 1142 854 1041 745 785 745 c 2
 586 745 l 1
 491 588 455 506 407 441 c 1
 504 353 665 371 830 444 c 0
EndSplineSet
EndChar

StartChar: uni0665
Encoding: 157 1637 157
Width: 1296
Flags: W
LayerCount: 2
Fore
SplineSet
100 1215 m 2
 100 1912 974 1855 1196 1516 c 1
 1196 529 l 2
 1196 51 780 -72 450 4 c 1
 450 0 l 1
 439 7 l 1
 294 43 166 118 101 218 c 1
 100 219 l 1
 100 1215 l 2
450 203 m 1
 668 213 847 290 846 594 c 2
 841 1538 l 1
 624 1531 450 1453 450 1150 c 2
 450 203 l 1
EndSplineSet
EndChar

StartChar: uni0666
Encoding: 158 1638 158
Width: 1361
Flags: W
LayerCount: 2
Fore
SplineSet
1217 370 m 2
 1217 134 1235 70 1261 0 c 1
 1059 -16 867 85 867 341 c 2
 867 1047 l 2
 867 1458 474 1586 100 1287 c 1
 173 1976 1217 1919 1217 1051 c 2
 1217 370 l 2
EndSplineSet
EndChar

StartChar: uni0667
Encoding: 159 1639 159
Width: 1971
Flags: W
LayerCount: 2
Fore
SplineSet
895 0 m 1
 889 74 869 135 779 353 c 2
 459 1127 l 2
 402 1264 306 1468 125 1384 c 1
 -14 1684 473 1973 653 1540 c 2
 986 738 l 1
 1318 1540 l 2
 1497 1973 1985 1684 1846 1384 c 1
 1665 1468 1569 1264 1512 1127 c 2
 1192 353 l 2
 1102 135 1082 74 1076 0 c 1
 1044 12 1013 27 986 44 c 1
 958 27 927 12 895 0 c 1
EndSplineSet
EndChar

StartChar: uni0668
Encoding: 160 1640 160
Width: 1971
Flags: W
LayerCount: 2
Fore
SplineSet
895 1760 m 1
 927 1748 958 1733 986 1716 c 1
 1013 1733 1044 1748 1076 1760 c 1
 1082 1686 1102 1625 1192 1407 c 2
 1512 633 l 2
 1569 496 1665 292 1846 376 c 1
 1985 76 1497 -213 1318 220 c 2
 986 1022 l 1
 653 220 l 2
 473 -213 -14 76 125 376 c 1
 306 292 402 496 459 633 c 2
 779 1407 l 2
 869 1625 889 1686 895 1760 c 1
EndSplineSet
EndChar

StartChar: uni0669
Encoding: 161 1641 161
Width: 1305
Flags: W
LayerCount: 2
Fore
SplineSet
100 1049 m 2
 100 1540 537 1919 1205 1693 c 1
 1205 341 l 2
 1205 85 1013 -16 811 0 c 1
 837 70 855 134 855 370 c 2
 855 701 l 1
 100 702 l 1
 100 1049 l 2
855 1049 m 1
 855 1360 l 1
 563 1421 260 1273 260 1049 c 1
 855 1049 l 1
EndSplineSet
EndChar

StartChar: asterisk
Encoding: 162 42 162
Width: 1316
Flags: W
LayerCount: 2
Fore
SplineSet
1021 1783 m 1
 1235 1783 1298 1563 1082 1483 c 0
 1016 1459 908 1472 793 1493 c 1
 832 1386 883 1319 964 1357 c 1
 1054 1163 882 1013 717 1175 c 0
 670 1221 638 1317 610 1423 c 1
 544 1341 518 1269 588 1220 c 1
 465 1045 248 1119 306 1343 c 0
 322 1403 382 1474 453 1547 c 1
 360 1549 295 1527 295 1447 c 1
 78 1445 18 1669 241 1748 c 0
 306 1771 411 1758 523 1737 c 1
 484 1844 433 1911 352 1873 c 1
 259 2069 436 2218 602 2049 c 0
 648 2003 679 1909 707 1806 c 1
 772 1887 798 1959 728 2008 c 1
 852 2187 1069 2109 1006 1880 c 0
 990 1822 934 1754 865 1684 c 1
 957 1682 1021 1704 1021 1783 c 1
EndSplineSet
EndChar

StartChar: backslash
Encoding: 163 92 163
Width: 1576
Flags: W
LayerCount: 2
Fore
SplineSet
923 169 m 2
 587 891 l 2
 398 1299 306 1503 126 1419 c 1
 -14 1719 456 2001 653 1576 c 2
 1116 583 l 2
 1180 447 1270 242 1450 326 c 1
 1590 26 1121 -256 923 169 c 2
EndSplineSet
EndChar

StartChar: colon
Encoding: 164 58 164
Width: 731
Flags: W
LayerCount: 2
Fore
SplineSet
366 554 m 1
 100 820 l 1
 366 1085 l 1
 631 820 l 1
 366 554 l 1
366 -46 m 1
 100 220 l 1
 366 485 l 1
 631 220 l 1
 366 -46 l 1
EndSplineSet
EndChar

StartChar: comma
Encoding: 165 44 165
Width: 622
Flags: W
LayerCount: 2
Fore
SplineSet
100 212 m 0
 99 384 227 471 522 432 c 1
 521 -133 l 2
 521 -346 278 -317 278 -169 c 1
 366 -169 362 -71 362 -2 c 2
 362 9 l 1
 199 -12 101 81 100 212 c 0
EndSplineSet
EndChar

StartChar: exclam
Encoding: 166 33 166
Width: 841
Flags: W
LayerCount: 2
Fore
SplineSet
250 360 m 1
 276 430 294 494 294 730 c 2
 294 1126 l 2
 294 1276 299 1500 100 1500 c 1
 100 1831 644 1888 644 1419 c 2
 644 701 l 2
 644 445 452 344 250 360 c 1
476 -282 m 1
 210 -16 l 1
 476 249 l 1
 741 -16 l 1
 476 -282 l 1
EndSplineSet
EndChar

StartChar: numbersign
Encoding: 167 35 167
Width: 1962
Flags: W
LayerCount: 2
Fore
SplineSet
1612 779 m 1
 1884 797 1955 535 1719 434 c 0
 1650 404 1494 413 1312 433 c 1
 1315 294 1344 207 1424 228 c 1
 1442 -44 1181 -115 1079 122 c 0
 1053 182 1057 308 1071 461 c 1
 983 472 895 482 812 490 c 1
 809 319 835 205 925 228 c 1
 943 -44 681 -115 580 122 c 0
 552 188 558 332 576 503 c 1
 429 502 337 474 358 391 c 1
 69 371 4 638 261 738 c 0
 322 762 450 757 604 741 c 1
 618 858 633 976 641 1083 c 1
 458 1089 334 1066 358 971 c 1
 69 951 4 1218 261 1318 c 0
 328 1344 474 1336 647 1317 c 1
 640 1432 609 1501 537 1482 c 1
 517 1771 784 1837 884 1580 c 0
 905 1526 904 1419 892 1288 c 1
 979 1278 1066 1267 1148 1259 c 1
 1147 1409 1119 1503 1036 1482 c 1
 1016 1771 1283 1837 1383 1580 c 0
 1406 1520 1402 1396 1387 1246 c 1
 1538 1247 1634 1275 1612 1359 c 1
 1884 1377 1955 1116 1719 1014 c 0
 1656 987 1522 992 1360 1008 c 1
 1346 893 1332 775 1322 667 c 1
 1509 660 1637 683 1612 779 c 1
828 716 m 1
 917 705 1009 693 1096 684 c 1
 1110 801 1126 922 1136 1034 c 1
 1047 1045 956 1056 868 1065 c 1
 855 950 839 829 828 716 c 1
EndSplineSet
EndChar

StartChar: period
Encoding: 168 46 168
Width: 731
Flags: W
LayerCount: 2
Fore
SplineSet
366 -6 m 1
 100 260 l 1
 366 525 l 1
 631 260 l 1
 366 -6 l 1
EndSplineSet
EndChar

StartChar: parenleft
Encoding: 169 40 169
Width: 938
Flags: W
LayerCount: 2
Fore
SplineSet
100 1169 m 1
 299 1169 294 1393 294 1453 c 2
 294 1689 l 2
 294 2158 838 2101 838 1770 c 1
 639 1770 644 1576 644 1456 c 2
 644 1250 l 2
 644 781 100 838 100 1169 c 1
838 -51 m 1
 838 -382 294 -439 294 30 c 2
 294 266 l 2
 294 326 299 550 100 550 c 1
 100 881 644 938 644 469 c 2
 644 263 l 2
 644 143 639 -51 838 -51 c 1
EndSplineSet
EndChar

StartChar: parenright
Encoding: 170 41 170
Width: 938
Flags: W
LayerCount: 2
Fore
SplineSet
838 1169 m 1
 838 838 294 781 294 1250 c 2
 294 1456 l 2
 294 1576 299 1770 100 1770 c 1
 100 2101 644 2158 644 1689 c 2
 644 1453 l 2
 644 1393 639 1169 838 1169 c 1
100 -51 m 1
 299 -51 294 143 294 263 c 2
 294 469 l 2
 294 938 838 881 838 550 c 1
 639 550 644 326 644 266 c 2
 644 30 l 2
 644 -439 100 -382 100 -51 c 1
EndSplineSet
EndChar

StartChar: uni060C
Encoding: 171 1548 171
Width: 622
Flags: W
LayerCount: 2
Fore
SplineSet
522 233 m 0
 523 61 395 -26 100 13 c 1
 101 578 l 2
 101 791 344 762 344 614 c 1
 256 614 260 516 260 447 c 2
 260 436 l 1
 423 457 521 364 522 233 c 0
EndSplineSet
EndChar

StartChar: uni061B
Encoding: 172 1563 172
Width: 731
Flags: W
LayerCount: 2
Fore
SplineSet
567 987 m 0
 568 815 440 728 145 767 c 1
 146 1332 l 2
 146 1545 389 1516 389 1368 c 1
 301 1368 305 1270 305 1201 c 2
 305 1190 l 1
 468 1211 566 1118 567 987 c 0
366 -6 m 1
 100 260 l 1
 366 525 l 1
 631 260 l 1
 366 -6 l 1
EndSplineSet
EndChar

StartChar: uni061F
Encoding: 173 1567 173
Width: 1222
Flags: W
LayerCount: 2
Fore
SplineSet
867 1403 m 0
 1012 1403 963 1644 747 1644 c 0
 316 1644 349 996 736 996 c 2
 1007 996 l 1
 1006 701 l 2
 1006 445 814 344 612 360 c 1
 638 430 656 494 656 730 c 2
 656 802 l 1
 546 802 l 2
 -50 802 -108 1780 739 1780 c 0
 983 1780 1116 1645 1122 1484 c 0
 1127 1343 1018 1215 867 1215 c 0
 783 1215 670 1268 670 1365 c 0
 670 1443 719 1498 791 1498 c 1
 791 1435 824 1403 867 1403 c 0
822 -282 m 1
 556 -16 l 1
 822 249 l 1
 1087 -16 l 1
 822 -282 l 1
EndSplineSet
EndChar

StartChar: uni066D
Encoding: 174 1645 174
Width: 1316
Flags: W
LayerCount: 2
Fore
SplineSet
1021 1783 m 1
 1235 1783 1298 1563 1082 1483 c 0
 1016 1459 908 1472 793 1493 c 1
 832 1386 883 1319 964 1357 c 1
 1054 1163 882 1013 717 1175 c 0
 670 1221 638 1317 610 1423 c 1
 544 1341 518 1269 588 1220 c 1
 465 1045 248 1119 306 1343 c 0
 322 1403 382 1474 453 1547 c 1
 360 1549 295 1527 295 1447 c 1
 78 1445 18 1669 241 1748 c 0
 306 1771 411 1758 523 1737 c 1
 484 1844 433 1911 352 1873 c 1
 259 2069 436 2218 602 2049 c 0
 648 2003 679 1909 707 1806 c 1
 772 1887 798 1959 728 2008 c 1
 852 2187 1069 2109 1006 1880 c 0
 990 1822 934 1754 865 1684 c 1
 957 1682 1021 1704 1021 1783 c 1
EndSplineSet
EndChar

StartChar: uniFD3E
Encoding: 175 64830 175
Width: 938
Flags: W
LayerCount: 2
Fore
SplineSet
100 1169 m 1
 299 1169 294 1393 294 1453 c 2
 294 1689 l 2
 294 2158 838 2101 838 1770 c 1
 639 1770 644 1576 644 1456 c 2
 644 1250 l 2
 644 781 100 838 100 1169 c 1
838 -51 m 1
 838 -382 294 -439 294 30 c 2
 294 266 l 2
 294 326 299 550 100 550 c 1
 100 881 644 938 644 469 c 2
 644 263 l 2
 644 143 639 -51 838 -51 c 1
EndSplineSet
EndChar

StartChar: uniFD3F
Encoding: 176 64831 176
Width: 938
Flags: W
LayerCount: 2
Fore
SplineSet
838 1169 m 1
 838 838 294 781 294 1250 c 2
 294 1456 l 2
 294 1576 299 1770 100 1770 c 1
 100 2101 644 2158 644 1689 c 2
 644 1453 l 2
 644 1393 639 1169 838 1169 c 1
100 -51 m 1
 299 -51 294 143 294 263 c 2
 294 469 l 2
 294 938 838 881 838 550 c 1
 639 550 644 326 644 266 c 2
 644 30 l 2
 644 -439 100 -382 100 -51 c 1
EndSplineSet
EndChar

StartChar: uni066A
Encoding: 177 1642 177
Width: 1576
Flags: W
LayerCount: 2
Fore
SplineSet
652 169 m 2
 454 -256 -15 26 125 326 c 1
 305 242 395 447 459 583 c 2
 922 1576 l 2
 1119 2001 1589 1719 1449 1419 c 1
 1269 1503 1177 1299 988 891 c 2
 652 169 l 2
367 1231 m 1
 102 1497 l 1
 367 1762 l 1
 633 1497 l 1
 367 1231 l 1
1208 -6 m 1
 943 260 l 1
 1208 525 l 1
 1474 260 l 1
 1208 -6 l 1
EndSplineSet
EndChar

StartChar: dotabove-ar
Encoding: 178 64434 178
Width: 0
GlyphClass: 4
Flags: W
LayerCount: 2
Fore
SplineSet
320 0 m 1
 100 220 l 1
 320 439 l 1
 539 220 l 1
 320 0 l 1
EndSplineSet
EndChar

StartChar: dotbelow-ar
Encoding: 179 64435 179
Width: 0
GlyphClass: 4
Flags: W
LayerCount: 2
Fore
SplineSet
320 -440 m 1
 100 -220 l 1
 320 -1 l 1
 539 -220 l 1
 320 -440 l 1
EndSplineSet
EndChar

StartChar: twodotshorizontalabove-ar
Encoding: 180 64436 180
Width: 0
GlyphClass: 4
Flags: W
LayerCount: 2
Fore
SplineSet
839 220 m 1
 620 0 l 1
 470 150 l 1
 320 0 l 1
 100 220 l 1
 320 439 l 1
 470 289 l 1
 620 439 l 1
 839 220 l 1
EndSplineSet
EndChar

StartChar: twodotshorizontalbelow-ar
Encoding: 181 64437 181
Width: 0
GlyphClass: 4
Flags: W
LayerCount: 2
Fore
SplineSet
839 -217 m 1
 620 -437 l 1
 470 -287 l 1
 320 -437 l 1
 100 -217 l 1
 320 2 l 1
 470 -148 l 1
 620 2 l 1
 839 -217 l 1
EndSplineSet
EndChar

StartChar: threedotsupabove-ar
Encoding: 182 64438 182
Width: 0
GlyphClass: 4
Flags: W
LayerCount: 2
Fore
SplineSet
650 570 m 1
 470 389 l 1
 289 570 l 1
 470 750 l 1
 650 570 l 1
839 220 m 1
 620 0 l 1
 470 150 l 1
 320 0 l 1
 100 220 l 1
 320 439 l 1
 470 289 l 1
 620 439 l 1
 839 220 l 1
EndSplineSet
EndChar

StartChar: uni0654
Encoding: 183 1620 183
Width: 0
GlyphClass: 4
Flags: W
LayerCount: 2
Fore
SplineSet
101 -30 m 1
 92 84 136 191 249 228 c 1
 130 423 246 720 507 685 c 0
 702 659 679 365 519 368 c 1
 488 481 314 455 314 356 c 0
 314 235 476 241 679 241 c 1
 665 18 589 0 453 0 c 2
 358 0 l 2
 194 0 149 -12 101 -30 c 1
EndSplineSet
EndChar

StartChar: uni0655
Encoding: 184 1621 184
Width: 0
GlyphClass: 4
Flags: W
LayerCount: 2
Fore
SplineSet
101 -715 m 1
 92 -601 136 -494 249 -457 c 1
 130 -262 246 35 507 0 c 0
 702 -26 679 -320 519 -317 c 1
 488 -204 314 -230 314 -329 c 0
 314 -450 476 -444 679 -444 c 1
 665 -667 589 -685 453 -685 c 2
 358 -685 l 2
 194 -685 149 -697 101 -715 c 1
EndSplineSet
EndChar

StartChar: uni064B
Encoding: 185 1611 185
Width: 0
GlyphClass: 4
Flags: MW
VStem: -1005 69
AnchorPoint: "Anchor-5" 410 631 basemark 0
AnchorPoint: "Anchor-5" 410 -108 mark 0
AnchorPoint: "Anchor-2" 410 -108 mark 0
AnchorPoint: "Anchor-1" 410 -108 mark 0
LayerCount: 2
Fore
SplineSet
791 546 m 1
 797 454 752 368 637 368 c 2
 153 368 l 2
 -59 368 -31 611 117 611 c 1
 117 523 216 526 284 526 c 2
 624 526 l 2
 730 526 758 532 791 546 c 1
791 178 m 1
 797 86 752 0 637 0 c 2
 153 0 l 2
 -59 0 -31 243 117 243 c 1
 117 155 216 159 284 159 c 2
 624 159 l 2
 730 159 758 165 791 178 c 1
EndSplineSet
EndChar

StartChar: uni064C
Encoding: 186 1612 186
Width: 0
GlyphClass: 4
Flags: W
AnchorPoint: "Anchor-5" 410 1031 basemark 0
AnchorPoint: "Anchor-5" 410 -108 mark 0
AnchorPoint: "Anchor-2" 410 -108 mark 0
AnchorPoint: "Anchor-1" 410 -108 mark 0
LayerCount: 2
Fore
SplineSet
499 941 m 0
 671 942 758 814 719 519 c 1
 154 520 l 2
 -59 520 -30 763 118 763 c 1
 118 675 216 679 285 679 c 2
 296 679 l 1
 275 842 368 940 499 941 c 0
581 679 m 1
 575 811 363 834 359 679 c 1
 581 679 l 1
498 421 m 0
 670 422 757 294 719 -1 c 1
 153 0 l 2
 -59 0 -30 243 117 243 c 1
 117 155 215 159 284 159 c 2
 295 159 l 1
 274 322 368 420 498 421 c 0
581 159 m 1
 575 291 363 314 358 159 c 1
 581 159 l 1
EndSplineSet
EndChar

StartChar: uni064D
Encoding: 187 1613 187
Width: 0
GlyphClass: 4
Flags: MW
VStem: -1005 69
AnchorPoint: "Anchor-4" 426 -711 basemark 0
AnchorPoint: "Anchor-4" 426 25 mark 0
AnchorPoint: "Anchor-3" 426 25 mark 0
AnchorPoint: "Anchor-0" 426 25 mark 0
LayerCount: 2
Fore
SplineSet
791 -65 m 1
 797 -157 752 -243 637 -243 c 2
 153 -243 l 2
 -59 -243 -31 0 117 0 c 1
 117 -88 216 -85 284 -85 c 2
 624 -85 l 2
 730 -85 758 -79 791 -65 c 1
791 -433 m 1
 797 -525 752 -611 637 -611 c 2
 153 -611 l 2
 -59 -611 -31 -368 117 -368 c 1
 117 -456 216 -452 284 -452 c 2
 624 -452 l 2
 730 -452 758 -446 791 -433 c 1
EndSplineSet
EndChar

StartChar: uni064E
Encoding: 188 1614 188
Width: 0
GlyphClass: 4
Flags: W
AnchorPoint: "Anchor-5" 410 261 basemark 0
AnchorPoint: "Anchor-5" 410 -108 mark 0
AnchorPoint: "Anchor-2" 410 -108 mark 0
AnchorPoint: "Anchor-1" 410 -108 mark 0
LayerCount: 2
Fore
SplineSet
791 178 m 1
 797 86 751 0 637 0 c 2
 153 0 l 2
 -60 0 -31 243 117 243 c 1
 117 155 215 159 284 159 c 2
 624 159 l 2
 729 159 758 165 791 178 c 1
EndSplineSet
EndChar

StartChar: uni064F
Encoding: 189 1615 189
Width: 0
GlyphClass: 4
Flags: W
AnchorPoint: "Anchor-5" 410 521 basemark 0
AnchorPoint: "Anchor-5" 410 -108 mark 0
AnchorPoint: "Anchor-2" 410 -108 mark 0
AnchorPoint: "Anchor-1" 410 -108 mark 0
LayerCount: 2
Fore
SplineSet
498 421 m 0
 670 422 757 294 718 -1 c 1
 153 0 l 2
 -60 0 -31 243 117 243 c 1
 117 155 215 159 284 159 c 2
 295 159 l 1
 274 322 367 420 498 421 c 0
580 159 m 1
 574 291 362 314 358 159 c 1
 580 159 l 1
EndSplineSet
EndChar

StartChar: uni0650
Encoding: 190 1616 190
Width: 0
GlyphClass: 4
Flags: W
AnchorPoint: "Anchor-4" 426 -359 basemark 0
AnchorPoint: "Anchor-4" 426 25 mark 0
AnchorPoint: "Anchor-3" 426 25 mark 0
AnchorPoint: "Anchor-0" 426 25 mark 0
LayerCount: 2
Fore
SplineSet
791 -65 m 1
 797 -157 751 -243 637 -243 c 2
 153 -243 l 2
 -60 -243 -31 0 117 0 c 1
 117 -88 215 -84 284 -84 c 2
 624 -84 l 2
 729 -84 758 -78 791 -65 c 1
EndSplineSet
EndChar

StartChar: uni0651
Encoding: 191 1617 191
Width: 0
GlyphClass: 4
Flags: W
AnchorPoint: "Anchor-5" 410 531 basemark 0
AnchorPoint: "Anchor-5" 410 -108 mark 0
AnchorPoint: "Anchor-2" 410 -108 mark 0
AnchorPoint: "Anchor-1" 410 -108 mark 0
LayerCount: 2
Fore
SplineSet
604 301 m 1
 604 454 814 479 814 293 c 2
 814 0 l 1
 50 0 l 1
 50 160 l 2
 50 292 51 299 0 299 c 1
 0 451 211 478 211 292 c 2
 211 160 l 1
 350 160 l 1
 350 292 349 299 302 299 c 1
 302 451 511 478 511 292 c 2
 511 160 l 1
 653 160 l 1
 653 292 656 301 604 301 c 1
EndSplineSet
EndChar

StartChar: uni0652
Encoding: 192 1618 192
Width: 0
GlyphClass: 4
Flags: W
AnchorPoint: "Anchor-5" 200 541 basemark 0
AnchorPoint: "Anchor-5" 200 -108 mark 0
AnchorPoint: "Anchor-2" 200 -108 mark 0
AnchorPoint: "Anchor-1" 200 -108 mark 0
LayerCount: 2
Fore
SplineSet
0 298 m 2
 0 484 325 469 407 379 c 1
 407 145 l 2
 407 17 251 -19 130 4 c 0
 73 15 23 36 0 61 c 1
 0 298 l 2
148 103 m 1
 209 105 260 121 259 181 c 2
 257 341 l 1
 196 339 148 323 148 263 c 2
 148 103 l 1
EndSplineSet
EndChar

StartChar: uni0653
Encoding: 193 1619 193
Width: 0
GlyphClass: 4
Flags: W
LayerCount: 2
Fore
SplineSet
133 -15 m 1
 -15 -16 -57 197 96 251 c 0
 233 299 519 112 519 275 c 1
 665 275 707 67 561 10 c 0
 425 -41 133 149 133 -15 c 1
EndSplineSet
EndChar

StartChar: uni0651064F
Encoding: 194 -1 194
Width: 0
GlyphClass: 4
Flags: W
AnchorPoint: "Anchor-5" 407 1159 basemark 0
AnchorPoint: "Anchor-5" 410 -108 mark 0
AnchorPoint: "Anchor-2" 410 -108 mark 0
AnchorPoint: "Anchor-1" 410 -108 mark 0
LayerCount: 2
Fore
SplineSet
538 1060 m 0
 710 1061 797 933 758 638 c 1
 193 639 l 2
 -20 639 9 882 157 882 c 1
 157 794 255 798 324 798 c 2
 335 798 l 1
 314 961 407 1059 538 1060 c 0
620 798 m 1
 614 930 402 953 398 798 c 1
 620 798 l 1
604 301 m 1
 604 454 814 479 814 293 c 2
 814 0 l 1
 50 0 l 1
 50 160 l 2
 50 292 51 299 0 299 c 1
 0 451 211 478 211 292 c 2
 211 160 l 1
 350 160 l 1
 350 292 349 299 302 299 c 1
 302 451 511 478 511 292 c 2
 511 160 l 1
 653 160 l 1
 653 292 656 301 604 301 c 1
EndSplineSet
Ligature2: "'ccmp' Glyph Composition/Decomposition in Arabic lookup 2 subtable" uni0651 uni064F
Ligature2: "'ccmp' Glyph Composition/Decomposition in Arabic lookup 2 subtable" uni064F uni0651
EndChar

StartChar: uni0651064C
Encoding: 195 -1 195
Width: 0
GlyphClass: 4
Flags: W
AnchorPoint: "Anchor-5" 407 1679 basemark 0
AnchorPoint: "Anchor-5" 410 -108 mark 0
AnchorPoint: "Anchor-2" 410 -108 mark 0
AnchorPoint: "Anchor-1" 410 -108 mark 0
LayerCount: 2
Fore
SplineSet
529 1580 m 0
 701 1581 788 1453 749 1158 c 1
 184 1159 l 2
 -29 1159 0 1402 148 1402 c 1
 148 1314 246 1318 315 1318 c 2
 326 1318 l 1
 305 1481 398 1579 529 1580 c 0
611 1318 m 1
 605 1450 393 1473 389 1318 c 1
 611 1318 l 1
528 1060 m 0
 700 1061 787 933 749 638 c 1
 183 639 l 2
 -29 639 0 882 147 882 c 1
 147 794 245 798 314 798 c 2
 325 798 l 1
 304 961 398 1059 528 1060 c 0
611 798 m 1
 605 930 393 953 388 798 c 1
 611 798 l 1
604 301 m 1
 604 454 814 479 814 293 c 2
 814 0 l 1
 50 0 l 1
 50 160 l 2
 50 292 51 299 0 299 c 1
 0 451 211 478 211 292 c 2
 211 160 l 1
 350 160 l 1
 350 292 349 299 302 299 c 1
 302 451 511 478 511 292 c 2
 511 160 l 1
 653 160 l 1
 653 292 656 301 604 301 c 1
EndSplineSet
Ligature2: "'ccmp' Glyph Composition/Decomposition in Arabic lookup 2 subtable" uni0651 uni064C
Ligature2: "'ccmp' Glyph Composition/Decomposition in Arabic lookup 2 subtable" uni064C uni0651
EndChar

StartChar: uni0651064E
Encoding: 196 -1 196
Width: 0
GlyphClass: 4
Flags: W
AnchorPoint: "Anchor-5" 407 909 basemark 0
AnchorPoint: "Anchor-5" 410 -108 mark 0
AnchorPoint: "Anchor-2" 410 -108 mark 0
AnchorPoint: "Anchor-1" 410 -108 mark 0
LayerCount: 2
Fore
SplineSet
791 817 m 1
 797 725 751 639 637 639 c 2
 153 639 l 2
 -60 639 -31 882 117 882 c 1
 117 794 215 798 284 798 c 2
 624 798 l 2
 729 798 758 804 791 817 c 1
604 301 m 1
 604 454 814 479 814 293 c 2
 814 0 l 1
 50 0 l 1
 50 160 l 2
 50 292 51 299 0 299 c 1
 0 451 211 478 211 292 c 2
 211 160 l 1
 350 160 l 1
 350 292 349 299 302 299 c 1
 302 451 511 478 511 292 c 2
 511 160 l 1
 653 160 l 1
 653 292 656 301 604 301 c 1
EndSplineSet
Ligature2: "'ccmp' Glyph Composition/Decomposition in Arabic lookup 2 subtable" uni0651 uni064E
Ligature2: "'ccmp' Glyph Composition/Decomposition in Arabic lookup 2 subtable" uni064E uni0651
EndChar

StartChar: uni0651064B.1
Encoding: 197 -1 197
Width: 0
GlyphClass: 4
Flags: MW
VStem: -1005 69
AnchorPoint: "Anchor-5" 407 1259 basemark 0
AnchorPoint: "Anchor-5" 410 -108 mark 0
AnchorPoint: "Anchor-2" 410 -108 mark 0
AnchorPoint: "Anchor-1" 410 -108 mark 0
LayerCount: 2
Fore
SplineSet
791 1185 m 1
 797 1093 752 1007 637 1007 c 2
 153 1007 l 2
 -59 1007 -31 1250 117 1250 c 1
 117 1162 216 1165 284 1165 c 2
 624 1165 l 2
 730 1165 758 1171 791 1185 c 1
791 817 m 1
 797 725 752 639 637 639 c 2
 153 639 l 2
 -59 639 -31 882 117 882 c 1
 117 794 216 798 284 798 c 2
 624 798 l 2
 730 798 758 804 791 817 c 1
604 299 m 1
 604 452 814 477 814 291 c 2
 814 -2 l 1
 50 -2 l 1
 50 158 l 2
 50 290 51 297 0 297 c 1
 0 449 211 476 211 290 c 2
 211 158 l 1
 350 158 l 1
 350 290 349 297 302 297 c 1
 302 449 511 476 511 290 c 2
 511 158 l 1
 653 158 l 1
 653 290 656 299 604 299 c 1
EndSplineSet
Ligature2: "'ccmp' Glyph Composition/Decomposition in Arabic lookup 2 subtable" uni0651 uni064B
Ligature2: "'ccmp' Glyph Composition/Decomposition in Arabic lookup 2 subtable" uni064B uni0651
EndChar

StartChar: uni06510650
Encoding: 198 -1 198
Width: 0
GlyphClass: 4
Flags: W
AnchorPoint: "Anchor-5" 407 522 basemark 0
AnchorPoint: "Anchor-5" 410 -438 mark 0
AnchorPoint: "Anchor-2" 410 -438 mark 0
AnchorPoint: "Anchor-1" 410 -438 mark 0
LayerCount: 2
Fore
SplineSet
604 299 m 1
 604 452 814 477 814 291 c 2
 814 -2 l 1
 50 -2 l 1
 50 158 l 2
 50 290 51 297 0 297 c 1
 0 449 211 476 211 290 c 2
 211 158 l 1
 350 158 l 1
 350 290 349 297 302 297 c 1
 302 449 511 476 511 290 c 2
 511 158 l 1
 653 158 l 1
 653 290 656 299 604 299 c 1
791 -165 m 1
 797 -257 751 -343 637 -343 c 2
 153 -343 l 2
 -60 -343 -31 -100 117 -100 c 1
 117 -188 215 -184 284 -184 c 2
 624 -184 l 2
 729 -184 758 -178 791 -165 c 1
EndSplineSet
Ligature2: "'ccmp' Glyph Composition/Decomposition in Arabic lookup 2 subtable" uni0651 uni0650
Ligature2: "'ccmp' Glyph Composition/Decomposition in Arabic lookup 2 subtable" uni0650 uni0651
EndChar

StartChar: uni0651064D
Encoding: 199 -1 199
Width: 0
GlyphClass: 4
Flags: MW
VStem: -1005 69
AnchorPoint: "Anchor-5" 407 522 basemark 0
AnchorPoint: "Anchor-5" 410 -811 mark 0
AnchorPoint: "Anchor-2" 410 -811 mark 0
AnchorPoint: "Anchor-1" 410 -811 mark 0
LayerCount: 2
Fore
SplineSet
604 301 m 1
 604 454 814 479 814 293 c 2
 814 0 l 1
 50 0 l 1
 50 160 l 2
 50 292 51 299 0 299 c 1
 0 451 211 478 211 292 c 2
 211 160 l 1
 350 160 l 1
 350 292 349 299 302 299 c 1
 302 451 511 478 511 292 c 2
 511 160 l 1
 653 160 l 1
 653 292 656 301 604 301 c 1
791 -165 m 1
 797 -257 752 -343 637 -343 c 2
 153 -343 l 2
 -59 -343 -31 -100 117 -100 c 1
 117 -188 216 -185 284 -185 c 2
 624 -185 l 2
 730 -185 758 -179 791 -165 c 1
791 -533 m 1
 797 -625 752 -711 637 -711 c 2
 153 -711 l 2
 -59 -711 -31 -468 117 -468 c 1
 117 -556 216 -552 284 -552 c 2
 624 -552 l 2
 730 -552 758 -546 791 -533 c 1
EndSplineSet
Ligature2: "'ccmp' Glyph Composition/Decomposition in Arabic lookup 2 subtable" uni0651 uni064D
Ligature2: "'ccmp' Glyph Composition/Decomposition in Arabic lookup 2 subtable" uni064D uni0651
EndChar

StartChar: slash
Encoding: 200 47 200
Width: 1576
Flags: W
LayerCount: 2
Fore
SplineSet
653 169 m 2
 455 -256 -14 26 126 326 c 1
 306 242 396 447 460 583 c 2
 923 1576 l 2
 1120 2001 1590 1719 1450 1419 c 1
 1270 1503 1178 1299 989 891 c 2
 653 169 l 2
EndSplineSet
EndChar

StartChar: quotedbl
Encoding: 201 34 201
Width: 743
Flags: W
LayerCount: 2
Fore
SplineSet
278 1333 m 1
 186 1327 100 1373 100 1487 c 2
 100 1971 l 2
 100 2184 343 2155 343 2007 c 1
 255 2007 259 1909 259 1840 c 2
 259 1500 l 2
 259 1395 265 1366 278 1333 c 1
578 1333 m 1
 486 1327 400 1373 400 1487 c 2
 400 1971 l 2
 400 2184 643 2155 643 2007 c 1
 555 2007 559 1909 559 1840 c 2
 559 1500 l 2
 559 1395 565 1366 578 1333 c 1
EndSplineSet
EndChar

StartChar: quotesingle
Encoding: 202 39 202
Width: 443
Flags: W
LayerCount: 2
Fore
SplineSet
278 1333 m 1
 186 1327 100 1373 100 1487 c 2
 100 1971 l 2
 100 2184 343 2155 343 2007 c 1
 255 2007 259 1909 259 1840 c 2
 259 1500 l 2
 259 1395 265 1366 278 1333 c 1
EndSplineSet
EndChar

StartChar: underscore
Encoding: 203 95 203
Width: 1628
Flags: W
LayerCount: 2
Fore
SplineSet
100 164 m 1
 1528 164 l 1
 1528 0 l 1
 100 0 l 1
 100 164 l 1
EndSplineSet
EndChar

StartChar: hyphen
Encoding: 204 45 204
Width: 1308
Flags: W
LayerCount: 2
Fore
SplineSet
308 971 m 2
 156 971 85 877 103 654 c 1
 147 672 186 680 325 680 c 2
 1002 680 l 2
 1154 680 1215 774 1207 997 c 1
 1163 979 1124 971 985 971 c 2
 308 971 l 2
EndSplineSet
EndChar

StartChar: guillemotleft
Encoding: 205 171 205
Width: 1810
Flags: W
LayerCount: 2
Fore
SplineSet
100 549 m 1
 108 570 118 592 130 611 c 1
 118 629 108 650 100 672 c 1
 151 676 150 647 273 751 c 0
 601 1028 757 1084 704 1198 c 1
 909 1293 1058 1040 811 837 c 2
 536 611 l 1
 811 383 l 2
 1057 179 909 -73 704 22 c 1
 757 137 601 189 273 469 c 0
 150 574 151 544 100 549 c 1
870 549 m 1
 878 570 888 592 900 611 c 1
 888 629 878 650 870 672 c 1
 921 676 920 647 1043 751 c 0
 1371 1028 1527 1084 1474 1198 c 1
 1679 1293 1828 1040 1581 837 c 2
 1306 611 l 1
 1581 383 l 2
 1827 179 1679 -73 1474 22 c 1
 1527 137 1371 189 1043 469 c 0
 920 574 921 544 870 549 c 1
EndSplineSet
EndChar

StartChar: guillemotright
Encoding: 206 187 206
Width: 1810
Flags: W
LayerCount: 2
Fore
SplineSet
940 549 m 1
 889 544 890 574 767 469 c 0
 439 189 283 137 336 22 c 1
 131 -73 -17 179 229 383 c 2
 504 611 l 1
 229 837 l 2
 -18 1040 131 1293 336 1198 c 1
 283 1084 439 1028 767 751 c 0
 890 647 889 676 940 672 c 1
 932 650 922 629 910 611 c 1
 922 592 932 570 940 549 c 1
1710 549 m 1
 1659 544 1660 574 1537 469 c 0
 1209 189 1053 137 1106 22 c 1
 901 -73 753 179 999 383 c 2
 1274 611 l 1
 999 837 l 2
 752 1040 901 1293 1106 1198 c 1
 1053 1084 1209 1028 1537 751 c 0
 1660 647 1659 676 1710 672 c 1
 1702 650 1692 629 1680 611 c 1
 1692 592 1702 570 1710 549 c 1
EndSplineSet
EndChar

StartChar: guilsinglleft
Encoding: 207 8249 207
Width: 1040
Flags: W
LayerCount: 2
Fore
SplineSet
100 549 m 1
 108 570 118 592 130 611 c 1
 118 629 108 650 100 672 c 1
 151 676 150 647 273 751 c 0
 601 1028 757 1084 704 1198 c 1
 909 1293 1058 1040 811 837 c 2
 536 611 l 1
 811 383 l 2
 1057 179 909 -73 704 22 c 1
 757 137 601 189 273 469 c 0
 150 574 151 544 100 549 c 1
EndSplineSet
EndChar

StartChar: guilsinglright
Encoding: 208 8250 208
Width: 1040
Flags: W
LayerCount: 2
Fore
SplineSet
940 549 m 1
 889 544 890 574 767 469 c 0
 439 189 283 137 336 22 c 1
 131 -73 -17 179 229 383 c 2
 504 611 l 1
 229 837 l 2
 -18 1040 131 1293 336 1198 c 1
 283 1084 439 1028 767 751 c 0
 890 647 889 676 940 672 c 1
 932 650 922 629 910 611 c 1
 922 592 932 570 940 549 c 1
EndSplineSet
EndChar

StartChar: divide
Encoding: 209 247 209
Width: 1308
Flags: W
LayerCount: 2
Fore
SplineSet
655 1097 m 1
 389 1363 l 1
 655 1628 l 1
 920 1363 l 1
 655 1097 l 1
308 971 m 2
 156 971 85 877 103 654 c 1
 147 672 186 680 325 680 c 2
 1002 680 l 2
 1154 680 1215 774 1207 997 c 1
 1163 979 1124 971 985 971 c 2
 308 971 l 2
655 -3 m 1
 389 263 l 1
 655 528 l 1
 920 263 l 1
 655 -3 l 1
EndSplineSet
EndChar

StartChar: equal
Encoding: 210 61 210
Width: 1308
Flags: W
LayerCount: 2
Fore
SplineSet
308 971 m 2
 156 971 85 877 103 654 c 1
 147 672 186 680 325 680 c 2
 1002 680 l 2
 1154 680 1215 774 1207 997 c 1
 1163 979 1124 971 985 971 c 2
 308 971 l 2
308 561 m 2
 156 561 85 467 103 244 c 1
 147 262 186 270 325 270 c 2
 1002 270 l 2
 1154 270 1215 364 1207 587 c 1
 1163 569 1124 561 985 561 c 2
 308 561 l 2
EndSplineSet
EndChar

StartChar: minus
Encoding: 211 8722 211
Width: 1308
Flags: W
LayerCount: 2
Fore
SplineSet
308 971 m 2
 156 971 85 877 103 654 c 1
 147 672 186 680 325 680 c 2
 1002 680 l 2
 1154 680 1215 774 1207 997 c 1
 1163 979 1124 971 985 971 c 2
 308 971 l 2
EndSplineSet
EndChar

StartChar: multiply
Encoding: 212 215 212
Width: 1264
Flags: W
LayerCount: 2
Fore
SplineSet
1096 384 m 2
 1204 277 1187 160 1016 15 c 1
 998 58 976 92 878 190 c 2
 632 437 l 1
 386 190 l 2
 288 92 266 58 248 15 c 1
 77 160 60 277 168 384 c 2
 427 643 l 1
 166 905 l 2
 59 1012 82 1122 245 1274 c 1
 264 1230 285 1196 383 1097 c 2
 632 848 l 1
 881 1097 l 2
 979 1196 1000 1230 1019 1274 c 1
 1182 1122 1205 1012 1098 905 c 2
 837 643 l 1
 1096 384 l 2
EndSplineSet
EndChar

StartChar: plus
Encoding: 213 43 213
Width: 1208
Flags: W
LayerCount: 2
Fore
SplineSet
1207 727 m 1
 1215 504 1154 410 1002 410 c 2
 799 410 l 1
 799 225 l 2
 799 86 807 47 825 3 c 1
 602 -5 508 56 508 208 c 2
 508 410 l 1
 325 410 l 2
 186 410 147 402 103 384 c 1
 85 607 156 701 308 701 c 2
 508 701 l 1
 508 885 l 2
 508 1024 500 1063 482 1107 c 1
 705 1125 799 1054 799 902 c 2
 799 701 l 1
 985 701 l 2
 1124 701 1163 709 1207 727 c 1
EndSplineSet
EndChar

StartChar: bracketleft
Encoding: 214 91 214
Width: 744
Flags: W
LayerCount: 2
Fore
SplineSet
644 1770 m 1
 445 1770 450 1546 450 1396 c 2
 450 327 l 2
 450 177 445 -47 644 -47 c 1
 644 -378 100 -435 100 34 c 2
 100 1689 l 2
 100 2158 644 2101 644 1770 c 1
EndSplineSet
EndChar

StartChar: bracketright
Encoding: 215 93 215
Width: 744
Flags: W
LayerCount: 2
Fore
SplineSet
100 1770 m 1
 100 2101 644 2158 644 1689 c 2
 644 34 l 2
 644 -435 100 -378 100 -47 c 1
 299 -47 294 177 294 327 c 2
 294 1396 l 2
 294 1546 299 1770 100 1770 c 1
EndSplineSet
EndChar

StartChar: uni06a9
Encoding: 216 1705 216
Width: 2258
Flags: W
HStem: 0 347<407.257 1811.69> 858 202<364.358 817.228>
AnchorPoint: "Anchor-1" 945 1320 basechar 0
AnchorPoint: "Anchor-0" 948 -226 basechar 0
LayerCount: 2
Fore
SplineSet
1695.53125 1757.265625 m 0
 1841 1760.75 2005 1722.5 2177 1638 c 1
 2124 1456 2084 1336 1949 1385 c 0
 1847 1422 1239 1537 1271 1060 c 1
 1880 1160 2328 903 2153 0 c 1
 1008 0 l 1
 722 0 l 2
 502 0 349 45 250 133 c 0
 92 271 82 534 114 685 c 0
 161 898 323 1060 570 1060 c 0
 1055 1060 1011 454 658 454 c 0
 520 454 422 541 422 669 c 1
 625 669 655 858 463 858 c 0
 407 858 344 826 303 766 c 0
 233 661 238 477 372 404 c 0
 450 361 568 348 718 347 c 2
 1008 347 l 1
 1808 347 l 1
 1848 665 1592 821 1171 721 c 1
 989.5 1360.75 1259.125 1746.8125 1695.53125 1757.265625 c 0
EndSplineSet
Substitution2: "'init' Initial Forms in Arabic lookup 3 subtable" uniFB90
Substitution2: "'medi' Medial Forms in Arabic lookup 4 subtable" uniFB91
Substitution2: "'fina' Terminal Forms in Arabic lookup 5 subtable" uniFB8F
EndChar

StartChar: uniFB8F
Encoding: 217 64399 217
Width: 2349
Flags: W
HStem: 0 347<407.257 1774.69 2154 2457> 858 202<364.358 817.228>
VStem: 1771 383<347 583.512>
AnchorPoint: "Anchor-1" 945 1320 basechar 0
AnchorPoint: "Anchor-0" 948 -226 basechar 0
LayerCount: 2
Fore
SplineSet
1658.53125 1757.265625 m 0
 1804 1760.75 1968 1722.5 2140 1638 c 1
 2087 1456 2047 1336 1912 1385 c 0
 1810 1422 1202 1537 1234 1060 c 1
 1756 1146 2160 969 2154 347 c 1
 2449 347 l 1
 2457 347 l 1
 2457 0 l 1
 2449 0 l 1
 971 0 l 1
 722 0 l 2
 502 0 349 45 250 133 c 0
 92 271 82 534 114 685 c 0
 161 898 323 1060 570 1060 c 0
 1055 1060 1011 454 658 454 c 0
 520 454 422 541 422 669 c 1
 625 669 655 858 463 858 c 0
 407 858 344 826 303 766 c 0
 233 661 238 477 372 404 c 0
 450 361 568 348 718 347 c 2
 971 347 l 1
 1771 347 l 1
 1811 665 1555 821 1134 721 c 1
 952.5 1360.75 1222.125 1746.8125 1658.53125 1757.265625 c 0
EndSplineSet
EndChar

StartChar: uniFB91
Encoding: 218 64401 218
Width: 1379
Flags: W
HStem: 0 347<-7 796.687 1176 1479>
VStem: 793 383<347 583.512>
AnchorPoint: "Anchor-1" 645 1860 basechar 0
AnchorPoint: "Anchor-0" 648 -226 basechar 0
LayerCount: 2
Fore
SplineSet
1176 347 m 1
 1479 347 l 1
 1479 0 l 1
 -7 0 l 1
 -7 347 l 1
 793 347 l 1
 833 665 577 821 156 721 c 1
 -86 1574 474 1976 1162 1638 c 1
 1109 1456 1069 1336 934 1385 c 0
 832 1422 224 1537 256 1060 c 1
 778 1146 1182 969 1176 347 c 1
EndSplineSet
EndChar

StartChar: uniFB90
Encoding: 219 64400 219
Width: 1283
Flags: W
HStem: 0 347<0 803.687>
AnchorPoint: "Anchor-1" 645 1860 basechar 0
AnchorPoint: "Anchor-0" 648 -226 basechar 0
LayerCount: 2
Fore
SplineSet
0 0 m 1
 0 347 l 1
 800 347 l 1
 840 665 584 821 163 721 c 1
 -79 1574 481 1976 1169 1638 c 1
 1116 1456 1076 1336 941 1385 c 0
 839 1422 231 1537 263 1060 c 1
 872 1160 1320 903 1145 0 c 1
 0 0 l 1
EndSplineSet
EndChar

StartChar: uni0762
Encoding: 220 1890 220
Width: 2258
Flags: W
HStem: 0 347<407.257 1811.69> 858 202<364.358 817.228>
AnchorPoint: "Anchor-1" 945 1830 basechar 0
AnchorPoint: "Anchor-0" 948 -226 basechar 0
LayerCount: 2
Fore
SplineSet
986 1423 m 1
 767 1203 l 1
 547 1423 l 1
 767 1642 l 1
 986 1423 l 1
1695.53125 1757.265625 m 0
 1841 1760.75 2005 1722.5 2177 1638 c 1
 2124 1456 2084 1336 1949 1385 c 0
 1847 1422 1239 1537 1271 1060 c 1
 1880 1160 2328 903 2153 0 c 1
 1008 0 l 1
 722 0 l 2
 502 0 349 45 250 133 c 0
 92 271 82 534 114 685 c 0
 161 898 323 1060 570 1060 c 0
 1055 1060 1011 454 658 454 c 0
 520 454 422 541 422 669 c 1
 625 669 655 858 463 858 c 0
 407 858 344 826 303 766 c 0
 233 661 238 477 372 404 c 0
 450 361 568 348 718 347 c 2
 1008 347 l 1
 1808 347 l 1
 1848 665 1592 821 1171 721 c 1
 989.5 1360.75 1259.125 1746.8125 1695.53125 1757.265625 c 0
EndSplineSet
Substitution2: "'init' Initial Forms in Arabic lookup 3 subtable" uni0762.init
Substitution2: "'medi' Medial Forms in Arabic lookup 4 subtable" uni0762.medi
Substitution2: "'fina' Terminal Forms in Arabic lookup 5 subtable" uni0762.fina
EndChar

StartChar: uni0762.fina
Encoding: 221 -1 221
Width: 2349
Flags: W
HStem: 0 347<407.257 1774.69 2154 2457> 858 202<364.358 817.228>
VStem: 1771 383<347 583.512>
AnchorPoint: "Anchor-1" 945 1830 basechar 0
AnchorPoint: "Anchor-0" 948 -226 basechar 0
LayerCount: 2
Fore
SplineSet
986 1423 m 5
 767 1203 l 5
 547 1423 l 5
 767 1642 l 5
 986 1423 l 5
1658.53125 1757.265625 m 0
 1804 1760.75 1968 1722.5 2140 1638 c 1
 2087 1456 2047 1336 1912 1385 c 0
 1810 1422 1202 1537 1234 1060 c 1
 1756 1146 2160 969 2154 347 c 1
 2449 347 l 1
 2457 347 l 1
 2457 0 l 1
 2449 0 l 1
 971 0 l 1
 722 0 l 2
 502 0 349 45 250 133 c 0
 92 271 82 534 114 685 c 0
 161 898 323 1060 570 1060 c 0
 1055 1060 1011 454 658 454 c 0
 520 454 422 541 422 669 c 1
 625 669 655 858 463 858 c 0
 407 858 344 826 303 766 c 0
 233 661 238 477 372 404 c 0
 450 361 568 348 718 347 c 2
 971 347 l 1
 1771 347 l 1
 1811 665 1555 821 1134 721 c 1
 952.5 1360.75 1222.125 1746.8125 1658.53125 1757.265625 c 0
EndSplineSet
EndChar

StartChar: uni0762.medi
Encoding: 222 -1 222
Width: 1379
Flags: W
HStem: 0 347<-7 796.687 1176 1479>
VStem: 793 383<347 583.512>
AnchorPoint: "Anchor-1" 645 1860 basechar 0
AnchorPoint: "Anchor-0" 648 -226 basechar 0
LayerCount: 2
Fore
SplineSet
333 1858 m 5
 114 1638 l 5
 -106 1858 l 5
 114 2077 l 5
 333 1858 l 5
1176 347 m 1
 1479 347 l 1
 1479 0 l 1
 -7 0 l 1
 -7 347 l 1
 793 347 l 1
 833 665 577 821 156 721 c 1
 -86 1574 474 1976 1162 1638 c 1
 1109 1456 1069 1336 934 1385 c 0
 832 1422 224 1537 256 1060 c 1
 778 1146 1182 969 1176 347 c 1
EndSplineSet
EndChar

StartChar: uni0762.init
Encoding: 223 -1 223
Width: 1283
Flags: W
HStem: 0 347<0 803.687>
AnchorPoint: "Anchor-1" 645 1860 basechar 0
AnchorPoint: "Anchor-0" 648 -226 basechar 0
LayerCount: 2
Fore
SplineSet
333 1858 m 5
 114 1638 l 5
 -106 1858 l 5
 114 2077 l 5
 333 1858 l 5
0 0 m 1
 0 347 l 1
 800 347 l 1
 840 665 584 821 163 721 c 1
 -79 1574 481 1976 1169 1638 c 1
 1116 1456 1076 1336 941 1385 c 0
 839 1422 231 1537 263 1060 c 1
 872 1160 1320 903 1145 0 c 1
 0 0 l 1
EndSplineSet
EndChar

StartChar: uni06A0
Encoding: 224 1696 224
Width: 1573
Flags: W
HStem: -906 166<613.903 1002.66> 0 347<693.957 1225.06>
VStem: 100 363<-570.133 -191.573>
AnchorPoint: "Anchor-1" 787 2052 basechar 0
AnchorPoint: "Anchor-0" 768 -1007 basechar 0
LayerCount: 2
Fore
SplineSet
969 1773 m 5
 789 1592 l 5
 608 1773 l 5
 789 1953 l 5
 969 1773 l 5
789 1353 m 5
 639 1203 l 5
 419 1423 l 5
 639 1642 l 5
 789 1492 l 5
 939 1642 l 5
 1158 1423 l 5
 939 1203 l 5
 789 1353 l 5
1242 -148 m 0
 1400 -165 1490 -303 1470 -478 c 0
 1434 -781 1158 -906 810 -906 c 0
 420 -906 100 -740 100 -344 c 0
 100 -59 224 134 455 242 c 1
 283 408 216 548 127 548 c 1
 271 891 624 1184 1041 997 c 0
 1173 937 1289 906 1386 906 c 1
 1269 548 1128 481 854 608 c 0
 689 681 528 699 431 611 c 1
 484 539 522 446 644 306 c 1
 760 333 892 347 1041 347 c 0
 1233 347 1296 357 1386 391 c 1
 1402 189 1301 0 1045 0 c 2
 1040 0 l 2
 668 0 463 -85 463 -387 c 0
 463 -530 519 -740 797 -740 c 0
 991 -740 1105 -671 1105 -517 c 0
 1105 -426 1042 -360 971 -389 c 1
 960 -220 1079 -130 1242 -148 c 0
EndSplineSet
Substitution2: "'init' Initial Forms in Arabic lookup 3 subtable" uni06A0.init
Substitution2: "'medi' Medial Forms in Arabic lookup 4 subtable" uni06A0.medi
Substitution2: "'fina' Terminal Forms in Arabic lookup 5 subtable" uni06A0.fina
EndChar

StartChar: uni06A0.fina
Encoding: 225 -1 225
Width: 1495
Flags: W
HStem: -906 166<613.903 1002.66> 0 347<718.23 1595>
VStem: 100 363<-570.133 -192.145>
AnchorPoint: "Anchor-1" 787 2052 basechar 0
AnchorPoint: "Anchor-0" 768 -1007 basechar 0
LayerCount: 2
Fore
SplineSet
969 1773 m 5
 789 1592 l 5
 608 1773 l 5
 789 1953 l 5
 969 1773 l 5
789 1353 m 5
 639 1203 l 5
 419 1423 l 5
 639 1642 l 5
 789 1492 l 5
 939 1642 l 5
 1158 1423 l 5
 939 1203 l 5
 789 1353 l 5
1243 0 m 2
 777 0 463 -16 463 -387 c 0
 463 -530 519 -740 797 -740 c 0
 991 -740 1105 -671 1105 -517 c 0
 1105 -426 1042 -360 971 -389 c 1
 960 -220 1079 -130 1242 -148 c 0
 1400 -165 1490 -303 1470 -478 c 0
 1434 -781 1158 -906 810 -906 c 0
 420 -906 100 -740 100 -344 c 0
 100 -59 224 134 455 242 c 1
 283 408 216 548 127 548 c 1
 271 891 624 1184 1041 997 c 0
 1173 937 1289 906 1386 906 c 1
 1269 548 1128 481 854 608 c 0
 689 681 528 699 431 611 c 1
 484 539 522 446 644 306 c 1
 760 334 894 347 1043 347 c 2
 1595 347 l 1
 1595 0 l 1
 1243 0 l 2
EndSplineSet
EndChar

StartChar: uni06A0.medi
Encoding: 226 -1 226
Width: 1445
Flags: W
HStem: 0 347<0 335 556.715 1545>
AnchorPoint: "Anchor-1" 765 2020 basechar 0
AnchorPoint: "Anchor-0" 768 -226 basechar 0
LayerCount: 2
Fore
SplineSet
969 1773 m 5
 789 1592 l 5
 608 1773 l 5
 789 1953 l 5
 969 1773 l 5
789 1353 m 5
 639 1203 l 5
 419 1423 l 5
 639 1642 l 5
 789 1492 l 5
 939 1642 l 5
 1158 1423 l 5
 939 1203 l 5
 789 1353 l 5
590 347 m 1
 1545 347 l 1
 1545 0 l 1
 0 0 l 1
 0 347 l 1
 335 347 l 1
 232 463 177 548 107 548 c 1
 251 891 604 1184 1021 997 c 0
 1153 937 1269 906 1366 906 c 1
 1249 548 1108 481 834 608 c 0
 669 681 508 699 411 611 c 1
 459 546 494 464 590 347 c 1
EndSplineSet
EndChar

StartChar: uni06A0.init
Encoding: 227 -1 227
Width: 1466
Flags: W
HStem: 0 347<0 335 556.715 1202.06>
AnchorPoint: "Anchor-1" 765 2020 basechar 0
AnchorPoint: "Anchor-0" 768 -226 basechar 0
LayerCount: 2
Fore
SplineSet
969 1773 m 5
 789 1592 l 5
 608 1773 l 5
 789 1953 l 5
 969 1773 l 5
789 1353 m 5
 639 1203 l 5
 419 1423 l 5
 639 1642 l 5
 789 1492 l 5
 939 1642 l 5
 1158 1423 l 5
 939 1203 l 5
 789 1353 l 5
1018 347 m 2
 1210 347 1273 357 1363 391 c 1
 1379 189 1278 0 1022 0 c 2
 0 0 l 1
 0 347 l 1
 335 347 l 1
 232 463 177 548 107 548 c 1
 251 891 604 1184 1021 997 c 0
 1153 937 1269 906 1366 906 c 1
 1249 548 1108 481 834 608 c 0
 669 681 508 699 411 611 c 1
 459 546 494 464 590 347 c 1
 1018 347 l 2
EndSplineSet
EndChar

StartChar: uni0686
Encoding: 228 1670 228
Width: 1569
Flags: W
HStem: -906 166<515 987> 0 347<806 1039>
VStem: 96 363<-635 63>
AnchorPoint: "Anchor-1" 765 1180 basechar 0
AnchorPoint: "Anchor-0" 768 -1007 basechar 0
LayerCount: 2
Fore
SplineSet
793 -906 m 0
 422 -906.552734375 96 -740 96 -344 c 0
 96 128 435 347 1039 347 c 1
 1078 758 481 886 153 459 c 1
 153 834 441 1060 797 1060 c 0
 1230 1060 1488 772 1388 0 c 1
 806 0 459 -2 459 -387 c 0
 459 -530 515 -740 793 -740 c 0
 987 -740 1098.234375 -670.975585938 1101 -517 c 0
 1101.72363281 -476.685546875 1114.7421875 -360.715820312 1169.20605469 -315.119140625 c 0
 1264.20800781 -235.584960938 1451.00683594 -223.666992188 1469.91601562 -408.928710938 c 1
 1473.29199219 -517.064453125 1441.66699219 -642.53125 1345.890625 -735.098632812 c 0
 1267.35351562 -810.090820312 1122.04296875 -905.509765625 793 -906 c 0
939.158203125 -518.94921875 m 1
 818.140625 -639.966796875 l 1
 696.450195312 -518.94921875 l 1
 818.140625 -397.258789062 l 1
 939.158203125 -518.94921875 l 1
818.8125 -282.96484375 m 1
 966.05078125 -135.7265625 l 1
 1113.2890625 -283.63671875 l 1
 966.05078125 -430.875 l 1
 818.8125 -283.63671875 l 1
 671.575195312 -430.875 l 1
 523.6640625 -283.63671875 l 1
 671.575195312 -135.7265625 l 1
 818.8125 -282.96484375 l 1
793 -906 m 0
 422 -906.552734375 96 -740 96 -344 c 0
 96 128 435 347 1039 347 c 1
 1078 758 481 886 153 459 c 1
 153 834 441 1060 797 1060 c 0
 1230 1060 1488 772 1388 0 c 1
 806 0 459 -2 459 -387 c 0
 459 -530 515 -740 793 -740 c 0
 987 -740 1098.234375 -670.975585938 1101 -517 c 0
 1101.72363281 -476.685546875 1114.7421875 -360.715820312 1169.20605469 -315.119140625 c 0
 1264.20800781 -235.584960938 1451.00683594 -223.666992188 1469.91601562 -408.928710938 c 1
 1473.29199219 -517.064453125 1441.66699219 -642.53125 1345.890625 -735.098632812 c 0
 1267.35351562 -810.090820312 1122.04296875 -905.509765625 793 -906 c 0
EndSplineSet
Substitution2: "'init' Initial Forms in Arabic lookup 3 subtable" uniFB7C
Substitution2: "'medi' Medial Forms in Arabic lookup 4 subtable" uniFB7D
Substitution2: "'fina' Terminal Forms in Arabic lookup 5 subtable" uniFB7B
EndChar

StartChar: uniFB7B
Encoding: 229 64379 229
Width: 1615
Flags: W
HStem: -0.5625 347.562<731.235 1045.87 1413 1715>
VStem: 1043 370<347 545.182> 1118.95 353.873<-622.64 -326.927>
AnchorPoint: "Anchor-1" 765 1180 basechar 0
AnchorPoint: "Anchor-0" 768 -1007 basechar 0
LayerCount: 2
Fore
SplineSet
801 1060 m 0xc0
 932.73046875 1060.10546875 1069.78515625 1032.0859375 1176.59179688 950.98046875 c 0
 1360.30664062 810.935546875 1407.9296875 565.321289062 1413 347 c 1xc0
 1513.66699219 347 1614.33300781 347 1715 347 c 1
 1715 231.333007812 1715 115.666992188 1715 -0 c 1
 1547.39648438 -0.1669921875 1379.79101562 0.4384765625 1212.18945312 -0.5625 c 1
 1012.34863281 -7.4951171875 799.805664062 3.6318359375 616.037109375 -88.0791015625 c 0
 492.333007812 -150.359375 450.901367188 -299.774414062 464.61328125 -428.756835938 c 1
 469.350585938 -562.793945312 553.1953125 -701.685546875 692.427734375 -728.311523438 c 0
 808.358398438 -750.099609375 944.09765625 -748.162109375 1040.69335938 -672.129882812 c 0
 1118.76953125 -609.869140625 1096.64746094 -503.420898438 1118.95019531 -418.040039062 c 1
 1133.69824219 -314.133789062 1242.09277344 -252.137695312 1340.56640625 -261.190429688 c 1
 1438.72753906 -265.52734375 1488.12597656 -373.399414062 1472.82324219 -460.696289062 c 1xa0
 1466.03222656 -626.737304688 1351.30371094 -774.41796875 1198.74804688 -835.349609375 c 0
 1003.36328125 -915.120117188 782.681640625 -921.58984375 576.849609375 -884.71875 c 0
 379.629882812 -848.673828125 182.98046875 -722.921875 125.375976562 -521.598632812 c 0
 62.46875 -291.333007812 113.129882812 -13.7958984375 301.927734375 144.948242188 c 0
 507.715820312 314.2265625 786.0078125 344.875976562 1043 347 c 1
 1063.53710938 492.979492188 971.885742188 640.6796875 833.904296875 690.541992188 c 1
 593.265625 785.129882812 315.7265625 666.358398438 164.736328125 468.90625 c 1
 145.456054688 507.4140625 175.805664062 642.608398438 207.5625 711.109375 c 0
 304.719726562 940.610351562 560.131835938 1064.98144531 801 1060 c 0xc0
943.158203125 -518.94921875 m 1
 822.140625 -639.966796875 l 1
 700.450195312 -518.94921875 l 1
 822.140625 -397.258789062 l 1
 943.158203125 -518.94921875 l 1
822.8125 -282.96484375 m 1
 970.05078125 -135.7265625 l 1
 1117.2890625 -283.63671875 l 1
 970.05078125 -430.875 l 1
 822.8125 -283.63671875 l 1
 675.57421875 -430.875 l 1
 527.6640625 -283.63671875 l 1
 675.57421875 -135.7265625 l 1
 822.8125 -282.96484375 l 1
EndSplineSet
EndChar

StartChar: uniFB7D
Encoding: 230 64381 230
Width: 1562
Flags: W
HStem: 0 347<0 986 1358 1662>
AnchorPoint: "Anchor-0" 768 -1086 basechar 0
AnchorPoint: "Anchor-1" 765 1180 basechar 0
LayerCount: 2
Fore
SplineSet
964 -760 m 5
 784 -579 l 5
 603 -760 l 5
 784 -940 l 5
 964 -760 l 5
784 -340 m 5
 634 -190 l 5
 414 -410 l 5
 634 -629 l 5
 784 -479 l 5
 934 -629 l 5
 1153 -410 l 5
 934 -190 l 5
 784 -340 l 5
1358 347 m 1
 1662 347 l 1
 1662 0 l 1
 0 0 l 1
 0 347 l 1
 986 347 l 1
 986 758 463 886 100 459 c 1
 126 834 388 1060 744 1060 c 0
 1125 1060 1351 860 1358 347 c 1
EndSplineSet
EndChar

StartChar: uniFB7C
Encoding: 231 64380 231
Width: 1458
Flags: W
HStem: 0 347<0 986>
AnchorPoint: "Anchor-1" 765 1180 basechar 0
AnchorPoint: "Anchor-0" 768 -1086 basechar 0
LayerCount: 2
Fore
SplineSet
964 -760 m 5
 784 -579 l 5
 603 -760 l 5
 784 -940 l 5
 964 -760 l 5
784 -340 m 5
 634 -190 l 5
 414 -410 l 5
 634 -629 l 5
 784 -479 l 5
 934 -629 l 5
 1153 -410 l 5
 934 -190 l 5
 784 -340 l 5
0 0 m 1
 0 347 l 1
 986 347 l 1
 986 758 463 886 100 459 c 1
 126 834 388 1060 744 1060 c 0
 1201 1060 1435 772 1335 0 c 1
 0 0 l 1
EndSplineSet
EndChar

StartChar: uni06BD
Encoding: 232 1725 232
Width: 1663
Flags: W
HStem: 0 21G<670 824.5>
VStem: 1215 345<-47.1147 624.643>
AnchorPoint: "Anchor-1" 845 1560 basechar 0
AnchorPoint: "Anchor-0" 848 -846 basechar 0
LayerCount: 2
Fore
SplineSet
817 1370 m 1
 637 1189 l 1
 456 1370 l 1
 637 1550 l 1
 817 1370 l 1
637 950 m 1
 487 800 l 1
 267 1020 l 1
 487 1239 l 1
 637 1089 l 1
 787 1239 l 1
 1006 1020 l 1
 787 800 l 1
 637 950 l 1
739 0 m 0
 601 0 503 87 503 215 c 1
 615 215 675 273 672 324 c 0
 666 416 526 461 420 369 c 0
 351 309 311 233 299 154 c 0
 213 -409 1218 -493 1215 152 c 0
 1213 523 1215 721 1018 721 c 1
 1018 1052 1563 1109 1562 704 c 2
 1560 152 l 2
 1556 -991 -46 -827 111 158 c 0
 135 309 210 445 334 531 c 0
 596 713 999 607 1005 296 c 0
 1008 147 910 0 739 0 c 0
EndSplineSet
Substitution2: "'init' Initial Forms in Arabic lookup 3 subtable" uni06BD.init
Substitution2: "'medi' Medial Forms in Arabic lookup 4 subtable" uni06BD.medi
Substitution2: "'fina' Terminal Forms in Arabic lookup 5 subtable" uni06BD.fina
EndChar

StartChar: uni06BD.fina
Encoding: 233 -1 233
Width: 1751
Flags: W
HStem: 0 347<1561 1851>
VStem: 1215 334<-44.8031 0 347 624.643>
AnchorPoint: "Anchor-1" 845 1560 basechar 0
AnchorPoint: "Anchor-0" 848 -846 basechar 0
LayerCount: 2
Fore
SplineSet
817 1370 m 5
 637 1189 l 5
 456 1370 l 5
 637 1550 l 5
 817 1370 l 5
637 950 m 5
 487 800 l 5
 267 1020 l 5
 487 1239 l 5
 637 1089 l 5
 787 1239 l 5
 1006 1020 l 5
 787 800 l 5
 637 950 l 5
1851 347 m 1
 1851 0 l 1
 1549 0 l 1
 1410 -974 -39 -781 111 158 c 0
 135 309 210 445 334 531 c 0
 596 713 999 607 1005 296 c 0
 1008 147 910 0 739 0 c 0
 601 0 503 87 503 215 c 1
 615 215 675 273 672 324 c 0
 666 416 526 461 420 369 c 0
 351 309 311 233 299 154 c 0
 213 -409 1218 -493 1215 152 c 0
 1213 523 1215 721 1018 721 c 1
 1018 1052 1563 1109 1562 704 c 2
 1561 347 l 1
 1851 347 l 1
EndSplineSet
EndChar

StartChar: uni06BD.medi
Encoding: 234 -1 234
Width: 942
Flags: W
HStem: 0 347<0 392 742 1042>
VStem: 392 350<347 645.627>
AnchorPoint: "Anchor-1" 480 1164 basechar 0
AnchorPoint: "Anchor-0" 566 -1108 basechar 0
LayerCount: 2
Fore
SplineSet
788 -760 m 1
 608 -579 l 1
 427 -760 l 1
 608 -940 l 1
 788 -760 l 1
608 -340 m 1
 458 -190 l 1
 238 -410 l 1
 458 -629 l 1
 608 -479 l 1
 758 -629 l 1
 977 -410 l 1
 758 -190 l 1
 608 -340 l 1
742 347 m 1
 1042 347 l 1
 1042 0 l 1
 0 0 l 1
 0 347 l 1
 392 347 l 1
 392 507 397 731 198 731 c 1
 198 1062 742 1119 742 644 c 2
 742 347 l 1
EndSplineSet
EndChar

StartChar: uni06BD.init
Encoding: 235 -1 235
Width: 842
Flags: W
HStem: 0 347<0 392>
VStem: 392 350<347 645.627>
AnchorPoint: "Anchor-0" 566 -1108 basechar 0
AnchorPoint: "Anchor-1" 480 1164 basechar 0
LayerCount: 2
Fore
SplineSet
788 -760 m 1
 608 -579 l 1
 427 -760 l 1
 608 -940 l 1
 788 -760 l 1
608 -340 m 1
 458 -190 l 1
 238 -410 l 1
 458 -629 l 1
 608 -479 l 1
 758 -629 l 1
 977 -410 l 1
 758 -190 l 1
 608 -340 l 1
0 0 m 1
 0 347 l 1
 392 347 l 1
 392 507 397 731 198 731 c 1
 198 1062 742 1119 742 644 c 2
 742 0 l 1
 0 0 l 1
EndSplineSet
EndChar

StartChar: uni06CF
Encoding: 236 1743 236
Width: 1195
Flags: W
HStem: 0 347<260 745>
VStem: 100 160<347 503.445> 745 350<-276.546 -1 347 665.214>
AnchorPoint: "Anchor-1" 590 1734 basechar 0
AnchorPoint: "Anchor-0" 588 -737 basechar 0
LayerCount: 2
Fore
SplineSet
838 1423 m 5
 619 1203 l 5
 399 1423 l 5
 619 1642 l 5
 838 1423 l 5
100 347 m 2
 100 838 427 1217 1095 991 c 1
 1095 -100 l 2
 1095 -797 351 -740 351 -409 c 1
 476 -435 745 -495 745 -35 c 2
 745 -1 l 1
 100 0 l 1
 100 347 l 2
745 347 m 1
 745 658 l 1
 453 719 260 571 260 347 c 1
 745 347 l 1
EndSplineSet
Substitution2: "'fina' Terminal Forms in Arabic lookup 5 subtable" uni06CF.fina
EndChar

StartChar: uni06CF.fina
Encoding: 237 -1 237
Width: 1291
Flags: W
HStem: 0 347<260 745 1095 1391>
VStem: 100 160<347 503.445> 745 350<-276.546 -1 347 665.214>
AnchorPoint: "Anchor-1" 590 1734 basechar 0
AnchorPoint: "Anchor-0" 588 -737 basechar 0
LayerCount: 2
Fore
SplineSet
838 1423 m 5
 619 1203 l 5
 399 1423 l 5
 619 1642 l 5
 838 1423 l 5
1391 347 m 1
 1391 0 l 1
 1095 0 l 1
 1095 -100 l 2
 1095 -797 351 -740 351 -409 c 1
 476 -435 745 -495 745 -35 c 2
 745 -1 l 1
 100 0 l 1
 100 347 l 2
 100 838 427 1217 1095 991 c 1
 1095 347 l 1
 1391 347 l 1
260 347 m 1
 745 347 l 1
 745 658 l 1
 453 719 260 571 260 347 c 1
EndSplineSet
EndChar

StartChar: uni2E41
Encoding: 238 11841 238
Width: 622
Flags: W
VStem: 100 422<370.585 589.691> 101 159<137.912 288.176>
LayerCount: 2
Fore
SplineSet
522 502.17578125 m 0x80
 523 674.17578125 395 761.17578125 100 722.17578125 c 1x80
 101 157.17578125 l 2
 101 -55.82421875 344 -26.82421875 344 121.17578125 c 1
 256 121.17578125 260 219.17578125 260 288.17578125 c 2
 260 299.17578125 l 1x40
 423 278.17578125 521 371.17578125 522 502.17578125 c 0x80
EndSplineSet
EndChar

StartChar: uni204F
Encoding: 239 8271 239
Width: 731
Flags: W
VStem: 145 422<360.797 579.903> 146 159<128.124 278.388>
LayerCount: 2
Fore
SplineSet
567 492.387695312 m 0x80
 568 664.387695312 440 751.387695312 145 712.387695312 c 1x80
 146 147.387695312 l 2
 146 -65.6123046875 389 -36.6123046875 389 111.387695312 c 1
 301 111.387695312 305 209.387695312 305 278.387695312 c 2
 305 289.387695312 l 1x40
 468 268.387695312 566 361.387695312 567 492.387695312 c 0x80
366 1485.38769531 m 1
 100 1219.38769531 l 1
 366 954.387695312 l 1
 631 1219.38769531 l 1
 366 1485.38769531 l 1
EndSplineSet
EndChar

StartChar: uni08B4
Encoding: 240 2228 240
Width: 2258
Flags: W
HStem: 0 347<407.257 1808> 540 241<1260.4 1481.9> 858 202<364.358 817.228>
VStem: 1808 345<347 1415.22>
AnchorPoint: "Anchor-0" 948 -796 basechar 0
AnchorPoint: "Anchor-1" 945 1320 basechar 0
LayerCount: 2
Fore
SplineSet
1527 -410 m 1
 1308 -630 l 1
 1088 -410 l 1
 1308 -191 l 1
 1527 -410 l 1
1614 1500 m 1
 1614 1831 2160 1888 2158 1419 c 2
 2153 0 l 1
 722 0 l 2
 502 0 349 45 250 133 c 0
 92 271 82 534 114 685 c 0
 161 898 323 1060 570 1060 c 0
 1055 1060 1011 454 658 454 c 0
 520 454 422 541 422 669 c 1
 625 669 655 858 463 858 c 0
 407 858 344 826 303 766 c 0
 233 661 238 477 372 404 c 0
 450 361 568 348 718 347 c 2
 1808 347 l 1
 1808 1126 l 2
 1808 1276 1813 1500 1614 1500 c 1
1011 510 m 1
 1002 624 1046 731 1159 768 c 1
 1040 963 1156 1260 1417 1225 c 0
 1612 1199 1589 905 1429 908 c 1
 1398 1021 1224 995 1224 896 c 0
 1224 775 1386 781 1589 781 c 1
 1575 558 1499 540 1363 540 c 2
 1268 540 l 2
 1104 540 1059 528 1011 510 c 1
EndSplineSet
Substitution2: "'init' Initial Forms in Arabic lookup 3 subtable" uni08B4.init
Substitution2: "'medi' Medial Forms in Arabic lookup 4 subtable" uni08B4.medi
Substitution2: "'fina' Terminal Forms in Arabic lookup 5 subtable" uni08B4.fina
EndChar

StartChar: uni08B4.fina
Encoding: 241 -1 241
Width: 2349
Flags: W
HStem: 0 347<407.257 1808 2154 2449> 540 241<1260.4 1481.9> 858 202<364.358 817.228>
VStem: 1808 346<347 1415.22>
AnchorPoint: "Anchor-1" 945 1320 basechar 0
AnchorPoint: "Anchor-0" 948 -796 basechar 0
LayerCount: 2
Fore
SplineSet
1527 -410 m 5
 1308 -630 l 5
 1088 -410 l 5
 1308 -191 l 5
 1527 -410 l 5
2154 347 m 1
 2449 347 l 1
 2449 0 l 1
 722 0 l 2
 502 0 349 45 250 133 c 0
 92 271 82 534 114 685 c 0
 161 898 323 1060 570 1060 c 0
 1055 1060 1011 454 658 454 c 0
 520 454 422 541 422 669 c 1
 625 669 655 858 463 858 c 0
 407 858 344 826 303 766 c 0
 233 661 238 477 372 404 c 0
 450 361 568 348 718 347 c 2
 1808 347 l 1
 1808 1126 l 2
 1808 1276 1813 1500 1614 1500 c 1
 1614 1831 2160 1888 2158 1419 c 2
 2154 347 l 1
1268 540 m 2
 1104 540 1059 528 1011 510 c 1
 1002 624 1046 731 1159 768 c 1
 1040 963 1156 1260 1417 1225 c 0
 1612 1199 1589 905 1429 908 c 1
 1398 1021 1224 995 1224 896 c 0
 1224 775 1386 781 1589 781 c 1
 1575 558 1499 540 1363 540 c 2
 1268 540 l 2
EndSplineSet
EndChar

StartChar: uni08B4.medi
Encoding: 242 -1 242
Width: 1379
Flags: W
HStem: 0 347<-7 796.687 1176 1479>
VStem: 793 383<347 583.512>
AnchorPoint: "Anchor-0" 648 -746 basechar 0
AnchorPoint: "Anchor-1" 645 1860 basechar 0
LayerCount: 2
Fore
SplineSet
767 -410 m 1
 548 -630 l 1
 328 -410 l 1
 548 -191 l 1
 767 -410 l 1
1176 347 m 1
 1479 347 l 1
 1479 0 l 1
 -7 0 l 1
 -7 347 l 1
 793 347 l 1
 833 665 577 821 156 721 c 1
 -86 1574 474 1976 1162 1638 c 1
 1109 1456 1069 1336 934 1385 c 0
 832 1422 224 1537 256 1060 c 1
 778 1146 1182 969 1176 347 c 1
EndSplineSet
EndChar

StartChar: uni08B4.init
Encoding: 243 -1 243
Width: 1283
Flags: W
HStem: 0 347<0 803.687>
AnchorPoint: "Anchor-1" 645 1860 basechar 0
AnchorPoint: "Anchor-0" 648 -746 basechar 0
LayerCount: 2
Fore
SplineSet
767 -410 m 5
 548 -630 l 5
 328 -410 l 5
 548 -191 l 5
 767 -410 l 5
0 0 m 1
 0 347 l 1
 800 347 l 1
 840 665 584 821 163 721 c 1
 -79 1574 481 1976 1169 1638 c 1
 1116 1456 1076 1336 941 1385 c 0
 839 1422 231 1537 263 1060 c 1
 872 1160 1320 903 1145 0 c 1
 0 0 l 1
EndSplineSet
EndChar

StartChar: uni06AC
Encoding: 244 1708 244
Width: 2258
Flags: W
HStem: 0 347<407.257 1808> 540 241<1260.4 1481.9> 858 202<364.358 817.228>
VStem: 1808 345<347 1415.22>
AnchorPoint: "Anchor-1" 945 1970 basechar 0
AnchorPoint: "Anchor-0" 948 -226 basechar 0
LayerCount: 2
Fore
SplineSet
1448 1640 m 5
 1229 1420 l 5
 1009 1640 l 5
 1229 1859 l 5
 1448 1640 l 5
1614 1500 m 1
 1614 1831 2160 1888 2158 1419 c 2
 2153 0 l 1
 722 0 l 2
 502 0 349 45 250 133 c 0
 92 271 82 534 114 685 c 0
 161 898 323 1060 570 1060 c 0
 1055 1060 1011 454 658 454 c 0
 520 454 422 541 422 669 c 1
 625 669 655 858 463 858 c 0
 407 858 344 826 303 766 c 0
 233 661 238 477 372 404 c 0
 450 361 568 348 718 347 c 2
 1808 347 l 1
 1808 1126 l 2
 1808 1276 1813 1500 1614 1500 c 1
1011 510 m 1
 1002 624 1046 731 1159 768 c 1
 1040 963 1156 1260 1417 1225 c 0
 1612 1199 1589 905 1429 908 c 1
 1398 1021 1224 995 1224 896 c 0
 1224 775 1386 781 1589 781 c 1
 1575 558 1499 540 1363 540 c 2
 1268 540 l 2
 1104 540 1059 528 1011 510 c 1
EndSplineSet
Substitution2: "'init' Initial Forms in Arabic lookup 3 subtable" uni06AC.init
Substitution2: "'medi' Medial Forms in Arabic lookup 4 subtable" uni06AC.medi
Substitution2: "'fina' Terminal Forms in Arabic lookup 5 subtable" uni06AC.fina
EndChar

StartChar: uni06AC.fina
Encoding: 245 -1 245
Width: 2349
Flags: W
HStem: 0 347<407.257 1808 2154 2449> 540 241<1260.4 1481.9> 858 202<364.358 817.228>
VStem: 1808 346<347 1415.22>
AnchorPoint: "Anchor-1" 945 1970 basechar 0
AnchorPoint: "Anchor-0" 948 -226 basechar 0
LayerCount: 2
Fore
SplineSet
1448 1640 m 5
 1229 1420 l 5
 1009 1640 l 5
 1229 1859 l 5
 1448 1640 l 5
2154 347 m 1
 2449 347 l 1
 2449 0 l 1
 722 0 l 2
 502 0 349 45 250 133 c 0
 92 271 82 534 114 685 c 0
 161 898 323 1060 570 1060 c 0
 1055 1060 1011 454 658 454 c 0
 520 454 422 541 422 669 c 1
 625 669 655 858 463 858 c 0
 407 858 344 826 303 766 c 0
 233 661 238 477 372 404 c 0
 450 361 568 348 718 347 c 2
 1808 347 l 1
 1808 1126 l 2
 1808 1276 1813 1500 1614 1500 c 1
 1614 1831 2160 1888 2158 1419 c 2
 2154 347 l 1
1268 540 m 2
 1104 540 1059 528 1011 510 c 1
 1002 624 1046 731 1159 768 c 1
 1040 963 1156 1260 1417 1225 c 0
 1612 1199 1589 905 1429 908 c 1
 1398 1021 1224 995 1224 896 c 0
 1224 775 1386 781 1589 781 c 1
 1575 558 1499 540 1363 540 c 2
 1268 540 l 2
EndSplineSet
EndChar

StartChar: uni06AC.medi
Encoding: 246 -1 246
Width: 1379
Flags: W
HStem: 0 347<-7 796.687 1176 1479>
VStem: 793 383<347 583.512>
AnchorPoint: "Anchor-1" 645 1860 basechar 0
AnchorPoint: "Anchor-0" 648 -226 basechar 0
LayerCount: 2
Fore
SplineSet
333 1858 m 5
 114 1638 l 5
 -106 1858 l 5
 114 2077 l 5
 333 1858 l 5
1176 347 m 1
 1479 347 l 1
 1479 0 l 1
 -7 0 l 1
 -7 347 l 1
 793 347 l 1
 833 665 577 821 156 721 c 1
 -86 1574 474 1976 1162 1638 c 1
 1109 1456 1069 1336 934 1385 c 0
 832 1422 224 1537 256 1060 c 1
 778 1146 1182 969 1176 347 c 1
EndSplineSet
EndChar

StartChar: uni06AC.init
Encoding: 247 -1 247
Width: 1283
Flags: W
HStem: 0 347<0 803.687>
AnchorPoint: "Anchor-1" 645 1860 basechar 0
AnchorPoint: "Anchor-0" 648 -226 basechar 0
LayerCount: 2
Fore
SplineSet
333 1858 m 5
 114 1638 l 5
 -106 1858 l 5
 114 2077 l 5
 333 1858 l 5
0 0 m 1
 0 347 l 1
 800 347 l 1
 840 665 584 821 163 721 c 1
 -79 1574 481 1976 1169 1638 c 1
 1116 1456 1076 1336 941 1385 c 0
 839 1422 231 1537 263 1060 c 1
 872 1160 1320 903 1145 0 c 1
 0 0 l 1
EndSplineSet
EndChar

StartChar: uni06AE
Encoding: 248 1710 248
Width: 2258
Flags: W
HStem: 0 347<407.257 1808> 540 241<1260.4 1481.9> 858 202<364.358 817.228>
VStem: 1808 345<347 1415.22>
AnchorPoint: "Anchor-0" 948 -1106 basechar 0
AnchorPoint: "Anchor-1" 945 1320 basechar 0
LayerCount: 2
Fore
SplineSet
1490 -760 m 5
 1310 -579 l 5
 1129 -760 l 5
 1310 -940 l 5
 1490 -760 l 5
1310 -340 m 5
 1160 -190 l 5
 940 -410 l 5
 1160 -629 l 5
 1310 -479 l 5
 1460 -629 l 5
 1679 -410 l 5
 1460 -190 l 5
 1310 -340 l 5
1614 1500 m 1
 1614 1831 2160 1888 2158 1419 c 2
 2153 0 l 1
 722 0 l 2
 502 0 349 45 250 133 c 0
 92 271 82 534 114 685 c 0
 161 898 323 1060 570 1060 c 0
 1055 1060 1011 454 658 454 c 0
 520 454 422 541 422 669 c 1
 625 669 655 858 463 858 c 0
 407 858 344 826 303 766 c 0
 233 661 238 477 372 404 c 0
 450 361 568 348 718 347 c 2
 1808 347 l 1
 1808 1126 l 2
 1808 1276 1813 1500 1614 1500 c 1
1011 510 m 1
 1002 624 1046 731 1159 768 c 1
 1040 963 1156 1260 1417 1225 c 0
 1612 1199 1589 905 1429 908 c 1
 1398 1021 1224 995 1224 896 c 0
 1224 775 1386 781 1589 781 c 1
 1575 558 1499 540 1363 540 c 2
 1268 540 l 2
 1104 540 1059 528 1011 510 c 1
EndSplineSet
Substitution2: "'init' Initial Forms in Arabic lookup 3 subtable" uni06AE.init
Substitution2: "'medi' Medial Forms in Arabic lookup 4 subtable" uni06AE.medi
Substitution2: "'fina' Terminal Forms in Arabic lookup 5 subtable" uni06AE.fina
EndChar

StartChar: uni06AE.fina
Encoding: 249 -1 249
Width: 2349
Flags: W
HStem: 0 347<407.257 1808 2154 2449> 540 241<1260.4 1481.9> 858 202<364.358 817.228>
VStem: 1808 346<347 1415.22>
AnchorPoint: "Anchor-0" 948 -1106 basechar 0
AnchorPoint: "Anchor-1" 945 1320 basechar 0
LayerCount: 2
Fore
SplineSet
1490 -760 m 1
 1310 -579 l 1
 1129 -760 l 1
 1310 -940 l 1
 1490 -760 l 1
1310 -340 m 1
 1160 -190 l 1
 940 -410 l 1
 1160 -629 l 1
 1310 -479 l 1
 1460 -629 l 1
 1679 -410 l 1
 1460 -190 l 1
 1310 -340 l 1
2154 347 m 1
 2449 347 l 1
 2449 0 l 1
 722 0 l 2
 502 0 349 45 250 133 c 0
 92 271 82 534 114 685 c 0
 161 898 323 1060 570 1060 c 0
 1055 1060 1011 454 658 454 c 0
 520 454 422 541 422 669 c 1
 625 669 655 858 463 858 c 0
 407 858 344 826 303 766 c 0
 233 661 238 477 372 404 c 0
 450 361 568 348 718 347 c 2
 1808 347 l 1
 1808 1126 l 2
 1808 1276 1813 1500 1614 1500 c 1
 1614 1831 2160 1888 2158 1419 c 2
 2154 347 l 1
1268 540 m 2
 1104 540 1059 528 1011 510 c 1
 1002 624 1046 731 1159 768 c 1
 1040 963 1156 1260 1417 1225 c 0
 1612 1199 1589 905 1429 908 c 1
 1398 1021 1224 995 1224 896 c 0
 1224 775 1386 781 1589 781 c 1
 1575 558 1499 540 1363 540 c 2
 1268 540 l 2
EndSplineSet
EndChar

StartChar: uni06AE.medi
Encoding: 250 -1 250
Width: 1379
Flags: W
HStem: 0 347<-7 796.687 1176 1479>
VStem: 793 383<347 583.512>
AnchorPoint: "Anchor-0" 648 -1066 basechar 0
AnchorPoint: "Anchor-1" 645 1860 basechar 0
LayerCount: 2
Fore
SplineSet
731 -760 m 5
 551 -579 l 5
 370 -760 l 5
 551 -940 l 5
 731 -760 l 5
551 -340 m 5
 401 -190 l 5
 181 -410 l 5
 401 -629 l 5
 551 -479 l 5
 701 -629 l 5
 920 -410 l 5
 701 -190 l 5
 551 -340 l 5
1176 347 m 1
 1479 347 l 1
 1479 0 l 1
 -7 0 l 1
 -7 347 l 1
 793 347 l 1
 833 665 577 821 156 721 c 1
 -86 1574 474 1976 1162 1638 c 1
 1109 1456 1069 1336 934 1385 c 0
 832 1422 224 1537 256 1060 c 1
 778 1146 1182 969 1176 347 c 1
EndSplineSet
EndChar

StartChar: uni06AE.init
Encoding: 251 -1 251
Width: 1283
Flags: W
HStem: 0 347<0 803.687>
AnchorPoint: "Anchor-1" 645 1860 basechar 0
AnchorPoint: "Anchor-0" 648 -1066 basechar 0
LayerCount: 2
Fore
SplineSet
731 -760 m 1
 551 -579 l 1
 370 -760 l 1
 551 -940 l 1
 731 -760 l 1
551 -340 m 1
 401 -190 l 1
 181 -410 l 1
 401 -629 l 1
 551 -479 l 1
 701 -629 l 1
 920 -410 l 1
 701 -190 l 1
 551 -340 l 1
0 0 m 1
 0 347 l 1
 800 347 l 1
 840 665 584 821 163 721 c 1
 -79 1574 481 1976 1169 1638 c 1
 1116 1456 1076 1336 941 1385 c 0
 839 1422 231 1537 263 1060 c 1
 872 1160 1320 903 1145 0 c 1
 0 0 l 1
EndSplineSet
EndChar

StartChar: uni0674
Encoding: 252 1652 252
Width: 1034
Flags: W
HStem: 420 347<483.802 759.533>
AnchorPoint: "Anchor-1" 517 1516 basechar 0
AnchorPoint: "Anchor-0" 517 -198 basechar 0
LayerCount: 2
Fore
SplineSet
101 376 m 5
 88 540 152 695 314 748 c 5
 143 1029 310 1456 686 1406 c 4
 967 1369 934 945 704 949 c 5
 659 1112 408 1075 408 933 c 4
 408 758 642 767 934 767 c 5
 913 445 804 420 608 420 c 6
 471 420 l 6
 235 420 171 402 101 376 c 5
EndSplineSet
EndChar
